G04 EAGLE Gerber RS-274X export*
G75*
%MOMM*%
%FSLAX34Y34*%
%LPD*%
%INMechanical*%
%IPPOS*%
%AMOC8*
5,1,8,0,0,1.08239X$1,22.5*%
G01*
%ADD10C,0.000000*%
%ADD11C,0.254000*%


D10*
X12700Y627100D02*
X12700Y8890D01*
X12702Y8732D01*
X12708Y8573D01*
X12718Y8415D01*
X12732Y8258D01*
X12749Y8100D01*
X12771Y7944D01*
X12796Y7787D01*
X12826Y7632D01*
X12859Y7477D01*
X12896Y7323D01*
X12937Y7170D01*
X12982Y7018D01*
X13031Y6868D01*
X13083Y6718D01*
X13139Y6570D01*
X13199Y6423D01*
X13262Y6278D01*
X13329Y6135D01*
X13399Y5993D01*
X13473Y5853D01*
X13551Y5715D01*
X13632Y5579D01*
X13716Y5445D01*
X13803Y5313D01*
X13894Y5183D01*
X13988Y5056D01*
X14085Y4931D01*
X14186Y4808D01*
X14289Y4688D01*
X14395Y4571D01*
X14504Y4456D01*
X14616Y4344D01*
X14731Y4235D01*
X14848Y4129D01*
X14968Y4026D01*
X15091Y3925D01*
X15216Y3828D01*
X15343Y3734D01*
X15473Y3643D01*
X15605Y3556D01*
X15739Y3472D01*
X15875Y3391D01*
X16013Y3313D01*
X16153Y3239D01*
X16295Y3169D01*
X16438Y3102D01*
X16583Y3039D01*
X16730Y2979D01*
X16878Y2923D01*
X17028Y2871D01*
X17178Y2822D01*
X17330Y2777D01*
X17483Y2736D01*
X17637Y2699D01*
X17792Y2666D01*
X17947Y2636D01*
X18104Y2611D01*
X18260Y2589D01*
X18418Y2572D01*
X18575Y2558D01*
X18733Y2548D01*
X18892Y2542D01*
X19050Y2540D01*
X590552Y2540D01*
X590710Y2542D01*
X590869Y2548D01*
X591027Y2558D01*
X591184Y2572D01*
X591342Y2589D01*
X591498Y2611D01*
X591655Y2636D01*
X591810Y2666D01*
X591965Y2699D01*
X592119Y2736D01*
X592272Y2777D01*
X592424Y2822D01*
X592574Y2871D01*
X592724Y2923D01*
X592872Y2979D01*
X593019Y3039D01*
X593164Y3102D01*
X593307Y3169D01*
X593449Y3239D01*
X593589Y3313D01*
X593727Y3391D01*
X593863Y3472D01*
X593997Y3556D01*
X594129Y3643D01*
X594259Y3734D01*
X594386Y3828D01*
X594511Y3925D01*
X594634Y4026D01*
X594754Y4129D01*
X594871Y4235D01*
X594986Y4344D01*
X595098Y4456D01*
X595207Y4571D01*
X595313Y4688D01*
X595416Y4808D01*
X595517Y4931D01*
X595614Y5056D01*
X595708Y5183D01*
X595799Y5313D01*
X595886Y5445D01*
X595970Y5579D01*
X596051Y5715D01*
X596129Y5853D01*
X596203Y5993D01*
X596273Y6135D01*
X596340Y6278D01*
X596403Y6423D01*
X596463Y6570D01*
X596519Y6718D01*
X596571Y6868D01*
X596620Y7018D01*
X596665Y7170D01*
X596706Y7323D01*
X596743Y7477D01*
X596776Y7632D01*
X596806Y7787D01*
X596831Y7944D01*
X596853Y8100D01*
X596870Y8258D01*
X596884Y8415D01*
X596894Y8573D01*
X596900Y8732D01*
X596902Y8890D01*
X596902Y627100D01*
X12700Y627100D01*
X281305Y433070D02*
X281312Y433647D01*
X281333Y434223D01*
X281369Y434798D01*
X281418Y435373D01*
X281482Y435946D01*
X281559Y436517D01*
X281651Y437087D01*
X281756Y437654D01*
X281876Y438218D01*
X282009Y438779D01*
X282156Y439336D01*
X282317Y439890D01*
X282491Y440440D01*
X282678Y440985D01*
X282879Y441526D01*
X283093Y442061D01*
X283321Y442591D01*
X283561Y443115D01*
X283814Y443634D01*
X284079Y444145D01*
X284357Y444651D01*
X284648Y445149D01*
X284950Y445640D01*
X285265Y446123D01*
X285591Y446599D01*
X285929Y447066D01*
X286278Y447525D01*
X286638Y447975D01*
X287009Y448416D01*
X287391Y448848D01*
X287784Y449271D01*
X288187Y449683D01*
X288599Y450086D01*
X289022Y450479D01*
X289454Y450861D01*
X289895Y451232D01*
X290345Y451592D01*
X290804Y451941D01*
X291271Y452279D01*
X291747Y452605D01*
X292230Y452920D01*
X292721Y453222D01*
X293219Y453513D01*
X293725Y453791D01*
X294236Y454056D01*
X294755Y454309D01*
X295279Y454549D01*
X295809Y454777D01*
X296344Y454991D01*
X296885Y455192D01*
X297430Y455379D01*
X297980Y455553D01*
X298534Y455714D01*
X299091Y455861D01*
X299652Y455994D01*
X300216Y456114D01*
X300783Y456219D01*
X301353Y456311D01*
X301924Y456388D01*
X302497Y456452D01*
X303072Y456501D01*
X303647Y456537D01*
X304223Y456558D01*
X304800Y456565D01*
X305377Y456558D01*
X305953Y456537D01*
X306528Y456501D01*
X307103Y456452D01*
X307676Y456388D01*
X308247Y456311D01*
X308817Y456219D01*
X309384Y456114D01*
X309948Y455994D01*
X310509Y455861D01*
X311066Y455714D01*
X311620Y455553D01*
X312170Y455379D01*
X312715Y455192D01*
X313256Y454991D01*
X313791Y454777D01*
X314321Y454549D01*
X314845Y454309D01*
X315364Y454056D01*
X315875Y453791D01*
X316381Y453513D01*
X316879Y453222D01*
X317370Y452920D01*
X317853Y452605D01*
X318329Y452279D01*
X318796Y451941D01*
X319255Y451592D01*
X319705Y451232D01*
X320146Y450861D01*
X320578Y450479D01*
X321001Y450086D01*
X321413Y449683D01*
X321816Y449271D01*
X322209Y448848D01*
X322591Y448416D01*
X322962Y447975D01*
X323322Y447525D01*
X323671Y447066D01*
X324009Y446599D01*
X324335Y446123D01*
X324650Y445640D01*
X324952Y445149D01*
X325243Y444651D01*
X325521Y444145D01*
X325786Y443634D01*
X326039Y443115D01*
X326279Y442591D01*
X326507Y442061D01*
X326721Y441526D01*
X326922Y440985D01*
X327109Y440440D01*
X327283Y439890D01*
X327444Y439336D01*
X327591Y438779D01*
X327724Y438218D01*
X327844Y437654D01*
X327949Y437087D01*
X328041Y436517D01*
X328118Y435946D01*
X328182Y435373D01*
X328231Y434798D01*
X328267Y434223D01*
X328288Y433647D01*
X328295Y433070D01*
X328288Y432493D01*
X328267Y431917D01*
X328231Y431342D01*
X328182Y430767D01*
X328118Y430194D01*
X328041Y429623D01*
X327949Y429053D01*
X327844Y428486D01*
X327724Y427922D01*
X327591Y427361D01*
X327444Y426804D01*
X327283Y426250D01*
X327109Y425700D01*
X326922Y425155D01*
X326721Y424614D01*
X326507Y424079D01*
X326279Y423549D01*
X326039Y423025D01*
X325786Y422506D01*
X325521Y421995D01*
X325243Y421489D01*
X324952Y420991D01*
X324650Y420500D01*
X324335Y420017D01*
X324009Y419541D01*
X323671Y419074D01*
X323322Y418615D01*
X322962Y418165D01*
X322591Y417724D01*
X322209Y417292D01*
X321816Y416869D01*
X321413Y416457D01*
X321001Y416054D01*
X320578Y415661D01*
X320146Y415279D01*
X319705Y414908D01*
X319255Y414548D01*
X318796Y414199D01*
X318329Y413861D01*
X317853Y413535D01*
X317370Y413220D01*
X316879Y412918D01*
X316381Y412627D01*
X315875Y412349D01*
X315364Y412084D01*
X314845Y411831D01*
X314321Y411591D01*
X313791Y411363D01*
X313256Y411149D01*
X312715Y410948D01*
X312170Y410761D01*
X311620Y410587D01*
X311066Y410426D01*
X310509Y410279D01*
X309948Y410146D01*
X309384Y410026D01*
X308817Y409921D01*
X308247Y409829D01*
X307676Y409752D01*
X307103Y409688D01*
X306528Y409639D01*
X305953Y409603D01*
X305377Y409582D01*
X304800Y409575D01*
X304223Y409582D01*
X303647Y409603D01*
X303072Y409639D01*
X302497Y409688D01*
X301924Y409752D01*
X301353Y409829D01*
X300783Y409921D01*
X300216Y410026D01*
X299652Y410146D01*
X299091Y410279D01*
X298534Y410426D01*
X297980Y410587D01*
X297430Y410761D01*
X296885Y410948D01*
X296344Y411149D01*
X295809Y411363D01*
X295279Y411591D01*
X294755Y411831D01*
X294236Y412084D01*
X293725Y412349D01*
X293219Y412627D01*
X292721Y412918D01*
X292230Y413220D01*
X291747Y413535D01*
X291271Y413861D01*
X290804Y414199D01*
X290345Y414548D01*
X289895Y414908D01*
X289454Y415279D01*
X289022Y415661D01*
X288599Y416054D01*
X288187Y416457D01*
X287784Y416869D01*
X287391Y417292D01*
X287009Y417724D01*
X286638Y418165D01*
X286278Y418615D01*
X285929Y419074D01*
X285591Y419541D01*
X285265Y420017D01*
X284950Y420500D01*
X284648Y420991D01*
X284357Y421489D01*
X284079Y421995D01*
X283814Y422506D01*
X283561Y423025D01*
X283321Y423549D01*
X283093Y424079D01*
X282879Y424614D01*
X282678Y425155D01*
X282491Y425700D01*
X282317Y426250D01*
X282156Y426804D01*
X282009Y427361D01*
X281876Y427922D01*
X281756Y428486D01*
X281651Y429053D01*
X281559Y429623D01*
X281482Y430194D01*
X281418Y430767D01*
X281369Y431342D01*
X281333Y431917D01*
X281312Y432493D01*
X281305Y433070D01*
D11*
X12700Y8890D02*
X12724Y8337D01*
X12796Y7787D01*
X12916Y7247D01*
X13083Y6718D01*
X13295Y6206D01*
X13551Y5715D01*
X13848Y5248D01*
X14186Y4808D01*
X14560Y4400D01*
X14968Y4026D01*
X15408Y3688D01*
X15875Y3391D01*
X16366Y3135D01*
X16878Y2923D01*
X17407Y2756D01*
X17947Y2636D01*
X18497Y2564D01*
X19050Y2540D01*
X590552Y2540D01*
X591105Y2564D01*
X591655Y2636D01*
X592196Y2756D01*
X592724Y2923D01*
X593236Y3135D01*
X593727Y3391D01*
X594194Y3688D01*
X594634Y4026D01*
X595042Y4400D01*
X595416Y4808D01*
X595754Y5248D01*
X596051Y5715D01*
X596307Y6206D01*
X596519Y6718D01*
X596686Y7247D01*
X596806Y7787D01*
X596878Y8337D01*
X596902Y8890D01*
X596902Y627100D01*
X12700Y627100D01*
X12700Y8890D01*
X328295Y432411D02*
X328221Y431094D01*
X328073Y429784D01*
X327853Y428485D01*
X327559Y427199D01*
X327194Y425932D01*
X326759Y424688D01*
X326254Y423470D01*
X325682Y422282D01*
X325045Y421128D01*
X324343Y420012D01*
X323580Y418937D01*
X322758Y417906D01*
X321880Y416923D01*
X320947Y415990D01*
X319964Y415112D01*
X318934Y414290D01*
X317858Y413527D01*
X316742Y412826D01*
X315588Y412188D01*
X314400Y411616D01*
X313182Y411111D01*
X311938Y410676D01*
X310671Y410311D01*
X309385Y410017D01*
X308086Y409797D01*
X306776Y409649D01*
X305459Y409575D01*
X304141Y409575D01*
X302824Y409649D01*
X301514Y409797D01*
X300215Y410017D01*
X298929Y410311D01*
X297662Y410676D01*
X296418Y411111D01*
X295200Y411616D01*
X294012Y412188D01*
X292858Y412826D01*
X291742Y413527D01*
X290667Y414290D01*
X289636Y415112D01*
X288653Y415990D01*
X287720Y416923D01*
X286842Y417906D01*
X286020Y418937D01*
X285257Y420012D01*
X284556Y421128D01*
X283918Y422282D01*
X283346Y423470D01*
X282841Y424688D01*
X282406Y425932D01*
X282041Y427199D01*
X281747Y428485D01*
X281527Y429784D01*
X281379Y431094D01*
X281305Y432411D01*
X281305Y433729D01*
X281379Y435046D01*
X281527Y436356D01*
X281747Y437655D01*
X282041Y438941D01*
X282406Y440208D01*
X282841Y441452D01*
X283346Y442670D01*
X283918Y443858D01*
X284556Y445012D01*
X285257Y446128D01*
X286020Y447204D01*
X286842Y448234D01*
X287720Y449217D01*
X288653Y450150D01*
X289636Y451028D01*
X290667Y451850D01*
X291742Y452613D01*
X292858Y453315D01*
X294012Y453952D01*
X295200Y454524D01*
X296418Y455029D01*
X297662Y455464D01*
X298929Y455829D01*
X300215Y456123D01*
X301514Y456343D01*
X302824Y456491D01*
X304141Y456565D01*
X305459Y456565D01*
X306776Y456491D01*
X308086Y456343D01*
X309385Y456123D01*
X310671Y455829D01*
X311938Y455464D01*
X313182Y455029D01*
X314400Y454524D01*
X315588Y453952D01*
X316742Y453315D01*
X317858Y452613D01*
X318934Y451850D01*
X319964Y451028D01*
X320947Y450150D01*
X321880Y449217D01*
X322758Y448234D01*
X323580Y447204D01*
X324343Y446128D01*
X325045Y445012D01*
X325682Y443858D01*
X326254Y442670D01*
X326759Y441452D01*
X327194Y440208D01*
X327559Y438941D01*
X327853Y437655D01*
X328073Y436356D01*
X328221Y435046D01*
X328295Y433729D01*
X328295Y432411D01*
M02*
