G04 EAGLE Gerber RS-274X export*
G75*
%MOMM*%
%FSLAX34Y34*%
%LPD*%
%INBottom Copper*%
%IPPOS*%
%AMOC8*
5,1,8,0,0,1.08239X$1,22.5*%
G01*
%ADD10R,1.905000X7.620000*%
%ADD11R,1.676400X1.676400*%
%ADD12C,1.676400*%
%ADD13R,1.778000X1.778000*%
%ADD14C,1.778000*%
%ADD15R,1.168400X1.600200*%
%ADD16R,2.540000X5.080000*%
%ADD17C,0.654800*%
%ADD18C,0.609600*%
%ADD19C,0.304800*%

G36*
X83586Y85602D02*
X83586Y85602D01*
X83605Y85600D01*
X83707Y85622D01*
X83809Y85639D01*
X83826Y85648D01*
X83846Y85652D01*
X83935Y85705D01*
X84026Y85754D01*
X84040Y85768D01*
X84057Y85778D01*
X84124Y85857D01*
X84196Y85932D01*
X84204Y85950D01*
X84217Y85965D01*
X84256Y86061D01*
X84299Y86155D01*
X84301Y86175D01*
X84309Y86193D01*
X84327Y86360D01*
X84327Y217794D01*
X125106Y258573D01*
X140716Y258573D01*
X140736Y258576D01*
X140755Y258574D01*
X140857Y258596D01*
X140959Y258612D01*
X140976Y258622D01*
X140996Y258626D01*
X141085Y258679D01*
X141176Y258728D01*
X141190Y258742D01*
X141207Y258752D01*
X141274Y258831D01*
X141346Y258906D01*
X141354Y258924D01*
X141367Y258939D01*
X141406Y259035D01*
X141449Y259129D01*
X141451Y259149D01*
X141459Y259167D01*
X141477Y259334D01*
X141477Y289891D01*
X141463Y289981D01*
X141455Y290072D01*
X141443Y290101D01*
X141438Y290133D01*
X141395Y290214D01*
X141359Y290298D01*
X141333Y290330D01*
X141322Y290351D01*
X141299Y290373D01*
X141254Y290429D01*
X135127Y296556D01*
X135127Y389016D01*
X135113Y389106D01*
X135105Y389197D01*
X135093Y389226D01*
X135088Y389258D01*
X135045Y389339D01*
X135009Y389423D01*
X134983Y389455D01*
X134972Y389476D01*
X134949Y389498D01*
X134904Y389554D01*
X134340Y390118D01*
X133377Y392442D01*
X133377Y394958D01*
X134340Y397282D01*
X136118Y399060D01*
X138442Y400023D01*
X140958Y400023D01*
X143282Y399060D01*
X145060Y397282D01*
X146023Y394958D01*
X146023Y392442D01*
X145060Y390118D01*
X144496Y389554D01*
X144443Y389480D01*
X144383Y389411D01*
X144371Y389380D01*
X144352Y389354D01*
X144325Y389267D01*
X144291Y389182D01*
X144287Y389141D01*
X144280Y389119D01*
X144281Y389087D01*
X144273Y389016D01*
X144273Y300659D01*
X144287Y300569D01*
X144295Y300478D01*
X144307Y300449D01*
X144312Y300417D01*
X144355Y300336D01*
X144391Y300252D01*
X144417Y300220D01*
X144428Y300199D01*
X144451Y300177D01*
X144496Y300121D01*
X150623Y293994D01*
X150623Y259334D01*
X150626Y259314D01*
X150624Y259295D01*
X150646Y259193D01*
X150662Y259091D01*
X150672Y259074D01*
X150676Y259054D01*
X150729Y258965D01*
X150778Y258874D01*
X150792Y258860D01*
X150802Y258843D01*
X150881Y258776D01*
X150956Y258704D01*
X150974Y258696D01*
X150989Y258683D01*
X151085Y258644D01*
X151179Y258601D01*
X151199Y258599D01*
X151217Y258591D01*
X151384Y258573D01*
X185816Y258573D01*
X185906Y258587D01*
X185997Y258595D01*
X186027Y258607D01*
X186058Y258612D01*
X186139Y258655D01*
X186223Y258691D01*
X186255Y258717D01*
X186276Y258728D01*
X186298Y258751D01*
X186354Y258796D01*
X186918Y259360D01*
X189242Y260323D01*
X191758Y260323D01*
X194082Y259360D01*
X195860Y257582D01*
X196823Y255258D01*
X196823Y252742D01*
X195860Y250418D01*
X194082Y248640D01*
X191758Y247677D01*
X189242Y247677D01*
X186918Y248640D01*
X186354Y249204D01*
X186280Y249258D01*
X186211Y249317D01*
X186181Y249329D01*
X186154Y249348D01*
X186067Y249375D01*
X185982Y249409D01*
X185942Y249413D01*
X185919Y249420D01*
X185887Y249419D01*
X185816Y249427D01*
X129209Y249427D01*
X129119Y249413D01*
X129028Y249405D01*
X128999Y249393D01*
X128967Y249388D01*
X128886Y249345D01*
X128802Y249309D01*
X128770Y249283D01*
X128749Y249272D01*
X128727Y249249D01*
X128671Y249204D01*
X93696Y214229D01*
X93643Y214155D01*
X93583Y214085D01*
X93571Y214055D01*
X93552Y214029D01*
X93525Y213942D01*
X93491Y213857D01*
X93487Y213816D01*
X93480Y213794D01*
X93481Y213762D01*
X93473Y213691D01*
X93473Y86360D01*
X93476Y86340D01*
X93474Y86321D01*
X93496Y86219D01*
X93512Y86117D01*
X93522Y86100D01*
X93526Y86080D01*
X93579Y85991D01*
X93628Y85900D01*
X93642Y85886D01*
X93652Y85869D01*
X93731Y85802D01*
X93806Y85731D01*
X93824Y85722D01*
X93839Y85709D01*
X93935Y85670D01*
X94029Y85627D01*
X94049Y85625D01*
X94067Y85617D01*
X94234Y85599D01*
X134366Y85599D01*
X134386Y85602D01*
X134405Y85600D01*
X134507Y85622D01*
X134609Y85639D01*
X134626Y85648D01*
X134646Y85652D01*
X134735Y85705D01*
X134826Y85754D01*
X134840Y85768D01*
X134857Y85778D01*
X134924Y85857D01*
X134996Y85932D01*
X135004Y85950D01*
X135017Y85965D01*
X135056Y86061D01*
X135099Y86155D01*
X135101Y86175D01*
X135109Y86193D01*
X135127Y86360D01*
X135127Y150191D01*
X135113Y150281D01*
X135105Y150372D01*
X135093Y150401D01*
X135088Y150433D01*
X135045Y150514D01*
X135009Y150598D01*
X134983Y150630D01*
X134972Y150651D01*
X134949Y150673D01*
X134904Y150729D01*
X103377Y182256D01*
X103377Y204866D01*
X103363Y204956D01*
X103355Y205047D01*
X103343Y205076D01*
X103338Y205108D01*
X103295Y205189D01*
X103259Y205273D01*
X103233Y205305D01*
X103222Y205326D01*
X103199Y205348D01*
X103154Y205404D01*
X102590Y205968D01*
X101627Y208292D01*
X101627Y210808D01*
X102590Y213132D01*
X104368Y214910D01*
X106692Y215873D01*
X109208Y215873D01*
X111532Y214910D01*
X113310Y213132D01*
X114273Y210808D01*
X114273Y208292D01*
X113310Y205968D01*
X112746Y205404D01*
X112693Y205330D01*
X112633Y205261D01*
X112621Y205230D01*
X112602Y205204D01*
X112575Y205117D01*
X112541Y205032D01*
X112537Y204991D01*
X112530Y204969D01*
X112531Y204937D01*
X112523Y204866D01*
X112523Y186359D01*
X112537Y186269D01*
X112545Y186178D01*
X112557Y186149D01*
X112562Y186117D01*
X112605Y186036D01*
X112641Y185952D01*
X112667Y185920D01*
X112678Y185899D01*
X112701Y185877D01*
X112746Y185821D01*
X144273Y154294D01*
X144273Y86360D01*
X144276Y86340D01*
X144274Y86321D01*
X144296Y86219D01*
X144312Y86117D01*
X144322Y86100D01*
X144326Y86080D01*
X144379Y85991D01*
X144428Y85900D01*
X144442Y85886D01*
X144452Y85869D01*
X144531Y85802D01*
X144606Y85731D01*
X144624Y85722D01*
X144639Y85709D01*
X144735Y85670D01*
X144829Y85627D01*
X144849Y85625D01*
X144867Y85617D01*
X145034Y85599D01*
X183884Y85599D01*
X183930Y85606D01*
X183976Y85604D01*
X184050Y85626D01*
X184127Y85639D01*
X184168Y85660D01*
X184212Y85673D01*
X184276Y85717D01*
X184345Y85754D01*
X184376Y85787D01*
X184414Y85813D01*
X184460Y85875D01*
X184514Y85932D01*
X184533Y85974D01*
X184561Y86010D01*
X184585Y86084D01*
X184618Y86155D01*
X184623Y86201D01*
X184637Y86244D01*
X184636Y86322D01*
X184645Y86399D01*
X184635Y86444D01*
X184634Y86490D01*
X184596Y86622D01*
X184592Y86640D01*
X184590Y86644D01*
X184588Y86651D01*
X184177Y87642D01*
X184177Y90158D01*
X185140Y92482D01*
X185704Y93046D01*
X185757Y93120D01*
X185817Y93189D01*
X185829Y93220D01*
X185848Y93246D01*
X185875Y93333D01*
X185909Y93418D01*
X185913Y93459D01*
X185920Y93481D01*
X185919Y93513D01*
X185927Y93584D01*
X185927Y124791D01*
X185913Y124881D01*
X185905Y124972D01*
X185893Y125001D01*
X185888Y125033D01*
X185845Y125114D01*
X185809Y125198D01*
X185783Y125230D01*
X185772Y125251D01*
X185749Y125273D01*
X185704Y125329D01*
X147827Y163206D01*
X147827Y188291D01*
X147813Y188381D01*
X147805Y188472D01*
X147793Y188501D01*
X147788Y188533D01*
X147745Y188614D01*
X147709Y188698D01*
X147683Y188730D01*
X147672Y188751D01*
X147649Y188773D01*
X147604Y188829D01*
X139779Y196654D01*
X139705Y196707D01*
X139635Y196767D01*
X139605Y196779D01*
X139579Y196798D01*
X139492Y196825D01*
X139407Y196859D01*
X139366Y196863D01*
X139344Y196870D01*
X139312Y196869D01*
X139241Y196877D01*
X138442Y196877D01*
X136118Y197840D01*
X134340Y199618D01*
X133377Y201942D01*
X133377Y204458D01*
X134340Y206782D01*
X136118Y208560D01*
X138442Y209523D01*
X140958Y209523D01*
X143282Y208560D01*
X145060Y206782D01*
X146023Y204458D01*
X146023Y203659D01*
X146037Y203569D01*
X146045Y203478D01*
X146057Y203449D01*
X146062Y203417D01*
X146105Y203336D01*
X146141Y203252D01*
X146167Y203220D01*
X146178Y203199D01*
X146201Y203177D01*
X146246Y203121D01*
X156973Y192394D01*
X156973Y167309D01*
X156987Y167219D01*
X156995Y167128D01*
X157007Y167099D01*
X157012Y167067D01*
X157055Y166986D01*
X157091Y166902D01*
X157117Y166870D01*
X157128Y166849D01*
X157151Y166827D01*
X157196Y166771D01*
X195073Y128894D01*
X195073Y93584D01*
X195087Y93494D01*
X195095Y93403D01*
X195107Y93374D01*
X195112Y93342D01*
X195155Y93261D01*
X195191Y93177D01*
X195217Y93145D01*
X195228Y93124D01*
X195251Y93102D01*
X195296Y93046D01*
X195860Y92482D01*
X196823Y90158D01*
X196823Y87642D01*
X196412Y86651D01*
X196402Y86607D01*
X196382Y86565D01*
X196374Y86488D01*
X196356Y86412D01*
X196360Y86366D01*
X196355Y86321D01*
X196372Y86244D01*
X196379Y86167D01*
X196398Y86125D01*
X196408Y86080D01*
X196448Y86013D01*
X196479Y85942D01*
X196510Y85908D01*
X196534Y85869D01*
X196593Y85819D01*
X196646Y85761D01*
X196686Y85739D01*
X196721Y85709D01*
X196793Y85680D01*
X196861Y85643D01*
X196906Y85634D01*
X196949Y85617D01*
X197085Y85602D01*
X197103Y85599D01*
X197108Y85600D01*
X197116Y85599D01*
X235966Y85599D01*
X235986Y85602D01*
X236005Y85600D01*
X236107Y85622D01*
X236209Y85639D01*
X236226Y85648D01*
X236246Y85652D01*
X236335Y85705D01*
X236426Y85754D01*
X236440Y85768D01*
X236457Y85778D01*
X236524Y85857D01*
X236596Y85932D01*
X236604Y85950D01*
X236617Y85965D01*
X236656Y86061D01*
X236699Y86155D01*
X236701Y86175D01*
X236709Y86193D01*
X236727Y86360D01*
X236727Y141594D01*
X239629Y144496D01*
X249204Y154071D01*
X249257Y154145D01*
X249317Y154215D01*
X249329Y154245D01*
X249348Y154271D01*
X249375Y154358D01*
X249409Y154443D01*
X249413Y154484D01*
X249420Y154506D01*
X249419Y154538D01*
X249427Y154609D01*
X249427Y179513D01*
X249408Y179628D01*
X249391Y179744D01*
X249389Y179749D01*
X249388Y179756D01*
X249333Y179858D01*
X249280Y179963D01*
X249275Y179968D01*
X249272Y179973D01*
X249188Y180053D01*
X249104Y180135D01*
X249098Y180139D01*
X249094Y180142D01*
X249077Y180150D01*
X248957Y180216D01*
X247525Y180810D01*
X244310Y184025D01*
X242569Y188226D01*
X242569Y192774D01*
X244310Y196975D01*
X247525Y200190D01*
X251726Y201931D01*
X256274Y201931D01*
X260475Y200191D01*
X260828Y199838D01*
X260886Y199796D01*
X260938Y199747D01*
X260985Y199725D01*
X261027Y199694D01*
X261096Y199673D01*
X261161Y199643D01*
X261213Y199637D01*
X261263Y199622D01*
X261334Y199624D01*
X261405Y199616D01*
X261456Y199627D01*
X261508Y199628D01*
X261576Y199653D01*
X261646Y199668D01*
X261691Y199695D01*
X261739Y199713D01*
X261795Y199757D01*
X261857Y199794D01*
X261891Y199834D01*
X261931Y199866D01*
X261970Y199927D01*
X262017Y199981D01*
X262036Y200030D01*
X262064Y200073D01*
X262082Y200143D01*
X262109Y200209D01*
X262117Y200281D01*
X262125Y200312D01*
X262123Y200335D01*
X262127Y200376D01*
X262127Y217794D01*
X265029Y220696D01*
X350804Y306471D01*
X350857Y306545D01*
X350917Y306615D01*
X350929Y306645D01*
X350948Y306671D01*
X350975Y306758D01*
X351009Y306843D01*
X351013Y306884D01*
X351020Y306906D01*
X351019Y306938D01*
X351027Y307009D01*
X351027Y331913D01*
X351008Y332028D01*
X350991Y332144D01*
X350989Y332149D01*
X350988Y332156D01*
X350933Y332258D01*
X350880Y332363D01*
X350875Y332368D01*
X350872Y332373D01*
X350788Y332453D01*
X350704Y332535D01*
X350698Y332539D01*
X350694Y332542D01*
X350677Y332550D01*
X350557Y332616D01*
X349125Y333209D01*
X348772Y333562D01*
X348714Y333604D01*
X348662Y333653D01*
X348615Y333675D01*
X348573Y333706D01*
X348504Y333727D01*
X348439Y333757D01*
X348387Y333763D01*
X348337Y333778D01*
X348266Y333776D01*
X348195Y333784D01*
X348144Y333773D01*
X348092Y333772D01*
X348024Y333747D01*
X347954Y333732D01*
X347909Y333705D01*
X347861Y333687D01*
X347805Y333643D01*
X347743Y333606D01*
X347709Y333566D01*
X347669Y333534D01*
X347630Y333473D01*
X347583Y333419D01*
X347564Y333370D01*
X347536Y333327D01*
X347518Y333257D01*
X347491Y333191D01*
X347483Y333119D01*
X347475Y333088D01*
X347477Y333065D01*
X347473Y333024D01*
X347473Y328306D01*
X332094Y312927D01*
X290206Y312927D01*
X274827Y328306D01*
X274827Y331913D01*
X274808Y332028D01*
X274791Y332144D01*
X274789Y332149D01*
X274788Y332156D01*
X274733Y332258D01*
X274680Y332363D01*
X274675Y332368D01*
X274672Y332373D01*
X274588Y332453D01*
X274504Y332535D01*
X274498Y332539D01*
X274494Y332542D01*
X274477Y332550D01*
X274357Y332616D01*
X272925Y333210D01*
X269710Y336425D01*
X267969Y340626D01*
X267969Y345174D01*
X269709Y349375D01*
X270062Y349728D01*
X270104Y349786D01*
X270153Y349838D01*
X270175Y349885D01*
X270206Y349927D01*
X270227Y349996D01*
X270257Y350061D01*
X270263Y350113D01*
X270278Y350163D01*
X270276Y350234D01*
X270284Y350305D01*
X270273Y350356D01*
X270272Y350408D01*
X270247Y350476D01*
X270232Y350546D01*
X270205Y350591D01*
X270187Y350639D01*
X270143Y350695D01*
X270106Y350757D01*
X270066Y350791D01*
X270034Y350831D01*
X269973Y350870D01*
X269919Y350917D01*
X269870Y350936D01*
X269827Y350964D01*
X269757Y350982D01*
X269691Y351009D01*
X269619Y351017D01*
X269588Y351025D01*
X269565Y351023D01*
X269524Y351027D01*
X268909Y351027D01*
X268819Y351013D01*
X268728Y351005D01*
X268699Y350993D01*
X268667Y350988D01*
X268586Y350945D01*
X268502Y350909D01*
X268470Y350883D01*
X268449Y350872D01*
X268427Y350849D01*
X268371Y350804D01*
X265002Y347436D01*
X264934Y347341D01*
X264865Y347247D01*
X264863Y347241D01*
X264859Y347236D01*
X264825Y347125D01*
X264788Y347013D01*
X264788Y347007D01*
X264787Y347001D01*
X264790Y346884D01*
X264791Y346767D01*
X264793Y346760D01*
X264793Y346755D01*
X264799Y346738D01*
X264837Y346606D01*
X265431Y345174D01*
X265431Y340626D01*
X263690Y336425D01*
X260475Y333210D01*
X256274Y331469D01*
X251726Y331469D01*
X247525Y333209D01*
X247172Y333562D01*
X247114Y333604D01*
X247062Y333653D01*
X247015Y333675D01*
X246973Y333706D01*
X246904Y333727D01*
X246839Y333757D01*
X246787Y333763D01*
X246737Y333778D01*
X246666Y333776D01*
X246595Y333784D01*
X246544Y333773D01*
X246492Y333772D01*
X246424Y333747D01*
X246354Y333732D01*
X246309Y333705D01*
X246261Y333687D01*
X246205Y333643D01*
X246143Y333606D01*
X246109Y333566D01*
X246069Y333534D01*
X246030Y333473D01*
X245983Y333419D01*
X245964Y333370D01*
X245936Y333327D01*
X245918Y333257D01*
X245891Y333191D01*
X245883Y333119D01*
X245875Y333088D01*
X245877Y333065D01*
X245873Y333024D01*
X245873Y264806D01*
X235146Y254079D01*
X235093Y254005D01*
X235033Y253935D01*
X235021Y253905D01*
X235002Y253879D01*
X234975Y253792D01*
X234941Y253707D01*
X234937Y253666D01*
X234930Y253644D01*
X234931Y253612D01*
X234923Y253541D01*
X234923Y252742D01*
X233960Y250418D01*
X232182Y248640D01*
X229858Y247677D01*
X227342Y247677D01*
X225018Y248640D01*
X223240Y250418D01*
X222277Y252742D01*
X222277Y255258D01*
X223240Y257582D01*
X225018Y259360D01*
X227342Y260323D01*
X228141Y260323D01*
X228231Y260337D01*
X228322Y260345D01*
X228351Y260357D01*
X228383Y260362D01*
X228464Y260405D01*
X228548Y260441D01*
X228580Y260467D01*
X228601Y260478D01*
X228623Y260501D01*
X228679Y260546D01*
X236504Y268371D01*
X236557Y268445D01*
X236617Y268515D01*
X236629Y268545D01*
X236648Y268571D01*
X236675Y268658D01*
X236709Y268743D01*
X236713Y268784D01*
X236720Y268806D01*
X236719Y268838D01*
X236727Y268909D01*
X236727Y333024D01*
X236725Y333036D01*
X236726Y333044D01*
X236717Y333088D01*
X236716Y333095D01*
X236714Y333166D01*
X236696Y333215D01*
X236688Y333267D01*
X236654Y333330D01*
X236629Y333397D01*
X236597Y333438D01*
X236572Y333484D01*
X236520Y333534D01*
X236476Y333589D01*
X236432Y333618D01*
X236394Y333653D01*
X236329Y333684D01*
X236269Y333722D01*
X236218Y333735D01*
X236171Y333757D01*
X236100Y333765D01*
X236030Y333783D01*
X235978Y333778D01*
X235927Y333784D01*
X235856Y333769D01*
X235785Y333763D01*
X235737Y333743D01*
X235686Y333732D01*
X235625Y333695D01*
X235559Y333667D01*
X235503Y333622D01*
X235475Y333606D01*
X235460Y333588D01*
X235428Y333562D01*
X235075Y333209D01*
X230874Y331469D01*
X226326Y331469D01*
X222125Y333209D01*
X221772Y333562D01*
X221714Y333604D01*
X221662Y333653D01*
X221615Y333675D01*
X221573Y333706D01*
X221504Y333727D01*
X221439Y333757D01*
X221387Y333763D01*
X221337Y333778D01*
X221266Y333776D01*
X221195Y333784D01*
X221144Y333773D01*
X221092Y333772D01*
X221024Y333747D01*
X220954Y333732D01*
X220909Y333705D01*
X220861Y333687D01*
X220805Y333643D01*
X220743Y333606D01*
X220709Y333566D01*
X220669Y333534D01*
X220630Y333473D01*
X220583Y333419D01*
X220564Y333370D01*
X220536Y333327D01*
X220518Y333257D01*
X220491Y333191D01*
X220483Y333119D01*
X220475Y333088D01*
X220477Y333065D01*
X220473Y333024D01*
X220473Y239406D01*
X207996Y226929D01*
X207948Y226862D01*
X207944Y226858D01*
X207942Y226855D01*
X207883Y226785D01*
X207871Y226755D01*
X207852Y226729D01*
X207825Y226642D01*
X207791Y226557D01*
X207787Y226516D01*
X207780Y226494D01*
X207781Y226462D01*
X207773Y226391D01*
X207773Y201487D01*
X207792Y201372D01*
X207809Y201256D01*
X207811Y201251D01*
X207812Y201244D01*
X207867Y201142D01*
X207920Y201037D01*
X207925Y201032D01*
X207928Y201027D01*
X208012Y200947D01*
X208096Y200865D01*
X208102Y200861D01*
X208106Y200858D01*
X208123Y200850D01*
X208243Y200784D01*
X209675Y200190D01*
X212890Y196975D01*
X214631Y192774D01*
X214631Y188226D01*
X212890Y184025D01*
X209675Y180810D01*
X205474Y179069D01*
X200926Y179069D01*
X196725Y180809D01*
X196372Y181162D01*
X196314Y181204D01*
X196262Y181253D01*
X196215Y181275D01*
X196173Y181306D01*
X196104Y181327D01*
X196039Y181357D01*
X195987Y181363D01*
X195937Y181378D01*
X195866Y181376D01*
X195795Y181384D01*
X195744Y181373D01*
X195692Y181372D01*
X195624Y181347D01*
X195554Y181332D01*
X195509Y181305D01*
X195461Y181287D01*
X195405Y181243D01*
X195343Y181206D01*
X195309Y181166D01*
X195269Y181134D01*
X195230Y181073D01*
X195183Y181019D01*
X195164Y180970D01*
X195136Y180927D01*
X195118Y180857D01*
X195091Y180791D01*
X195083Y180719D01*
X195075Y180688D01*
X195077Y180665D01*
X195073Y180624D01*
X195073Y154609D01*
X195087Y154519D01*
X195095Y154428D01*
X195107Y154399D01*
X195112Y154367D01*
X195155Y154286D01*
X195191Y154202D01*
X195217Y154170D01*
X195228Y154149D01*
X195251Y154127D01*
X195296Y154071D01*
X228521Y120846D01*
X228595Y120793D01*
X228665Y120733D01*
X228695Y120721D01*
X228721Y120702D01*
X228808Y120675D01*
X228893Y120641D01*
X228934Y120637D01*
X228956Y120630D01*
X228988Y120631D01*
X229059Y120623D01*
X229858Y120623D01*
X232182Y119660D01*
X233960Y117882D01*
X234923Y115558D01*
X234923Y113042D01*
X233960Y110718D01*
X232182Y108940D01*
X229858Y107977D01*
X227342Y107977D01*
X225018Y108940D01*
X223240Y110718D01*
X222277Y113042D01*
X222277Y113841D01*
X222263Y113931D01*
X222255Y114022D01*
X222243Y114051D01*
X222238Y114083D01*
X222195Y114164D01*
X222159Y114248D01*
X222133Y114280D01*
X222122Y114301D01*
X222099Y114323D01*
X222054Y114379D01*
X188829Y147604D01*
X185927Y150506D01*
X185927Y178308D01*
X185924Y178328D01*
X185926Y178347D01*
X185904Y178449D01*
X185888Y178551D01*
X185878Y178568D01*
X185874Y178588D01*
X185821Y178677D01*
X185772Y178768D01*
X185758Y178782D01*
X185748Y178799D01*
X185669Y178866D01*
X185594Y178938D01*
X185576Y178946D01*
X185561Y178959D01*
X185465Y178998D01*
X185371Y179041D01*
X185351Y179043D01*
X185333Y179051D01*
X185166Y179069D01*
X168155Y179069D01*
X166369Y180855D01*
X166369Y200145D01*
X168155Y201931D01*
X185166Y201931D01*
X185186Y201934D01*
X185205Y201932D01*
X185307Y201954D01*
X185409Y201970D01*
X185426Y201980D01*
X185446Y201984D01*
X185535Y202037D01*
X185626Y202086D01*
X185640Y202100D01*
X185657Y202110D01*
X185724Y202189D01*
X185796Y202264D01*
X185804Y202282D01*
X185817Y202297D01*
X185856Y202393D01*
X185899Y202487D01*
X185901Y202507D01*
X185909Y202525D01*
X185927Y202692D01*
X185927Y230494D01*
X198404Y242971D01*
X198457Y243045D01*
X198517Y243115D01*
X198529Y243145D01*
X198548Y243171D01*
X198575Y243258D01*
X198609Y243343D01*
X198613Y243384D01*
X198620Y243406D01*
X198619Y243438D01*
X198627Y243509D01*
X198627Y264491D01*
X198623Y264518D01*
X198624Y264532D01*
X198612Y264589D01*
X198605Y264672D01*
X198593Y264701D01*
X198588Y264733D01*
X198576Y264756D01*
X198572Y264772D01*
X198539Y264828D01*
X198509Y264898D01*
X198483Y264930D01*
X198472Y264951D01*
X198456Y264966D01*
X198446Y264983D01*
X198429Y264998D01*
X198404Y265029D01*
X185927Y277506D01*
X185927Y305816D01*
X185924Y305836D01*
X185926Y305855D01*
X185904Y305957D01*
X185888Y306059D01*
X185878Y306076D01*
X185874Y306096D01*
X185821Y306185D01*
X185772Y306276D01*
X185758Y306290D01*
X185748Y306307D01*
X185669Y306374D01*
X185594Y306446D01*
X185576Y306454D01*
X185561Y306467D01*
X185465Y306506D01*
X185371Y306549D01*
X185351Y306551D01*
X185333Y306559D01*
X185166Y306577D01*
X157084Y306577D01*
X156994Y306563D01*
X156903Y306555D01*
X156874Y306543D01*
X156842Y306538D01*
X156761Y306495D01*
X156677Y306459D01*
X156645Y306433D01*
X156624Y306422D01*
X156602Y306399D01*
X156546Y306354D01*
X155982Y305790D01*
X153658Y304827D01*
X151142Y304827D01*
X148818Y305790D01*
X147040Y307568D01*
X146077Y309892D01*
X146077Y312408D01*
X147040Y314732D01*
X148818Y316510D01*
X151142Y317473D01*
X153658Y317473D01*
X155982Y316510D01*
X156546Y315946D01*
X156620Y315893D01*
X156689Y315833D01*
X156720Y315821D01*
X156746Y315802D01*
X156833Y315775D01*
X156918Y315741D01*
X156959Y315737D01*
X156981Y315730D01*
X157013Y315731D01*
X157084Y315723D01*
X185166Y315723D01*
X185186Y315726D01*
X185205Y315724D01*
X185307Y315746D01*
X185409Y315762D01*
X185426Y315772D01*
X185446Y315776D01*
X185535Y315829D01*
X185626Y315878D01*
X185640Y315892D01*
X185657Y315902D01*
X185724Y315981D01*
X185796Y316056D01*
X185804Y316074D01*
X185817Y316089D01*
X185856Y316185D01*
X185899Y316279D01*
X185901Y316299D01*
X185909Y316317D01*
X185927Y316484D01*
X185927Y333024D01*
X185925Y333036D01*
X185926Y333044D01*
X185917Y333088D01*
X185916Y333095D01*
X185914Y333166D01*
X185896Y333215D01*
X185888Y333267D01*
X185854Y333330D01*
X185829Y333397D01*
X185797Y333438D01*
X185772Y333484D01*
X185720Y333534D01*
X185676Y333589D01*
X185632Y333618D01*
X185594Y333653D01*
X185529Y333684D01*
X185469Y333722D01*
X185418Y333735D01*
X185371Y333757D01*
X185300Y333765D01*
X185230Y333783D01*
X185178Y333778D01*
X185127Y333784D01*
X185056Y333769D01*
X184985Y333763D01*
X184937Y333743D01*
X184886Y333732D01*
X184825Y333695D01*
X184759Y333667D01*
X184703Y333622D01*
X184675Y333606D01*
X184660Y333588D01*
X184628Y333562D01*
X184275Y333209D01*
X180074Y331469D01*
X175526Y331469D01*
X171325Y333210D01*
X168110Y336425D01*
X166369Y340626D01*
X166369Y345174D01*
X168110Y349375D01*
X171325Y352590D01*
X175526Y354331D01*
X180074Y354331D01*
X184275Y352591D01*
X184628Y352238D01*
X184686Y352196D01*
X184738Y352147D01*
X184785Y352125D01*
X184827Y352094D01*
X184896Y352073D01*
X184961Y352043D01*
X185013Y352037D01*
X185063Y352022D01*
X185134Y352024D01*
X185205Y352016D01*
X185256Y352027D01*
X185308Y352028D01*
X185376Y352053D01*
X185446Y352068D01*
X185491Y352095D01*
X185539Y352113D01*
X185595Y352157D01*
X185657Y352194D01*
X185691Y352234D01*
X185731Y352266D01*
X185770Y352327D01*
X185817Y352381D01*
X185836Y352430D01*
X185864Y352473D01*
X185882Y352543D01*
X185909Y352609D01*
X185917Y352681D01*
X185925Y352712D01*
X185923Y352735D01*
X185927Y352776D01*
X185927Y357266D01*
X185913Y357356D01*
X185905Y357447D01*
X185893Y357476D01*
X185888Y357508D01*
X185845Y357589D01*
X185809Y357673D01*
X185783Y357705D01*
X185772Y357726D01*
X185749Y357748D01*
X185704Y357804D01*
X185140Y358368D01*
X184177Y360692D01*
X184177Y363208D01*
X185140Y365532D01*
X186918Y367310D01*
X189242Y368273D01*
X191758Y368273D01*
X194082Y367310D01*
X195860Y365532D01*
X196823Y363208D01*
X196823Y360692D01*
X195860Y358368D01*
X195296Y357804D01*
X195243Y357730D01*
X195183Y357661D01*
X195171Y357630D01*
X195152Y357604D01*
X195125Y357517D01*
X195091Y357432D01*
X195087Y357391D01*
X195080Y357369D01*
X195081Y357337D01*
X195073Y357266D01*
X195073Y352776D01*
X195075Y352765D01*
X195074Y352758D01*
X195082Y352722D01*
X195084Y352705D01*
X195086Y352634D01*
X195104Y352585D01*
X195112Y352533D01*
X195146Y352470D01*
X195171Y352403D01*
X195203Y352362D01*
X195228Y352316D01*
X195280Y352266D01*
X195324Y352211D01*
X195368Y352182D01*
X195406Y352147D01*
X195471Y352116D01*
X195531Y352078D01*
X195582Y352065D01*
X195629Y352043D01*
X195700Y352035D01*
X195770Y352017D01*
X195822Y352022D01*
X195873Y352016D01*
X195944Y352031D01*
X196015Y352037D01*
X196063Y352057D01*
X196114Y352068D01*
X196175Y352105D01*
X196241Y352133D01*
X196297Y352178D01*
X196325Y352194D01*
X196340Y352212D01*
X196372Y352238D01*
X196725Y352591D01*
X200926Y354331D01*
X205474Y354331D01*
X209675Y352591D01*
X210028Y352238D01*
X210086Y352196D01*
X210138Y352147D01*
X210185Y352125D01*
X210227Y352094D01*
X210296Y352073D01*
X210361Y352043D01*
X210413Y352037D01*
X210463Y352022D01*
X210534Y352024D01*
X210605Y352016D01*
X210656Y352027D01*
X210708Y352028D01*
X210776Y352053D01*
X210846Y352068D01*
X210891Y352095D01*
X210939Y352113D01*
X210995Y352157D01*
X211057Y352194D01*
X211091Y352234D01*
X211131Y352266D01*
X211170Y352327D01*
X211217Y352381D01*
X211236Y352430D01*
X211264Y352473D01*
X211282Y352543D01*
X211309Y352609D01*
X211317Y352681D01*
X211325Y352712D01*
X211323Y352735D01*
X211327Y352776D01*
X211327Y357494D01*
X223804Y369971D01*
X223857Y370045D01*
X223917Y370115D01*
X223929Y370145D01*
X223948Y370171D01*
X223975Y370258D01*
X224009Y370343D01*
X224013Y370384D01*
X224020Y370406D01*
X224019Y370438D01*
X224027Y370509D01*
X224027Y383306D01*
X224020Y383351D01*
X224022Y383397D01*
X224000Y383472D01*
X223988Y383548D01*
X223966Y383589D01*
X223953Y383633D01*
X223909Y383697D01*
X223872Y383766D01*
X223839Y383797D01*
X223813Y383835D01*
X223751Y383881D01*
X223694Y383935D01*
X223652Y383954D01*
X223616Y383982D01*
X223542Y384006D01*
X223471Y384039D01*
X223425Y384044D01*
X223382Y384058D01*
X223304Y384057D01*
X223227Y384066D01*
X223182Y384056D01*
X223136Y384056D01*
X223004Y384017D01*
X222986Y384014D01*
X222982Y384011D01*
X222975Y384009D01*
X221243Y383292D01*
X218728Y383292D01*
X216404Y384254D01*
X214625Y386033D01*
X214457Y386439D01*
X214423Y386494D01*
X214397Y386555D01*
X214345Y386619D01*
X214328Y386648D01*
X214313Y386660D01*
X214292Y386686D01*
X193921Y407057D01*
X193868Y407095D01*
X193821Y407141D01*
X193748Y407181D01*
X193721Y407200D01*
X193703Y407206D01*
X193674Y407222D01*
X193268Y407390D01*
X191490Y409168D01*
X190621Y411266D01*
X190597Y411305D01*
X190581Y411348D01*
X190533Y411409D01*
X190492Y411475D01*
X190456Y411504D01*
X190427Y411540D01*
X190362Y411582D01*
X190302Y411632D01*
X190259Y411648D01*
X190221Y411673D01*
X190145Y411692D01*
X190072Y411720D01*
X190027Y411722D01*
X189982Y411733D01*
X189905Y411727D01*
X189827Y411730D01*
X189783Y411717D01*
X189737Y411714D01*
X189665Y411683D01*
X189590Y411662D01*
X189553Y411636D01*
X189511Y411618D01*
X189404Y411532D01*
X189388Y411521D01*
X189385Y411517D01*
X189380Y411513D01*
X179694Y401827D01*
X103604Y401827D01*
X103539Y401817D01*
X103473Y401816D01*
X103418Y401797D01*
X103361Y401788D01*
X103303Y401757D01*
X103240Y401735D01*
X103173Y401688D01*
X103144Y401672D01*
X103130Y401658D01*
X103103Y401639D01*
X55633Y360103D01*
X55559Y360013D01*
X55483Y359924D01*
X55481Y359918D01*
X55476Y359913D01*
X55435Y359804D01*
X55391Y359696D01*
X55390Y359688D01*
X55388Y359683D01*
X55388Y359663D01*
X55373Y359530D01*
X55373Y353934D01*
X55387Y353844D01*
X55395Y353753D01*
X55407Y353724D01*
X55412Y353692D01*
X55455Y353611D01*
X55491Y353527D01*
X55517Y353495D01*
X55528Y353474D01*
X55551Y353452D01*
X55596Y353396D01*
X56160Y352832D01*
X57123Y350508D01*
X57123Y347992D01*
X56160Y345668D01*
X54382Y343890D01*
X52058Y342927D01*
X49542Y342927D01*
X47218Y343890D01*
X45440Y345668D01*
X44477Y347992D01*
X44477Y350508D01*
X45440Y352832D01*
X46004Y353396D01*
X46057Y353470D01*
X46117Y353539D01*
X46129Y353570D01*
X46148Y353596D01*
X46175Y353683D01*
X46209Y353768D01*
X46213Y353809D01*
X46220Y353831D01*
X46219Y353863D01*
X46227Y353934D01*
X46227Y359946D01*
X46217Y360011D01*
X46216Y360077D01*
X46197Y360132D01*
X46188Y360189D01*
X46157Y360247D01*
X46135Y360310D01*
X46110Y360345D01*
X46226Y362077D01*
X46224Y362096D01*
X46227Y362128D01*
X46227Y363860D01*
X46234Y363867D01*
X46259Y363919D01*
X46293Y363966D01*
X46312Y364029D01*
X46341Y364089D01*
X46349Y364131D01*
X47655Y365274D01*
X47667Y365289D01*
X47692Y365309D01*
X48917Y366534D01*
X48927Y366534D01*
X48982Y366553D01*
X49039Y366562D01*
X49097Y366593D01*
X49160Y366615D01*
X49227Y366662D01*
X49256Y366678D01*
X49270Y366692D01*
X49297Y366711D01*
X98455Y409724D01*
X98467Y409739D01*
X98492Y409759D01*
X99717Y410984D01*
X99727Y410984D01*
X99782Y411003D01*
X99839Y411012D01*
X99897Y411043D01*
X99960Y411065D01*
X99995Y411090D01*
X101727Y410974D01*
X101746Y410976D01*
X101778Y410973D01*
X175591Y410973D01*
X175681Y410987D01*
X175772Y410995D01*
X175801Y411007D01*
X175833Y411012D01*
X175914Y411055D01*
X175998Y411091D01*
X176030Y411117D01*
X176051Y411128D01*
X176073Y411151D01*
X176129Y411196D01*
X242854Y477921D01*
X245756Y480823D01*
X448641Y480823D01*
X448731Y480837D01*
X448822Y480845D01*
X448851Y480857D01*
X448883Y480862D01*
X448964Y480905D01*
X449048Y480941D01*
X449080Y480967D01*
X449101Y480978D01*
X449123Y481001D01*
X449179Y481046D01*
X468006Y499873D01*
X503544Y499873D01*
X514271Y489146D01*
X514345Y489093D01*
X514415Y489033D01*
X514445Y489021D01*
X514471Y489002D01*
X514558Y488975D01*
X514643Y488941D01*
X514684Y488937D01*
X514706Y488930D01*
X514738Y488931D01*
X514809Y488923D01*
X515608Y488923D01*
X517932Y487960D01*
X519710Y486182D01*
X520673Y483858D01*
X520673Y481342D01*
X519710Y479018D01*
X517932Y477240D01*
X515608Y476277D01*
X513092Y476277D01*
X510768Y477240D01*
X508990Y479018D01*
X508027Y481342D01*
X508027Y482141D01*
X508013Y482231D01*
X508005Y482322D01*
X507993Y482351D01*
X507988Y482383D01*
X507945Y482464D01*
X507909Y482548D01*
X507883Y482580D01*
X507872Y482601D01*
X507849Y482623D01*
X507804Y482679D01*
X499979Y490504D01*
X499905Y490557D01*
X499835Y490617D01*
X499805Y490629D01*
X499779Y490648D01*
X499692Y490675D01*
X499607Y490709D01*
X499566Y490713D01*
X499544Y490720D01*
X499512Y490719D01*
X499441Y490727D01*
X472109Y490727D01*
X472019Y490713D01*
X471928Y490705D01*
X471899Y490693D01*
X471867Y490688D01*
X471786Y490645D01*
X471702Y490609D01*
X471670Y490583D01*
X471649Y490572D01*
X471627Y490549D01*
X471571Y490504D01*
X469539Y488472D01*
X469497Y488414D01*
X469448Y488362D01*
X469426Y488315D01*
X469396Y488273D01*
X469374Y488204D01*
X469344Y488139D01*
X469339Y488087D01*
X469323Y488037D01*
X469325Y487966D01*
X469317Y487895D01*
X469328Y487844D01*
X469330Y487792D01*
X469354Y487724D01*
X469369Y487654D01*
X469396Y487609D01*
X469414Y487561D01*
X469459Y487505D01*
X469496Y487443D01*
X469535Y487409D01*
X469568Y487369D01*
X469628Y487330D01*
X469682Y487283D01*
X469731Y487264D01*
X469775Y487236D01*
X469844Y487218D01*
X469911Y487191D01*
X469982Y487183D01*
X470013Y487175D01*
X470036Y487177D01*
X470077Y487173D01*
X490842Y487173D01*
X490932Y487187D01*
X491023Y487195D01*
X491052Y487207D01*
X491084Y487212D01*
X491165Y487255D01*
X491249Y487291D01*
X491281Y487317D01*
X491302Y487328D01*
X491324Y487351D01*
X491380Y487396D01*
X491718Y487734D01*
X494042Y488697D01*
X496558Y488697D01*
X498882Y487734D01*
X500660Y485956D01*
X501623Y483632D01*
X501623Y481116D01*
X500660Y478792D01*
X498882Y477014D01*
X496558Y476051D01*
X494042Y476051D01*
X491718Y477014D01*
X490928Y477804D01*
X490854Y477857D01*
X490785Y477917D01*
X490754Y477929D01*
X490728Y477948D01*
X490641Y477975D01*
X490556Y478009D01*
X490515Y478013D01*
X490493Y478020D01*
X490461Y478019D01*
X490390Y478027D01*
X472109Y478027D01*
X472019Y478013D01*
X471928Y478005D01*
X471899Y477993D01*
X471867Y477988D01*
X471786Y477945D01*
X471702Y477909D01*
X471670Y477883D01*
X471649Y477872D01*
X471627Y477849D01*
X471571Y477804D01*
X459094Y465327D01*
X408609Y465327D01*
X408519Y465313D01*
X408428Y465305D01*
X408399Y465293D01*
X408367Y465288D01*
X408286Y465245D01*
X408202Y465209D01*
X408170Y465183D01*
X408149Y465172D01*
X408127Y465149D01*
X408071Y465104D01*
X332094Y389127D01*
X237159Y389127D01*
X237069Y389113D01*
X236978Y389105D01*
X236949Y389093D01*
X236917Y389088D01*
X236836Y389045D01*
X236752Y389009D01*
X236720Y388983D01*
X236699Y388972D01*
X236677Y388949D01*
X236621Y388904D01*
X233396Y385679D01*
X233343Y385605D01*
X233283Y385535D01*
X233271Y385505D01*
X233252Y385479D01*
X233225Y385392D01*
X233191Y385307D01*
X233187Y385266D01*
X233180Y385244D01*
X233181Y385212D01*
X233173Y385141D01*
X233173Y366406D01*
X220696Y353929D01*
X220643Y353855D01*
X220583Y353785D01*
X220571Y353755D01*
X220552Y353729D01*
X220525Y353642D01*
X220491Y353557D01*
X220487Y353516D01*
X220480Y353494D01*
X220481Y353462D01*
X220473Y353391D01*
X220473Y352776D01*
X220475Y352765D01*
X220474Y352758D01*
X220482Y352722D01*
X220484Y352705D01*
X220486Y352634D01*
X220504Y352585D01*
X220512Y352533D01*
X220546Y352470D01*
X220571Y352403D01*
X220603Y352362D01*
X220628Y352316D01*
X220680Y352266D01*
X220724Y352211D01*
X220768Y352182D01*
X220806Y352147D01*
X220871Y352116D01*
X220931Y352078D01*
X220982Y352065D01*
X221029Y352043D01*
X221100Y352035D01*
X221170Y352017D01*
X221222Y352022D01*
X221273Y352016D01*
X221344Y352031D01*
X221415Y352037D01*
X221463Y352057D01*
X221514Y352068D01*
X221575Y352105D01*
X221641Y352133D01*
X221697Y352178D01*
X221725Y352194D01*
X221740Y352212D01*
X221772Y352238D01*
X222125Y352591D01*
X226326Y354331D01*
X230874Y354331D01*
X235075Y352591D01*
X235428Y352238D01*
X235486Y352196D01*
X235538Y352147D01*
X235585Y352125D01*
X235627Y352094D01*
X235696Y352073D01*
X235761Y352043D01*
X235813Y352037D01*
X235863Y352022D01*
X235934Y352024D01*
X236005Y352016D01*
X236056Y352027D01*
X236108Y352028D01*
X236176Y352053D01*
X236246Y352068D01*
X236291Y352095D01*
X236339Y352113D01*
X236395Y352157D01*
X236457Y352194D01*
X236491Y352234D01*
X236531Y352266D01*
X236570Y352327D01*
X236617Y352381D01*
X236636Y352430D01*
X236664Y352473D01*
X236682Y352543D01*
X236709Y352609D01*
X236717Y352681D01*
X236725Y352712D01*
X236723Y352735D01*
X236727Y352776D01*
X236727Y357494D01*
X258456Y379223D01*
X268366Y379223D01*
X268456Y379237D01*
X268547Y379245D01*
X268576Y379257D01*
X268608Y379262D01*
X268689Y379305D01*
X268773Y379341D01*
X268805Y379367D01*
X268826Y379378D01*
X268848Y379401D01*
X268904Y379446D01*
X269468Y380010D01*
X271792Y380973D01*
X274308Y380973D01*
X276632Y380010D01*
X278410Y378232D01*
X279373Y375908D01*
X279373Y373392D01*
X278410Y371068D01*
X276632Y369290D01*
X274308Y368327D01*
X271792Y368327D01*
X269468Y369290D01*
X268904Y369854D01*
X268830Y369907D01*
X268761Y369967D01*
X268730Y369979D01*
X268704Y369998D01*
X268617Y370025D01*
X268532Y370059D01*
X268491Y370063D01*
X268469Y370070D01*
X268437Y370069D01*
X268366Y370077D01*
X262559Y370077D01*
X262469Y370063D01*
X262378Y370055D01*
X262349Y370043D01*
X262317Y370038D01*
X262236Y369995D01*
X262152Y369959D01*
X262120Y369933D01*
X262099Y369922D01*
X262077Y369899D01*
X262021Y369854D01*
X246096Y353929D01*
X246043Y353855D01*
X245983Y353785D01*
X245971Y353755D01*
X245952Y353729D01*
X245925Y353642D01*
X245891Y353557D01*
X245887Y353516D01*
X245880Y353494D01*
X245881Y353462D01*
X245873Y353391D01*
X245873Y352776D01*
X245875Y352765D01*
X245874Y352758D01*
X245882Y352722D01*
X245884Y352705D01*
X245886Y352634D01*
X245904Y352585D01*
X245912Y352533D01*
X245946Y352470D01*
X245971Y352403D01*
X246003Y352362D01*
X246028Y352316D01*
X246080Y352266D01*
X246124Y352211D01*
X246168Y352182D01*
X246206Y352147D01*
X246271Y352116D01*
X246331Y352078D01*
X246382Y352065D01*
X246429Y352043D01*
X246500Y352035D01*
X246570Y352017D01*
X246622Y352022D01*
X246673Y352016D01*
X246744Y352031D01*
X246815Y352037D01*
X246863Y352057D01*
X246914Y352068D01*
X246975Y352105D01*
X247041Y352133D01*
X247097Y352178D01*
X247125Y352194D01*
X247140Y352212D01*
X247172Y352238D01*
X247525Y352591D01*
X251726Y354331D01*
X256274Y354331D01*
X257706Y353737D01*
X257820Y353711D01*
X257933Y353682D01*
X257939Y353683D01*
X257946Y353681D01*
X258062Y353692D01*
X258178Y353701D01*
X258184Y353704D01*
X258190Y353704D01*
X258298Y353752D01*
X258405Y353798D01*
X258411Y353802D01*
X258415Y353804D01*
X258429Y353817D01*
X258536Y353902D01*
X264806Y360173D01*
X315291Y360173D01*
X315381Y360187D01*
X315472Y360195D01*
X315501Y360207D01*
X315533Y360212D01*
X315614Y360255D01*
X315698Y360291D01*
X315730Y360317D01*
X315751Y360328D01*
X315773Y360351D01*
X315829Y360396D01*
X372756Y417323D01*
X408066Y417323D01*
X408156Y417337D01*
X408247Y417345D01*
X408276Y417357D01*
X408308Y417362D01*
X408389Y417405D01*
X408473Y417441D01*
X408505Y417467D01*
X408526Y417478D01*
X408548Y417501D01*
X408604Y417546D01*
X409168Y418110D01*
X411492Y419073D01*
X414008Y419073D01*
X416332Y418110D01*
X418110Y416332D01*
X419073Y414008D01*
X419073Y411492D01*
X418110Y409168D01*
X416332Y407390D01*
X414008Y406427D01*
X411492Y406427D01*
X409168Y407390D01*
X408604Y407954D01*
X408530Y408007D01*
X408461Y408067D01*
X408430Y408079D01*
X408404Y408098D01*
X408317Y408125D01*
X408232Y408159D01*
X408191Y408163D01*
X408169Y408170D01*
X408137Y408169D01*
X408066Y408177D01*
X376859Y408177D01*
X376769Y408163D01*
X376678Y408155D01*
X376649Y408143D01*
X376617Y408138D01*
X376536Y408095D01*
X376452Y408059D01*
X376420Y408033D01*
X376399Y408022D01*
X376377Y407999D01*
X376321Y407954D01*
X319394Y351027D01*
X314676Y351027D01*
X314605Y351016D01*
X314534Y351014D01*
X314485Y350996D01*
X314433Y350988D01*
X314370Y350954D01*
X314303Y350929D01*
X314262Y350897D01*
X314216Y350872D01*
X314166Y350820D01*
X314111Y350776D01*
X314082Y350732D01*
X314047Y350694D01*
X314016Y350629D01*
X313978Y350569D01*
X313965Y350518D01*
X313943Y350471D01*
X313935Y350400D01*
X313917Y350330D01*
X313922Y350278D01*
X313916Y350227D01*
X313931Y350156D01*
X313937Y350085D01*
X313957Y350037D01*
X313968Y349986D01*
X314005Y349925D01*
X314033Y349859D01*
X314078Y349803D01*
X314094Y349775D01*
X314112Y349760D01*
X314138Y349728D01*
X314491Y349375D01*
X316231Y345174D01*
X316231Y340626D01*
X314490Y336425D01*
X311275Y333210D01*
X307074Y331469D01*
X302526Y331469D01*
X298325Y333210D01*
X295110Y336425D01*
X293369Y340626D01*
X293369Y345174D01*
X295109Y349375D01*
X295462Y349728D01*
X295504Y349786D01*
X295553Y349838D01*
X295575Y349885D01*
X295606Y349927D01*
X295627Y349996D01*
X295657Y350061D01*
X295663Y350113D01*
X295678Y350163D01*
X295676Y350234D01*
X295684Y350305D01*
X295673Y350356D01*
X295672Y350408D01*
X295647Y350476D01*
X295632Y350546D01*
X295605Y350591D01*
X295587Y350639D01*
X295543Y350695D01*
X295506Y350757D01*
X295466Y350791D01*
X295434Y350831D01*
X295373Y350870D01*
X295319Y350917D01*
X295270Y350936D01*
X295227Y350964D01*
X295157Y350982D01*
X295091Y351009D01*
X295019Y351017D01*
X294988Y351025D01*
X294965Y351023D01*
X294924Y351027D01*
X289276Y351027D01*
X289205Y351016D01*
X289134Y351014D01*
X289085Y350996D01*
X289033Y350988D01*
X288970Y350954D01*
X288903Y350929D01*
X288862Y350897D01*
X288816Y350872D01*
X288766Y350820D01*
X288711Y350776D01*
X288682Y350732D01*
X288647Y350694D01*
X288616Y350629D01*
X288578Y350569D01*
X288565Y350518D01*
X288543Y350471D01*
X288535Y350400D01*
X288517Y350330D01*
X288522Y350278D01*
X288516Y350227D01*
X288531Y350156D01*
X288537Y350085D01*
X288557Y350037D01*
X288568Y349986D01*
X288605Y349925D01*
X288633Y349859D01*
X288678Y349803D01*
X288694Y349775D01*
X288712Y349760D01*
X288738Y349728D01*
X289091Y349375D01*
X290831Y345174D01*
X290831Y340626D01*
X289090Y336425D01*
X285875Y333210D01*
X284794Y332762D01*
X284755Y332737D01*
X284712Y332722D01*
X284651Y332673D01*
X284585Y332632D01*
X284555Y332597D01*
X284520Y332568D01*
X284478Y332503D01*
X284428Y332443D01*
X284411Y332400D01*
X284387Y332361D01*
X284368Y332286D01*
X284340Y332213D01*
X284338Y332167D01*
X284327Y332123D01*
X284333Y332045D01*
X284329Y331967D01*
X284342Y331923D01*
X284346Y331877D01*
X284376Y331806D01*
X284398Y331731D01*
X284424Y331693D01*
X284442Y331651D01*
X284527Y331544D01*
X284538Y331529D01*
X284542Y331526D01*
X284547Y331520D01*
X293771Y322296D01*
X293845Y322243D01*
X293915Y322183D01*
X293945Y322171D01*
X293971Y322152D01*
X294058Y322125D01*
X294143Y322091D01*
X294184Y322087D01*
X294206Y322080D01*
X294238Y322081D01*
X294309Y322073D01*
X327991Y322073D01*
X328081Y322087D01*
X328172Y322095D01*
X328201Y322107D01*
X328233Y322112D01*
X328314Y322155D01*
X328398Y322191D01*
X328430Y322217D01*
X328451Y322228D01*
X328473Y322251D01*
X328529Y322296D01*
X338104Y331871D01*
X338157Y331945D01*
X338217Y332015D01*
X338229Y332045D01*
X338248Y332071D01*
X338275Y332158D01*
X338309Y332243D01*
X338313Y332284D01*
X338320Y332306D01*
X338319Y332338D01*
X338327Y332409D01*
X338327Y333024D01*
X338325Y333036D01*
X338326Y333044D01*
X338317Y333088D01*
X338316Y333095D01*
X338314Y333166D01*
X338296Y333215D01*
X338288Y333267D01*
X338254Y333330D01*
X338229Y333397D01*
X338197Y333438D01*
X338172Y333484D01*
X338120Y333534D01*
X338076Y333589D01*
X338032Y333618D01*
X337994Y333653D01*
X337929Y333684D01*
X337869Y333722D01*
X337818Y333735D01*
X337771Y333757D01*
X337700Y333765D01*
X337630Y333783D01*
X337578Y333778D01*
X337527Y333784D01*
X337456Y333769D01*
X337385Y333763D01*
X337337Y333743D01*
X337286Y333732D01*
X337225Y333695D01*
X337159Y333667D01*
X337103Y333622D01*
X337075Y333606D01*
X337060Y333588D01*
X337028Y333562D01*
X336675Y333209D01*
X332474Y331469D01*
X327926Y331469D01*
X323725Y333210D01*
X320510Y336425D01*
X318769Y340626D01*
X318769Y345174D01*
X320510Y349375D01*
X323725Y352590D01*
X327926Y354331D01*
X332474Y354331D01*
X336675Y352590D01*
X337686Y351579D01*
X337702Y351568D01*
X337715Y351552D01*
X337802Y351496D01*
X337886Y351436D01*
X337905Y351430D01*
X337922Y351419D01*
X338022Y351394D01*
X338121Y351364D01*
X338141Y351364D01*
X338160Y351359D01*
X338263Y351367D01*
X338367Y351370D01*
X338386Y351377D01*
X338405Y351378D01*
X338500Y351419D01*
X338598Y351454D01*
X338613Y351467D01*
X338632Y351475D01*
X338763Y351579D01*
X344454Y357271D01*
X347356Y360173D01*
X366091Y360173D01*
X366181Y360187D01*
X366272Y360195D01*
X366301Y360207D01*
X366333Y360212D01*
X366414Y360255D01*
X366498Y360291D01*
X366530Y360317D01*
X366551Y360328D01*
X366573Y360351D01*
X366629Y360396D01*
X380804Y374571D01*
X380857Y374645D01*
X380917Y374715D01*
X380929Y374745D01*
X380948Y374771D01*
X380975Y374858D01*
X381009Y374943D01*
X381013Y374984D01*
X381020Y375006D01*
X381019Y375038D01*
X381027Y375109D01*
X381027Y375908D01*
X381990Y378232D01*
X383768Y380010D01*
X386092Y380973D01*
X388608Y380973D01*
X390932Y380010D01*
X392710Y378232D01*
X393673Y375908D01*
X393673Y373392D01*
X392710Y371068D01*
X390932Y369290D01*
X388608Y368327D01*
X387809Y368327D01*
X387719Y368313D01*
X387628Y368305D01*
X387599Y368293D01*
X387567Y368288D01*
X387486Y368245D01*
X387402Y368209D01*
X387370Y368183D01*
X387349Y368172D01*
X387327Y368149D01*
X387271Y368104D01*
X370194Y351027D01*
X365476Y351027D01*
X365405Y351016D01*
X365334Y351014D01*
X365285Y350996D01*
X365233Y350988D01*
X365170Y350954D01*
X365103Y350929D01*
X365062Y350897D01*
X365016Y350872D01*
X364966Y350820D01*
X364911Y350776D01*
X364882Y350732D01*
X364847Y350694D01*
X364816Y350629D01*
X364778Y350569D01*
X364765Y350518D01*
X364743Y350471D01*
X364735Y350400D01*
X364717Y350330D01*
X364722Y350278D01*
X364716Y350227D01*
X364731Y350156D01*
X364737Y350085D01*
X364757Y350037D01*
X364768Y349986D01*
X364805Y349925D01*
X364833Y349859D01*
X364878Y349803D01*
X364894Y349775D01*
X364912Y349760D01*
X364938Y349728D01*
X365291Y349375D01*
X367031Y345174D01*
X367031Y340626D01*
X365290Y336425D01*
X362075Y333210D01*
X360643Y332616D01*
X360543Y332554D01*
X360443Y332495D01*
X360439Y332490D01*
X360434Y332487D01*
X360359Y332396D01*
X360283Y332308D01*
X360281Y332302D01*
X360277Y332297D01*
X360235Y332189D01*
X360191Y332080D01*
X360190Y332072D01*
X360189Y332068D01*
X360188Y332049D01*
X360173Y331913D01*
X360173Y302906D01*
X357271Y300004D01*
X271496Y214229D01*
X271443Y214155D01*
X271383Y214085D01*
X271371Y214055D01*
X271352Y214029D01*
X271325Y213942D01*
X271291Y213857D01*
X271287Y213816D01*
X271280Y213794D01*
X271281Y213762D01*
X271273Y213691D01*
X271273Y200376D01*
X271284Y200305D01*
X271286Y200234D01*
X271304Y200185D01*
X271312Y200133D01*
X271346Y200070D01*
X271371Y200003D01*
X271403Y199962D01*
X271428Y199916D01*
X271480Y199866D01*
X271524Y199811D01*
X271568Y199782D01*
X271606Y199747D01*
X271671Y199716D01*
X271731Y199678D01*
X271782Y199665D01*
X271829Y199643D01*
X271900Y199635D01*
X271970Y199617D01*
X272022Y199622D01*
X272073Y199616D01*
X272144Y199631D01*
X272215Y199637D01*
X272263Y199657D01*
X272314Y199668D01*
X272375Y199705D01*
X272441Y199733D01*
X272497Y199778D01*
X272525Y199794D01*
X272540Y199812D01*
X272572Y199838D01*
X272925Y200191D01*
X277126Y201931D01*
X281674Y201931D01*
X285875Y200190D01*
X289090Y196975D01*
X290831Y192774D01*
X290831Y188226D01*
X289090Y184025D01*
X285875Y180810D01*
X284794Y180362D01*
X284755Y180337D01*
X284712Y180322D01*
X284651Y180273D01*
X284585Y180232D01*
X284555Y180197D01*
X284520Y180168D01*
X284478Y180103D01*
X284428Y180043D01*
X284411Y180000D01*
X284387Y179961D01*
X284368Y179886D01*
X284340Y179813D01*
X284338Y179767D01*
X284327Y179723D01*
X284333Y179645D01*
X284329Y179567D01*
X284342Y179523D01*
X284346Y179477D01*
X284376Y179406D01*
X284398Y179331D01*
X284424Y179293D01*
X284442Y179251D01*
X284527Y179144D01*
X284538Y179129D01*
X284542Y179126D01*
X284547Y179120D01*
X369971Y93696D01*
X372873Y90794D01*
X372873Y86360D01*
X372876Y86340D01*
X372874Y86321D01*
X372896Y86219D01*
X372912Y86117D01*
X372922Y86100D01*
X372926Y86080D01*
X372979Y85991D01*
X373028Y85900D01*
X373042Y85886D01*
X373052Y85869D01*
X373131Y85802D01*
X373206Y85731D01*
X373224Y85722D01*
X373239Y85709D01*
X373335Y85670D01*
X373429Y85627D01*
X373449Y85625D01*
X373467Y85617D01*
X373634Y85599D01*
X388366Y85599D01*
X388386Y85602D01*
X388405Y85600D01*
X388507Y85622D01*
X388609Y85639D01*
X388626Y85648D01*
X388646Y85652D01*
X388735Y85705D01*
X388826Y85754D01*
X388840Y85768D01*
X388857Y85778D01*
X388924Y85857D01*
X388996Y85932D01*
X389004Y85950D01*
X389017Y85965D01*
X389056Y86061D01*
X389099Y86155D01*
X389101Y86175D01*
X389109Y86193D01*
X389127Y86360D01*
X389127Y86691D01*
X389113Y86781D01*
X389105Y86872D01*
X389093Y86901D01*
X389088Y86933D01*
X389045Y87014D01*
X389009Y87098D01*
X388983Y87130D01*
X388972Y87151D01*
X388949Y87173D01*
X388904Y87229D01*
X300227Y175906D01*
X300227Y179513D01*
X300208Y179628D01*
X300191Y179744D01*
X300189Y179749D01*
X300188Y179756D01*
X300133Y179858D01*
X300080Y179963D01*
X300075Y179968D01*
X300072Y179973D01*
X299988Y180053D01*
X299904Y180135D01*
X299898Y180139D01*
X299894Y180142D01*
X299877Y180150D01*
X299757Y180216D01*
X298325Y180810D01*
X295110Y184025D01*
X293369Y188226D01*
X293369Y192774D01*
X295110Y196975D01*
X298325Y200190D01*
X302526Y201931D01*
X307074Y201931D01*
X311275Y200190D01*
X314490Y196975D01*
X316231Y192774D01*
X316231Y188226D01*
X314490Y184025D01*
X311275Y180810D01*
X310194Y180362D01*
X310155Y180337D01*
X310112Y180322D01*
X310051Y180273D01*
X309985Y180232D01*
X309955Y180197D01*
X309920Y180168D01*
X309878Y180103D01*
X309828Y180043D01*
X309811Y180000D01*
X309787Y179961D01*
X309768Y179886D01*
X309740Y179813D01*
X309738Y179767D01*
X309727Y179723D01*
X309733Y179645D01*
X309729Y179567D01*
X309742Y179523D01*
X309746Y179477D01*
X309776Y179406D01*
X309798Y179331D01*
X309824Y179293D01*
X309842Y179251D01*
X309927Y179144D01*
X309938Y179129D01*
X309942Y179126D01*
X309947Y179120D01*
X395371Y93696D01*
X398273Y90794D01*
X398273Y86360D01*
X398276Y86340D01*
X398274Y86321D01*
X398296Y86219D01*
X398312Y86117D01*
X398322Y86100D01*
X398326Y86080D01*
X398379Y85991D01*
X398428Y85900D01*
X398442Y85886D01*
X398452Y85869D01*
X398531Y85802D01*
X398606Y85731D01*
X398624Y85722D01*
X398639Y85709D01*
X398735Y85670D01*
X398829Y85627D01*
X398849Y85625D01*
X398867Y85617D01*
X399034Y85599D01*
X413766Y85599D01*
X413786Y85602D01*
X413805Y85600D01*
X413907Y85622D01*
X414009Y85639D01*
X414026Y85648D01*
X414046Y85652D01*
X414135Y85705D01*
X414226Y85754D01*
X414240Y85768D01*
X414257Y85778D01*
X414324Y85857D01*
X414396Y85932D01*
X414404Y85950D01*
X414417Y85965D01*
X414456Y86061D01*
X414499Y86155D01*
X414501Y86175D01*
X414509Y86193D01*
X414527Y86360D01*
X414527Y86691D01*
X414513Y86781D01*
X414505Y86872D01*
X414493Y86901D01*
X414488Y86933D01*
X414445Y87014D01*
X414409Y87098D01*
X414383Y87130D01*
X414372Y87151D01*
X414349Y87173D01*
X414304Y87229D01*
X325627Y175906D01*
X325627Y179513D01*
X325608Y179628D01*
X325591Y179744D01*
X325589Y179749D01*
X325588Y179756D01*
X325533Y179858D01*
X325480Y179963D01*
X325475Y179968D01*
X325472Y179973D01*
X325388Y180053D01*
X325304Y180135D01*
X325298Y180139D01*
X325294Y180142D01*
X325277Y180150D01*
X325157Y180216D01*
X323725Y180810D01*
X320510Y184025D01*
X318769Y188226D01*
X318769Y192774D01*
X320510Y196975D01*
X323725Y200190D01*
X327926Y201931D01*
X332474Y201931D01*
X336675Y200190D01*
X339890Y196975D01*
X341631Y192774D01*
X341631Y188226D01*
X339890Y184025D01*
X336675Y180810D01*
X335594Y180362D01*
X335555Y180337D01*
X335512Y180322D01*
X335451Y180273D01*
X335385Y180232D01*
X335355Y180197D01*
X335320Y180168D01*
X335278Y180103D01*
X335228Y180043D01*
X335211Y180000D01*
X335187Y179961D01*
X335168Y179886D01*
X335140Y179813D01*
X335138Y179767D01*
X335127Y179723D01*
X335133Y179645D01*
X335129Y179567D01*
X335142Y179523D01*
X335146Y179477D01*
X335176Y179406D01*
X335198Y179331D01*
X335224Y179293D01*
X335242Y179251D01*
X335327Y179144D01*
X335338Y179129D01*
X335342Y179126D01*
X335347Y179120D01*
X420771Y93696D01*
X423673Y90794D01*
X423673Y86360D01*
X423676Y86340D01*
X423674Y86321D01*
X423696Y86219D01*
X423712Y86117D01*
X423722Y86100D01*
X423726Y86080D01*
X423779Y85991D01*
X423828Y85900D01*
X423842Y85886D01*
X423852Y85869D01*
X423931Y85802D01*
X424006Y85731D01*
X424024Y85722D01*
X424039Y85709D01*
X424135Y85670D01*
X424229Y85627D01*
X424249Y85625D01*
X424267Y85617D01*
X424434Y85599D01*
X439166Y85599D01*
X439186Y85602D01*
X439205Y85600D01*
X439307Y85622D01*
X439409Y85639D01*
X439426Y85648D01*
X439446Y85652D01*
X439535Y85705D01*
X439626Y85754D01*
X439640Y85768D01*
X439657Y85778D01*
X439724Y85857D01*
X439796Y85932D01*
X439804Y85950D01*
X439817Y85965D01*
X439856Y86061D01*
X439899Y86155D01*
X439901Y86175D01*
X439909Y86193D01*
X439927Y86360D01*
X439927Y86691D01*
X439913Y86781D01*
X439905Y86872D01*
X439893Y86901D01*
X439888Y86933D01*
X439845Y87014D01*
X439809Y87098D01*
X439783Y87130D01*
X439772Y87151D01*
X439749Y87173D01*
X439704Y87229D01*
X351027Y175906D01*
X351027Y179513D01*
X351008Y179628D01*
X350991Y179744D01*
X350989Y179749D01*
X350988Y179756D01*
X350933Y179858D01*
X350880Y179963D01*
X350875Y179968D01*
X350872Y179973D01*
X350788Y180053D01*
X350704Y180135D01*
X350698Y180139D01*
X350694Y180142D01*
X350677Y180150D01*
X350557Y180216D01*
X349125Y180810D01*
X345910Y184025D01*
X344169Y188226D01*
X344169Y192774D01*
X345910Y196975D01*
X349125Y200190D01*
X353326Y201931D01*
X357874Y201931D01*
X362075Y200190D01*
X365290Y196975D01*
X367031Y192774D01*
X367031Y188226D01*
X365290Y184025D01*
X362075Y180810D01*
X360994Y180362D01*
X360955Y180337D01*
X360912Y180322D01*
X360851Y180273D01*
X360785Y180232D01*
X360755Y180197D01*
X360720Y180168D01*
X360678Y180103D01*
X360628Y180043D01*
X360611Y180000D01*
X360587Y179961D01*
X360568Y179886D01*
X360540Y179813D01*
X360538Y179767D01*
X360527Y179723D01*
X360533Y179645D01*
X360529Y179567D01*
X360542Y179523D01*
X360546Y179477D01*
X360576Y179406D01*
X360598Y179331D01*
X360624Y179293D01*
X360642Y179251D01*
X360727Y179144D01*
X360738Y179129D01*
X360742Y179126D01*
X360747Y179120D01*
X446171Y93696D01*
X449073Y90794D01*
X449073Y86360D01*
X449076Y86340D01*
X449074Y86321D01*
X449096Y86219D01*
X449112Y86117D01*
X449122Y86100D01*
X449126Y86080D01*
X449179Y85991D01*
X449228Y85900D01*
X449242Y85886D01*
X449252Y85869D01*
X449331Y85802D01*
X449406Y85731D01*
X449424Y85722D01*
X449439Y85709D01*
X449535Y85670D01*
X449629Y85627D01*
X449649Y85625D01*
X449667Y85617D01*
X449834Y85599D01*
X464566Y85599D01*
X464586Y85602D01*
X464605Y85600D01*
X464707Y85622D01*
X464809Y85639D01*
X464826Y85648D01*
X464846Y85652D01*
X464935Y85705D01*
X465026Y85754D01*
X465040Y85768D01*
X465057Y85778D01*
X465124Y85857D01*
X465196Y85932D01*
X465204Y85950D01*
X465217Y85965D01*
X465256Y86061D01*
X465299Y86155D01*
X465301Y86175D01*
X465309Y86193D01*
X465327Y86360D01*
X465327Y86691D01*
X465313Y86781D01*
X465305Y86872D01*
X465293Y86901D01*
X465288Y86933D01*
X465245Y87014D01*
X465209Y87098D01*
X465183Y87130D01*
X465172Y87151D01*
X465149Y87173D01*
X465104Y87229D01*
X376427Y175906D01*
X376427Y179513D01*
X376408Y179628D01*
X376391Y179744D01*
X376389Y179749D01*
X376388Y179756D01*
X376333Y179858D01*
X376280Y179963D01*
X376275Y179968D01*
X376272Y179973D01*
X376188Y180053D01*
X376104Y180135D01*
X376098Y180139D01*
X376094Y180142D01*
X376077Y180150D01*
X375957Y180216D01*
X374525Y180810D01*
X371310Y184025D01*
X369569Y188226D01*
X369569Y192774D01*
X371310Y196975D01*
X374525Y200190D01*
X378726Y201931D01*
X383274Y201931D01*
X387475Y200190D01*
X390690Y196975D01*
X392431Y192774D01*
X392431Y188226D01*
X390690Y184025D01*
X387475Y180810D01*
X386394Y180362D01*
X386355Y180337D01*
X386312Y180322D01*
X386251Y180273D01*
X386185Y180232D01*
X386155Y180197D01*
X386120Y180168D01*
X386078Y180103D01*
X386028Y180043D01*
X386011Y180000D01*
X385987Y179961D01*
X385968Y179886D01*
X385940Y179813D01*
X385938Y179767D01*
X385927Y179723D01*
X385933Y179645D01*
X385929Y179567D01*
X385942Y179523D01*
X385946Y179477D01*
X385976Y179406D01*
X385998Y179331D01*
X386024Y179293D01*
X386042Y179251D01*
X386127Y179144D01*
X386138Y179129D01*
X386142Y179126D01*
X386147Y179120D01*
X471571Y93696D01*
X474473Y90794D01*
X474473Y86360D01*
X474476Y86340D01*
X474474Y86321D01*
X474496Y86219D01*
X474512Y86117D01*
X474522Y86100D01*
X474526Y86080D01*
X474579Y85991D01*
X474628Y85900D01*
X474642Y85886D01*
X474652Y85869D01*
X474731Y85802D01*
X474806Y85731D01*
X474824Y85722D01*
X474839Y85709D01*
X474935Y85670D01*
X475029Y85627D01*
X475049Y85625D01*
X475067Y85617D01*
X475234Y85599D01*
X489966Y85599D01*
X489986Y85602D01*
X490005Y85600D01*
X490107Y85622D01*
X490209Y85639D01*
X490226Y85648D01*
X490246Y85652D01*
X490335Y85705D01*
X490426Y85754D01*
X490440Y85768D01*
X490457Y85778D01*
X490524Y85857D01*
X490596Y85932D01*
X490604Y85950D01*
X490617Y85965D01*
X490656Y86061D01*
X490699Y86155D01*
X490701Y86175D01*
X490709Y86193D01*
X490727Y86360D01*
X490727Y86691D01*
X490713Y86781D01*
X490705Y86872D01*
X490693Y86901D01*
X490688Y86933D01*
X490645Y87014D01*
X490609Y87098D01*
X490583Y87130D01*
X490572Y87151D01*
X490549Y87173D01*
X490504Y87229D01*
X401827Y175906D01*
X401827Y179513D01*
X401808Y179628D01*
X401791Y179744D01*
X401789Y179749D01*
X401788Y179756D01*
X401733Y179858D01*
X401680Y179963D01*
X401675Y179968D01*
X401672Y179973D01*
X401588Y180053D01*
X401504Y180135D01*
X401498Y180139D01*
X401494Y180142D01*
X401477Y180150D01*
X401357Y180216D01*
X399925Y180810D01*
X396710Y184025D01*
X394969Y188226D01*
X394969Y192774D01*
X396710Y196975D01*
X399925Y200190D01*
X404126Y201931D01*
X408674Y201931D01*
X412875Y200190D01*
X416090Y196975D01*
X417831Y192774D01*
X417831Y188226D01*
X416090Y184025D01*
X412875Y180810D01*
X411794Y180362D01*
X411755Y180337D01*
X411712Y180322D01*
X411651Y180273D01*
X411585Y180232D01*
X411555Y180197D01*
X411520Y180168D01*
X411478Y180103D01*
X411428Y180043D01*
X411411Y180000D01*
X411387Y179961D01*
X411368Y179886D01*
X411340Y179813D01*
X411338Y179767D01*
X411327Y179723D01*
X411333Y179645D01*
X411329Y179567D01*
X411342Y179523D01*
X411346Y179477D01*
X411376Y179406D01*
X411398Y179331D01*
X411424Y179293D01*
X411442Y179251D01*
X411527Y179144D01*
X411538Y179129D01*
X411542Y179126D01*
X411547Y179120D01*
X496971Y93696D01*
X499873Y90794D01*
X499873Y86360D01*
X499876Y86340D01*
X499874Y86321D01*
X499896Y86219D01*
X499912Y86117D01*
X499922Y86100D01*
X499926Y86080D01*
X499979Y85991D01*
X500028Y85900D01*
X500042Y85886D01*
X500052Y85869D01*
X500131Y85802D01*
X500206Y85731D01*
X500224Y85722D01*
X500239Y85709D01*
X500335Y85670D01*
X500429Y85627D01*
X500449Y85625D01*
X500467Y85617D01*
X500634Y85599D01*
X515366Y85599D01*
X515386Y85602D01*
X515405Y85600D01*
X515507Y85622D01*
X515609Y85639D01*
X515626Y85648D01*
X515646Y85652D01*
X515735Y85705D01*
X515826Y85754D01*
X515840Y85768D01*
X515857Y85778D01*
X515924Y85857D01*
X515996Y85932D01*
X516004Y85950D01*
X516017Y85965D01*
X516056Y86061D01*
X516099Y86155D01*
X516101Y86175D01*
X516109Y86193D01*
X516127Y86360D01*
X516127Y86691D01*
X516113Y86781D01*
X516105Y86872D01*
X516093Y86901D01*
X516088Y86933D01*
X516045Y87014D01*
X516009Y87098D01*
X515983Y87130D01*
X515972Y87151D01*
X515949Y87173D01*
X515904Y87229D01*
X427227Y175906D01*
X427227Y179513D01*
X427208Y179628D01*
X427191Y179744D01*
X427189Y179749D01*
X427188Y179756D01*
X427133Y179858D01*
X427080Y179963D01*
X427075Y179968D01*
X427072Y179973D01*
X426988Y180053D01*
X426904Y180135D01*
X426898Y180139D01*
X426894Y180142D01*
X426877Y180150D01*
X426757Y180216D01*
X425325Y180810D01*
X422110Y184025D01*
X420369Y188226D01*
X420369Y192774D01*
X422110Y196975D01*
X425325Y200190D01*
X429526Y201931D01*
X434074Y201931D01*
X438275Y200190D01*
X441490Y196975D01*
X443231Y192774D01*
X443231Y188226D01*
X441490Y184025D01*
X438275Y180810D01*
X437194Y180362D01*
X437155Y180337D01*
X437112Y180322D01*
X437051Y180273D01*
X436985Y180232D01*
X436955Y180197D01*
X436920Y180168D01*
X436878Y180103D01*
X436828Y180043D01*
X436811Y180000D01*
X436787Y179961D01*
X436768Y179886D01*
X436740Y179813D01*
X436738Y179767D01*
X436727Y179723D01*
X436733Y179645D01*
X436729Y179567D01*
X436742Y179523D01*
X436746Y179477D01*
X436776Y179406D01*
X436798Y179331D01*
X436824Y179293D01*
X436842Y179251D01*
X436927Y179144D01*
X436938Y179129D01*
X436942Y179126D01*
X436947Y179120D01*
X522371Y93696D01*
X525273Y90794D01*
X525273Y86360D01*
X525276Y86340D01*
X525274Y86321D01*
X525296Y86219D01*
X525312Y86117D01*
X525322Y86100D01*
X525326Y86080D01*
X525379Y85991D01*
X525428Y85900D01*
X525442Y85886D01*
X525452Y85869D01*
X525531Y85802D01*
X525606Y85731D01*
X525624Y85722D01*
X525639Y85709D01*
X525735Y85670D01*
X525829Y85627D01*
X525849Y85625D01*
X525867Y85617D01*
X526034Y85599D01*
X540766Y85599D01*
X540786Y85602D01*
X540805Y85600D01*
X540907Y85622D01*
X541009Y85639D01*
X541026Y85648D01*
X541046Y85652D01*
X541135Y85705D01*
X541226Y85754D01*
X541240Y85768D01*
X541257Y85778D01*
X541324Y85857D01*
X541396Y85932D01*
X541404Y85950D01*
X541417Y85965D01*
X541456Y86061D01*
X541499Y86155D01*
X541501Y86175D01*
X541509Y86193D01*
X541527Y86360D01*
X541527Y86691D01*
X541513Y86781D01*
X541505Y86872D01*
X541493Y86901D01*
X541488Y86933D01*
X541445Y87014D01*
X541409Y87098D01*
X541383Y87130D01*
X541372Y87151D01*
X541349Y87173D01*
X541304Y87229D01*
X452627Y175906D01*
X452627Y179513D01*
X452608Y179628D01*
X452591Y179744D01*
X452589Y179749D01*
X452588Y179756D01*
X452533Y179858D01*
X452480Y179963D01*
X452475Y179968D01*
X452472Y179973D01*
X452388Y180053D01*
X452304Y180135D01*
X452298Y180139D01*
X452294Y180142D01*
X452277Y180150D01*
X452157Y180216D01*
X450725Y180810D01*
X447510Y184025D01*
X445769Y188226D01*
X445769Y192774D01*
X447510Y196975D01*
X450725Y200190D01*
X454926Y201931D01*
X459474Y201931D01*
X463675Y200190D01*
X466890Y196975D01*
X468631Y192774D01*
X468631Y188226D01*
X466890Y184025D01*
X463675Y180810D01*
X462594Y180362D01*
X462555Y180337D01*
X462512Y180322D01*
X462451Y180273D01*
X462385Y180232D01*
X462355Y180197D01*
X462320Y180168D01*
X462278Y180103D01*
X462228Y180043D01*
X462211Y180000D01*
X462187Y179961D01*
X462168Y179886D01*
X462140Y179813D01*
X462138Y179767D01*
X462127Y179723D01*
X462133Y179645D01*
X462129Y179567D01*
X462142Y179523D01*
X462146Y179477D01*
X462176Y179406D01*
X462198Y179331D01*
X462224Y179293D01*
X462242Y179251D01*
X462327Y179144D01*
X462338Y179129D01*
X462342Y179126D01*
X462347Y179120D01*
X547771Y93696D01*
X550673Y90794D01*
X550673Y86360D01*
X550676Y86340D01*
X550674Y86321D01*
X550696Y86219D01*
X550712Y86117D01*
X550722Y86100D01*
X550726Y86080D01*
X550779Y85991D01*
X550828Y85900D01*
X550842Y85886D01*
X550852Y85869D01*
X550931Y85802D01*
X551006Y85731D01*
X551024Y85722D01*
X551039Y85709D01*
X551135Y85670D01*
X551229Y85627D01*
X551249Y85625D01*
X551267Y85617D01*
X551434Y85599D01*
X593600Y85599D01*
X593620Y85602D01*
X593639Y85600D01*
X593741Y85622D01*
X593843Y85639D01*
X593860Y85648D01*
X593880Y85652D01*
X593969Y85705D01*
X594060Y85754D01*
X594074Y85768D01*
X594091Y85778D01*
X594158Y85857D01*
X594230Y85932D01*
X594238Y85950D01*
X594251Y85965D01*
X594290Y86061D01*
X594333Y86155D01*
X594335Y86175D01*
X594343Y86193D01*
X594361Y86360D01*
X594361Y623798D01*
X594358Y623818D01*
X594360Y623837D01*
X594338Y623939D01*
X594322Y624041D01*
X594312Y624058D01*
X594308Y624078D01*
X594255Y624167D01*
X594206Y624258D01*
X594192Y624272D01*
X594182Y624289D01*
X594103Y624356D01*
X594028Y624428D01*
X594010Y624436D01*
X593995Y624449D01*
X593899Y624488D01*
X593805Y624531D01*
X593785Y624533D01*
X593767Y624541D01*
X593600Y624559D01*
X540158Y624559D01*
X540064Y624544D01*
X539969Y624535D01*
X539943Y624524D01*
X539915Y624520D01*
X539831Y624475D01*
X539744Y624437D01*
X539723Y624418D01*
X539698Y624404D01*
X539632Y624335D01*
X539562Y624271D01*
X539548Y624247D01*
X539528Y624226D01*
X539488Y624140D01*
X539442Y624056D01*
X539437Y624029D01*
X539425Y624003D01*
X539414Y623908D01*
X539397Y623814D01*
X539401Y623787D01*
X539398Y623759D01*
X539418Y623665D01*
X539431Y623571D01*
X539445Y623539D01*
X539450Y623518D01*
X539467Y623490D01*
X539499Y623417D01*
X539578Y623281D01*
X539751Y622634D01*
X539751Y598423D01*
X525272Y598423D01*
X525252Y598420D01*
X525233Y598422D01*
X525131Y598400D01*
X525029Y598383D01*
X525012Y598374D01*
X524992Y598370D01*
X524903Y598317D01*
X524812Y598268D01*
X524798Y598254D01*
X524781Y598244D01*
X524714Y598165D01*
X524643Y598090D01*
X524634Y598072D01*
X524621Y598057D01*
X524582Y597961D01*
X524539Y597867D01*
X524537Y597847D01*
X524529Y597829D01*
X524511Y597662D01*
X524511Y596899D01*
X524509Y596899D01*
X524509Y597662D01*
X524506Y597682D01*
X524508Y597701D01*
X524486Y597803D01*
X524469Y597905D01*
X524460Y597922D01*
X524456Y597942D01*
X524403Y598031D01*
X524354Y598122D01*
X524340Y598136D01*
X524330Y598153D01*
X524251Y598220D01*
X524176Y598291D01*
X524158Y598300D01*
X524143Y598313D01*
X524047Y598352D01*
X523953Y598395D01*
X523933Y598397D01*
X523915Y598405D01*
X523748Y598423D01*
X509269Y598423D01*
X509269Y622634D01*
X509442Y623281D01*
X509521Y623417D01*
X509555Y623507D01*
X509595Y623593D01*
X509598Y623621D01*
X509608Y623647D01*
X509612Y623743D01*
X509622Y623837D01*
X509616Y623865D01*
X509617Y623893D01*
X509590Y623985D01*
X509570Y624078D01*
X509556Y624102D01*
X509548Y624129D01*
X509493Y624207D01*
X509444Y624289D01*
X509422Y624307D01*
X509406Y624330D01*
X509329Y624387D01*
X509257Y624449D01*
X509231Y624459D01*
X509208Y624476D01*
X509117Y624505D01*
X509029Y624541D01*
X508994Y624545D01*
X508974Y624551D01*
X508941Y624551D01*
X508862Y624559D01*
X16002Y624559D01*
X15982Y624556D01*
X15963Y624558D01*
X15861Y624536D01*
X15759Y624520D01*
X15742Y624510D01*
X15722Y624506D01*
X15633Y624453D01*
X15542Y624404D01*
X15528Y624390D01*
X15511Y624380D01*
X15444Y624301D01*
X15372Y624226D01*
X15364Y624208D01*
X15351Y624193D01*
X15312Y624097D01*
X15269Y624003D01*
X15267Y623983D01*
X15259Y623965D01*
X15241Y623798D01*
X15241Y86360D01*
X15244Y86340D01*
X15242Y86321D01*
X15264Y86219D01*
X15280Y86117D01*
X15290Y86100D01*
X15294Y86080D01*
X15347Y85991D01*
X15396Y85900D01*
X15410Y85886D01*
X15420Y85869D01*
X15499Y85802D01*
X15574Y85731D01*
X15592Y85722D01*
X15607Y85709D01*
X15703Y85670D01*
X15797Y85627D01*
X15817Y85625D01*
X15835Y85617D01*
X16002Y85599D01*
X83566Y85599D01*
X83586Y85602D01*
G37*
G36*
X226398Y391925D02*
X226398Y391925D01*
X226476Y391922D01*
X226520Y391935D01*
X226565Y391938D01*
X226637Y391969D01*
X226712Y391990D01*
X226749Y392017D01*
X226792Y392035D01*
X226898Y392120D01*
X226914Y392131D01*
X226917Y392135D01*
X226923Y392139D01*
X233056Y398273D01*
X327991Y398273D01*
X328081Y398287D01*
X328172Y398295D01*
X328201Y398307D01*
X328233Y398312D01*
X328314Y398355D01*
X328398Y398391D01*
X328430Y398417D01*
X328451Y398428D01*
X328473Y398451D01*
X328529Y398496D01*
X400411Y470378D01*
X400453Y470436D01*
X400502Y470488D01*
X400524Y470535D01*
X400554Y470577D01*
X400576Y470646D01*
X400606Y470711D01*
X400612Y470763D01*
X400627Y470813D01*
X400625Y470884D01*
X400633Y470955D01*
X400622Y471006D01*
X400620Y471058D01*
X400596Y471126D01*
X400581Y471196D01*
X400554Y471241D01*
X400536Y471289D01*
X400491Y471345D01*
X400454Y471407D01*
X400415Y471441D01*
X400382Y471481D01*
X400322Y471520D01*
X400268Y471567D01*
X400219Y471586D01*
X400175Y471614D01*
X400106Y471632D01*
X400039Y471659D01*
X399968Y471667D01*
X399937Y471675D01*
X399914Y471673D01*
X399873Y471677D01*
X249859Y471677D01*
X249769Y471663D01*
X249678Y471655D01*
X249649Y471643D01*
X249617Y471638D01*
X249536Y471595D01*
X249452Y471559D01*
X249420Y471533D01*
X249399Y471522D01*
X249377Y471499D01*
X249321Y471454D01*
X198087Y420220D01*
X198060Y420183D01*
X198027Y420152D01*
X197989Y420084D01*
X197944Y420021D01*
X197930Y419977D01*
X197908Y419937D01*
X197894Y419860D01*
X197871Y419786D01*
X197873Y419740D01*
X197864Y419695D01*
X197876Y419618D01*
X197878Y419540D01*
X197894Y419497D01*
X197900Y419451D01*
X197935Y419382D01*
X197962Y419309D01*
X197991Y419273D01*
X198012Y419232D01*
X198067Y419177D01*
X198116Y419117D01*
X198154Y419092D01*
X198187Y419060D01*
X198307Y418994D01*
X198323Y418984D01*
X198328Y418982D01*
X198334Y418979D01*
X200432Y418110D01*
X202210Y416332D01*
X202378Y415926D01*
X202413Y415870D01*
X202438Y415810D01*
X202490Y415745D01*
X202508Y415717D01*
X202523Y415704D01*
X202543Y415679D01*
X222914Y395308D01*
X222968Y395269D01*
X223014Y395223D01*
X223087Y395183D01*
X223114Y395164D01*
X223133Y395158D01*
X223161Y395143D01*
X223567Y394975D01*
X225346Y393196D01*
X225681Y392386D01*
X225705Y392347D01*
X225721Y392304D01*
X225770Y392244D01*
X225811Y392177D01*
X225846Y392148D01*
X225875Y392112D01*
X225940Y392070D01*
X226000Y392021D01*
X226043Y392004D01*
X226082Y391979D01*
X226157Y391960D01*
X226230Y391932D01*
X226276Y391930D01*
X226320Y391919D01*
X226398Y391925D01*
G37*
%LPC*%
G36*
X505726Y179069D02*
X505726Y179069D01*
X501525Y180810D01*
X498310Y184025D01*
X496569Y188226D01*
X496569Y192774D01*
X498310Y196975D01*
X501525Y200190D01*
X502957Y200784D01*
X503057Y200846D01*
X503157Y200905D01*
X503161Y200910D01*
X503166Y200913D01*
X503241Y201004D01*
X503317Y201092D01*
X503319Y201098D01*
X503323Y201103D01*
X503365Y201211D01*
X503409Y201320D01*
X503410Y201328D01*
X503411Y201332D01*
X503412Y201351D01*
X503427Y201487D01*
X503427Y251791D01*
X503413Y251881D01*
X503405Y251972D01*
X503393Y252001D01*
X503388Y252033D01*
X503345Y252114D01*
X503309Y252198D01*
X503283Y252230D01*
X503272Y252251D01*
X503249Y252273D01*
X503204Y252329D01*
X465327Y290206D01*
X465327Y333024D01*
X465325Y333036D01*
X465326Y333044D01*
X465317Y333088D01*
X465316Y333095D01*
X465314Y333166D01*
X465296Y333215D01*
X465288Y333267D01*
X465254Y333330D01*
X465229Y333397D01*
X465197Y333438D01*
X465172Y333484D01*
X465120Y333534D01*
X465076Y333589D01*
X465032Y333618D01*
X464994Y333653D01*
X464929Y333684D01*
X464869Y333722D01*
X464818Y333735D01*
X464771Y333757D01*
X464700Y333765D01*
X464630Y333783D01*
X464578Y333778D01*
X464527Y333784D01*
X464456Y333769D01*
X464385Y333763D01*
X464337Y333743D01*
X464286Y333732D01*
X464225Y333695D01*
X464159Y333667D01*
X464103Y333622D01*
X464075Y333606D01*
X464060Y333588D01*
X464028Y333562D01*
X463675Y333209D01*
X459474Y331469D01*
X454926Y331469D01*
X450725Y333209D01*
X450372Y333562D01*
X450314Y333604D01*
X450262Y333653D01*
X450215Y333675D01*
X450173Y333706D01*
X450104Y333727D01*
X450039Y333757D01*
X449987Y333763D01*
X449937Y333778D01*
X449866Y333776D01*
X449795Y333784D01*
X449744Y333773D01*
X449692Y333772D01*
X449624Y333747D01*
X449554Y333732D01*
X449509Y333705D01*
X449461Y333687D01*
X449405Y333643D01*
X449343Y333606D01*
X449309Y333566D01*
X449269Y333534D01*
X449230Y333473D01*
X449183Y333419D01*
X449164Y333370D01*
X449136Y333327D01*
X449118Y333257D01*
X449091Y333191D01*
X449083Y333119D01*
X449075Y333088D01*
X449077Y333065D01*
X449073Y333024D01*
X449073Y294309D01*
X449087Y294219D01*
X449095Y294128D01*
X449107Y294099D01*
X449112Y294067D01*
X449155Y293986D01*
X449191Y293902D01*
X449217Y293870D01*
X449228Y293849D01*
X449251Y293827D01*
X449296Y293771D01*
X495221Y247846D01*
X495295Y247793D01*
X495365Y247733D01*
X495395Y247721D01*
X495421Y247702D01*
X495508Y247675D01*
X495593Y247641D01*
X495634Y247637D01*
X495656Y247630D01*
X495688Y247631D01*
X495759Y247623D01*
X496558Y247623D01*
X498882Y246660D01*
X500660Y244882D01*
X501623Y242558D01*
X501623Y240042D01*
X500660Y237718D01*
X498882Y235940D01*
X496558Y234977D01*
X494042Y234977D01*
X491718Y235940D01*
X489940Y237718D01*
X488977Y240042D01*
X488977Y240841D01*
X488963Y240931D01*
X488955Y241022D01*
X488943Y241051D01*
X488938Y241083D01*
X488895Y241164D01*
X488859Y241248D01*
X488833Y241280D01*
X488822Y241301D01*
X488799Y241323D01*
X488754Y241379D01*
X439927Y290206D01*
X439927Y333024D01*
X439925Y333036D01*
X439926Y333044D01*
X439917Y333088D01*
X439916Y333095D01*
X439914Y333166D01*
X439896Y333215D01*
X439888Y333267D01*
X439854Y333330D01*
X439829Y333397D01*
X439797Y333438D01*
X439772Y333484D01*
X439720Y333534D01*
X439676Y333589D01*
X439632Y333618D01*
X439594Y333653D01*
X439529Y333684D01*
X439469Y333722D01*
X439418Y333735D01*
X439371Y333757D01*
X439300Y333765D01*
X439230Y333783D01*
X439178Y333778D01*
X439127Y333784D01*
X439056Y333769D01*
X438985Y333763D01*
X438937Y333743D01*
X438886Y333732D01*
X438825Y333695D01*
X438759Y333667D01*
X438703Y333622D01*
X438675Y333606D01*
X438660Y333588D01*
X438628Y333562D01*
X438275Y333209D01*
X434074Y331469D01*
X429526Y331469D01*
X425325Y333210D01*
X422110Y336425D01*
X420369Y340626D01*
X420369Y345174D01*
X422110Y349375D01*
X425325Y352590D01*
X429526Y354331D01*
X434074Y354331D01*
X438275Y352591D01*
X438628Y352238D01*
X438686Y352196D01*
X438738Y352147D01*
X438785Y352125D01*
X438827Y352094D01*
X438896Y352073D01*
X438961Y352043D01*
X439013Y352037D01*
X439063Y352022D01*
X439134Y352024D01*
X439205Y352016D01*
X439256Y352027D01*
X439308Y352028D01*
X439376Y352053D01*
X439446Y352068D01*
X439491Y352095D01*
X439539Y352113D01*
X439595Y352157D01*
X439657Y352194D01*
X439691Y352234D01*
X439731Y352266D01*
X439770Y352327D01*
X439817Y352381D01*
X439836Y352430D01*
X439864Y352473D01*
X439882Y352543D01*
X439909Y352609D01*
X439917Y352681D01*
X439925Y352712D01*
X439923Y352735D01*
X439927Y352776D01*
X439927Y369966D01*
X439913Y370056D01*
X439905Y370147D01*
X439893Y370176D01*
X439888Y370208D01*
X439845Y370289D01*
X439809Y370373D01*
X439783Y370405D01*
X439772Y370426D01*
X439749Y370448D01*
X439704Y370504D01*
X439140Y371068D01*
X438177Y373392D01*
X438177Y375908D01*
X439140Y378232D01*
X440918Y380010D01*
X443242Y380973D01*
X445758Y380973D01*
X448082Y380010D01*
X449860Y378232D01*
X450823Y375908D01*
X450823Y373392D01*
X449860Y371068D01*
X449296Y370504D01*
X449243Y370430D01*
X449183Y370361D01*
X449171Y370330D01*
X449152Y370304D01*
X449125Y370217D01*
X449091Y370132D01*
X449087Y370091D01*
X449080Y370069D01*
X449081Y370037D01*
X449073Y369966D01*
X449073Y352776D01*
X449075Y352765D01*
X449074Y352758D01*
X449082Y352722D01*
X449084Y352705D01*
X449086Y352634D01*
X449104Y352585D01*
X449112Y352533D01*
X449146Y352470D01*
X449171Y352403D01*
X449203Y352362D01*
X449228Y352316D01*
X449280Y352266D01*
X449324Y352211D01*
X449368Y352182D01*
X449406Y352147D01*
X449471Y352116D01*
X449531Y352078D01*
X449582Y352065D01*
X449629Y352043D01*
X449700Y352035D01*
X449770Y352017D01*
X449822Y352022D01*
X449873Y352016D01*
X449944Y352031D01*
X450015Y352037D01*
X450063Y352057D01*
X450114Y352068D01*
X450175Y352105D01*
X450241Y352133D01*
X450297Y352178D01*
X450325Y352194D01*
X450340Y352212D01*
X450372Y352238D01*
X450725Y352591D01*
X454926Y354331D01*
X455245Y354331D01*
X455341Y354346D01*
X455438Y354356D01*
X455462Y354366D01*
X455488Y354370D01*
X455574Y354416D01*
X455663Y354456D01*
X455682Y354473D01*
X455706Y354486D01*
X455773Y354556D01*
X455844Y354622D01*
X455857Y354645D01*
X455875Y354664D01*
X455916Y354752D01*
X455963Y354838D01*
X455968Y354863D01*
X455979Y354887D01*
X455989Y354984D01*
X456007Y355080D01*
X456003Y355106D01*
X456006Y355131D01*
X455985Y355227D01*
X455971Y355323D01*
X455959Y355346D01*
X455953Y355372D01*
X455903Y355455D01*
X455859Y355542D01*
X455841Y355561D01*
X455827Y355583D01*
X455753Y355646D01*
X455684Y355714D01*
X455655Y355730D01*
X455640Y355743D01*
X455610Y355755D01*
X455537Y355795D01*
X453618Y356590D01*
X451840Y358368D01*
X450877Y360692D01*
X450877Y363208D01*
X451840Y365532D01*
X452404Y366096D01*
X452458Y366170D01*
X452517Y366239D01*
X452529Y366269D01*
X452548Y366296D01*
X452575Y366383D01*
X452609Y366468D01*
X452613Y366508D01*
X452620Y366531D01*
X452619Y366563D01*
X452627Y366634D01*
X452627Y410541D01*
X452613Y410631D01*
X452605Y410722D01*
X452593Y410751D01*
X452588Y410783D01*
X452545Y410864D01*
X452509Y410948D01*
X452483Y410980D01*
X452472Y411001D01*
X452449Y411023D01*
X452404Y411079D01*
X446277Y417206D01*
X446277Y439816D01*
X446263Y439906D01*
X446255Y439997D01*
X446243Y440026D01*
X446238Y440058D01*
X446195Y440139D01*
X446159Y440223D01*
X446133Y440255D01*
X446122Y440276D01*
X446099Y440298D01*
X446054Y440354D01*
X445490Y440918D01*
X444527Y443242D01*
X444527Y445758D01*
X445490Y448082D01*
X447268Y449860D01*
X449592Y450823D01*
X452108Y450823D01*
X454432Y449860D01*
X456210Y448082D01*
X457173Y445758D01*
X457173Y443242D01*
X456210Y440918D01*
X455646Y440354D01*
X455593Y440280D01*
X455533Y440211D01*
X455521Y440180D01*
X455502Y440154D01*
X455475Y440067D01*
X455441Y439982D01*
X455437Y439941D01*
X455430Y439919D01*
X455431Y439887D01*
X455423Y439816D01*
X455423Y421309D01*
X455426Y421290D01*
X455424Y421271D01*
X455439Y421201D01*
X455445Y421128D01*
X455457Y421099D01*
X455462Y421067D01*
X455472Y421049D01*
X455476Y421030D01*
X455512Y420970D01*
X455541Y420902D01*
X455567Y420870D01*
X455578Y420849D01*
X455593Y420835D01*
X455602Y420819D01*
X455618Y420805D01*
X455646Y420771D01*
X461773Y414644D01*
X461773Y366634D01*
X461787Y366544D01*
X461795Y366453D01*
X461807Y366423D01*
X461812Y366392D01*
X461855Y366311D01*
X461891Y366227D01*
X461917Y366195D01*
X461928Y366174D01*
X461951Y366152D01*
X461996Y366096D01*
X462560Y365532D01*
X463523Y363208D01*
X463523Y360692D01*
X462560Y358368D01*
X460782Y356590D01*
X458863Y355795D01*
X458780Y355744D01*
X458694Y355698D01*
X458677Y355680D01*
X458654Y355666D01*
X458592Y355590D01*
X458525Y355520D01*
X458514Y355496D01*
X458497Y355476D01*
X458462Y355385D01*
X458421Y355297D01*
X458419Y355271D01*
X458409Y355247D01*
X458405Y355149D01*
X458394Y355053D01*
X458400Y355027D01*
X458399Y355001D01*
X458426Y354907D01*
X458447Y354812D01*
X458460Y354790D01*
X458467Y354765D01*
X458523Y354685D01*
X458573Y354601D01*
X458593Y354584D01*
X458608Y354563D01*
X458686Y354504D01*
X458760Y354441D01*
X458784Y354431D01*
X458805Y354416D01*
X458897Y354386D01*
X458988Y354349D01*
X459020Y354346D01*
X459039Y354340D01*
X459072Y354340D01*
X459155Y354331D01*
X459474Y354331D01*
X463675Y352591D01*
X464028Y352238D01*
X464086Y352196D01*
X464138Y352147D01*
X464185Y352125D01*
X464227Y352094D01*
X464296Y352073D01*
X464361Y352043D01*
X464413Y352037D01*
X464463Y352022D01*
X464534Y352024D01*
X464605Y352016D01*
X464656Y352027D01*
X464708Y352028D01*
X464776Y352053D01*
X464846Y352068D01*
X464891Y352095D01*
X464939Y352113D01*
X464995Y352157D01*
X465057Y352194D01*
X465091Y352234D01*
X465131Y352266D01*
X465170Y352327D01*
X465217Y352381D01*
X465236Y352430D01*
X465264Y352473D01*
X465282Y352543D01*
X465309Y352609D01*
X465317Y352681D01*
X465325Y352712D01*
X465323Y352735D01*
X465327Y352776D01*
X465327Y369966D01*
X465313Y370056D01*
X465305Y370147D01*
X465293Y370176D01*
X465288Y370208D01*
X465245Y370289D01*
X465209Y370373D01*
X465183Y370405D01*
X465172Y370426D01*
X465149Y370448D01*
X465104Y370504D01*
X464540Y371068D01*
X463577Y373392D01*
X463577Y375908D01*
X464540Y378232D01*
X466318Y380010D01*
X468642Y380973D01*
X471158Y380973D01*
X473482Y380010D01*
X475260Y378232D01*
X476223Y375908D01*
X476223Y373392D01*
X475260Y371068D01*
X474696Y370504D01*
X474643Y370430D01*
X474583Y370361D01*
X474571Y370330D01*
X474552Y370304D01*
X474525Y370217D01*
X474491Y370132D01*
X474487Y370091D01*
X474480Y370069D01*
X474481Y370037D01*
X474473Y369966D01*
X474473Y352776D01*
X474475Y352765D01*
X474474Y352758D01*
X474482Y352722D01*
X474484Y352705D01*
X474486Y352634D01*
X474504Y352585D01*
X474512Y352533D01*
X474546Y352470D01*
X474571Y352403D01*
X474603Y352362D01*
X474628Y352316D01*
X474680Y352266D01*
X474724Y352211D01*
X474768Y352182D01*
X474806Y352147D01*
X474871Y352116D01*
X474931Y352078D01*
X474982Y352065D01*
X475029Y352043D01*
X475100Y352035D01*
X475170Y352017D01*
X475222Y352022D01*
X475273Y352016D01*
X475344Y352031D01*
X475415Y352037D01*
X475463Y352057D01*
X475514Y352068D01*
X475575Y352105D01*
X475641Y352133D01*
X475697Y352178D01*
X475725Y352194D01*
X475740Y352212D01*
X475772Y352238D01*
X476125Y352591D01*
X480326Y354331D01*
X484874Y354331D01*
X489075Y352591D01*
X489428Y352238D01*
X489486Y352196D01*
X489538Y352147D01*
X489585Y352125D01*
X489627Y352094D01*
X489696Y352073D01*
X489761Y352043D01*
X489813Y352037D01*
X489863Y352022D01*
X489934Y352024D01*
X490005Y352016D01*
X490056Y352027D01*
X490108Y352028D01*
X490176Y352053D01*
X490246Y352068D01*
X490291Y352095D01*
X490339Y352113D01*
X490395Y352157D01*
X490457Y352194D01*
X490491Y352234D01*
X490531Y352266D01*
X490570Y352327D01*
X490617Y352381D01*
X490636Y352430D01*
X490664Y352473D01*
X490682Y352543D01*
X490709Y352609D01*
X490717Y352681D01*
X490725Y352712D01*
X490723Y352735D01*
X490727Y352776D01*
X490727Y366091D01*
X490713Y366181D01*
X490705Y366272D01*
X490693Y366301D01*
X490688Y366333D01*
X490645Y366414D01*
X490609Y366498D01*
X490583Y366530D01*
X490572Y366551D01*
X490549Y366573D01*
X490504Y366629D01*
X489029Y368104D01*
X488955Y368157D01*
X488885Y368217D01*
X488855Y368229D01*
X488829Y368248D01*
X488742Y368275D01*
X488657Y368309D01*
X488616Y368313D01*
X488594Y368320D01*
X488562Y368319D01*
X488491Y368327D01*
X487692Y368327D01*
X485368Y369290D01*
X483590Y371068D01*
X482627Y373392D01*
X482627Y375908D01*
X483590Y378232D01*
X485368Y380010D01*
X487692Y380973D01*
X490208Y380973D01*
X492532Y380010D01*
X494310Y378232D01*
X495273Y375908D01*
X495273Y375109D01*
X495287Y375019D01*
X495295Y374928D01*
X495307Y374899D01*
X495312Y374867D01*
X495355Y374786D01*
X495391Y374702D01*
X495417Y374670D01*
X495428Y374649D01*
X495451Y374627D01*
X495496Y374571D01*
X499873Y370194D01*
X499873Y352776D01*
X499875Y352765D01*
X499874Y352758D01*
X499882Y352722D01*
X499884Y352705D01*
X499886Y352634D01*
X499904Y352585D01*
X499912Y352533D01*
X499946Y352470D01*
X499971Y352403D01*
X500003Y352362D01*
X500028Y352316D01*
X500080Y352266D01*
X500124Y352211D01*
X500168Y352182D01*
X500206Y352147D01*
X500271Y352116D01*
X500331Y352078D01*
X500382Y352065D01*
X500429Y352043D01*
X500500Y352035D01*
X500570Y352017D01*
X500622Y352022D01*
X500673Y352016D01*
X500744Y352031D01*
X500815Y352037D01*
X500863Y352057D01*
X500914Y352068D01*
X500975Y352105D01*
X501041Y352133D01*
X501097Y352178D01*
X501125Y352194D01*
X501140Y352212D01*
X501172Y352238D01*
X501525Y352591D01*
X505726Y354331D01*
X510274Y354331D01*
X514475Y352590D01*
X517690Y349375D01*
X519431Y345174D01*
X519431Y340626D01*
X517690Y336425D01*
X514475Y333210D01*
X510274Y331469D01*
X505726Y331469D01*
X501525Y333209D01*
X501172Y333562D01*
X501114Y333604D01*
X501062Y333653D01*
X501015Y333675D01*
X500973Y333706D01*
X500904Y333727D01*
X500839Y333757D01*
X500787Y333763D01*
X500737Y333778D01*
X500666Y333776D01*
X500595Y333784D01*
X500544Y333773D01*
X500492Y333772D01*
X500424Y333747D01*
X500354Y333732D01*
X500309Y333705D01*
X500261Y333687D01*
X500205Y333643D01*
X500143Y333606D01*
X500109Y333566D01*
X500069Y333534D01*
X500030Y333473D01*
X499983Y333419D01*
X499964Y333370D01*
X499936Y333327D01*
X499918Y333257D01*
X499891Y333191D01*
X499883Y333119D01*
X499875Y333088D01*
X499877Y333065D01*
X499873Y333024D01*
X499873Y319709D01*
X499887Y319619D01*
X499895Y319528D01*
X499907Y319499D01*
X499912Y319467D01*
X499955Y319386D01*
X499991Y319302D01*
X500017Y319270D01*
X500028Y319249D01*
X500051Y319227D01*
X500096Y319171D01*
X537973Y281294D01*
X537973Y201487D01*
X537992Y201372D01*
X538009Y201256D01*
X538011Y201251D01*
X538012Y201244D01*
X538067Y201142D01*
X538120Y201037D01*
X538125Y201032D01*
X538128Y201027D01*
X538212Y200947D01*
X538296Y200865D01*
X538302Y200861D01*
X538306Y200858D01*
X538323Y200850D01*
X538443Y200784D01*
X539875Y200190D01*
X543090Y196975D01*
X544831Y192774D01*
X544831Y188226D01*
X543090Y184025D01*
X539875Y180810D01*
X535674Y179069D01*
X531126Y179069D01*
X526925Y180810D01*
X523710Y184025D01*
X521969Y188226D01*
X521969Y192774D01*
X523710Y196975D01*
X526925Y200190D01*
X528357Y200784D01*
X528457Y200846D01*
X528557Y200905D01*
X528561Y200910D01*
X528566Y200913D01*
X528641Y201004D01*
X528717Y201092D01*
X528719Y201098D01*
X528723Y201103D01*
X528765Y201211D01*
X528809Y201320D01*
X528810Y201328D01*
X528811Y201332D01*
X528812Y201351D01*
X528827Y201487D01*
X528827Y277191D01*
X528813Y277281D01*
X528805Y277372D01*
X528793Y277401D01*
X528788Y277433D01*
X528745Y277514D01*
X528709Y277598D01*
X528683Y277630D01*
X528672Y277651D01*
X528649Y277673D01*
X528604Y277729D01*
X490727Y315606D01*
X490727Y333024D01*
X490725Y333036D01*
X490726Y333044D01*
X490717Y333088D01*
X490716Y333095D01*
X490714Y333166D01*
X490696Y333215D01*
X490688Y333267D01*
X490654Y333330D01*
X490629Y333397D01*
X490597Y333438D01*
X490572Y333484D01*
X490520Y333534D01*
X490476Y333589D01*
X490432Y333618D01*
X490394Y333653D01*
X490329Y333684D01*
X490269Y333722D01*
X490218Y333735D01*
X490171Y333757D01*
X490100Y333765D01*
X490030Y333783D01*
X489978Y333778D01*
X489927Y333784D01*
X489856Y333769D01*
X489785Y333763D01*
X489737Y333743D01*
X489686Y333732D01*
X489625Y333695D01*
X489559Y333667D01*
X489503Y333622D01*
X489475Y333606D01*
X489460Y333588D01*
X489428Y333562D01*
X489075Y333209D01*
X484874Y331469D01*
X480326Y331469D01*
X476125Y333209D01*
X475772Y333562D01*
X475714Y333604D01*
X475662Y333653D01*
X475615Y333675D01*
X475573Y333706D01*
X475504Y333727D01*
X475439Y333757D01*
X475387Y333763D01*
X475337Y333778D01*
X475266Y333776D01*
X475195Y333784D01*
X475144Y333773D01*
X475092Y333772D01*
X475024Y333747D01*
X474954Y333732D01*
X474909Y333705D01*
X474861Y333687D01*
X474805Y333643D01*
X474743Y333606D01*
X474709Y333566D01*
X474669Y333534D01*
X474630Y333473D01*
X474583Y333419D01*
X474564Y333370D01*
X474536Y333327D01*
X474518Y333257D01*
X474491Y333191D01*
X474483Y333119D01*
X474475Y333088D01*
X474477Y333065D01*
X474473Y333024D01*
X474473Y294309D01*
X474487Y294219D01*
X474495Y294128D01*
X474507Y294099D01*
X474512Y294067D01*
X474555Y293986D01*
X474591Y293902D01*
X474617Y293870D01*
X474628Y293849D01*
X474651Y293827D01*
X474696Y293771D01*
X512573Y255894D01*
X512573Y201487D01*
X512592Y201372D01*
X512609Y201256D01*
X512611Y201251D01*
X512612Y201244D01*
X512667Y201142D01*
X512720Y201037D01*
X512725Y201032D01*
X512728Y201027D01*
X512812Y200947D01*
X512896Y200865D01*
X512902Y200861D01*
X512906Y200858D01*
X512923Y200850D01*
X513043Y200784D01*
X514475Y200190D01*
X517690Y196975D01*
X519431Y192774D01*
X519431Y188226D01*
X517690Y184025D01*
X514475Y180810D01*
X510274Y179069D01*
X505726Y179069D01*
G37*
%LPD*%
G36*
X286786Y85602D02*
X286786Y85602D01*
X286805Y85600D01*
X286907Y85622D01*
X287009Y85639D01*
X287026Y85648D01*
X287046Y85652D01*
X287135Y85705D01*
X287226Y85754D01*
X287240Y85768D01*
X287257Y85778D01*
X287324Y85857D01*
X287396Y85932D01*
X287404Y85950D01*
X287417Y85965D01*
X287456Y86061D01*
X287499Y86155D01*
X287501Y86175D01*
X287509Y86193D01*
X287527Y86360D01*
X287527Y116194D01*
X298254Y126921D01*
X298307Y126995D01*
X298344Y127038D01*
X298346Y127039D01*
X298346Y127040D01*
X298367Y127065D01*
X298379Y127095D01*
X298398Y127121D01*
X298425Y127208D01*
X298430Y127222D01*
X298449Y127263D01*
X298450Y127271D01*
X298459Y127293D01*
X298463Y127334D01*
X298470Y127356D01*
X298469Y127388D01*
X298477Y127459D01*
X298477Y128258D01*
X299440Y130582D01*
X301218Y132360D01*
X303542Y133323D01*
X306058Y133323D01*
X308382Y132360D01*
X310160Y130582D01*
X311123Y128258D01*
X311123Y125742D01*
X310160Y123418D01*
X308382Y121640D01*
X306058Y120677D01*
X305259Y120677D01*
X305169Y120663D01*
X305078Y120655D01*
X305049Y120643D01*
X305017Y120638D01*
X304936Y120595D01*
X304852Y120559D01*
X304820Y120533D01*
X304799Y120522D01*
X304777Y120499D01*
X304721Y120454D01*
X296896Y112629D01*
X296843Y112555D01*
X296783Y112485D01*
X296771Y112455D01*
X296752Y112429D01*
X296725Y112342D01*
X296691Y112257D01*
X296687Y112216D01*
X296680Y112194D01*
X296681Y112162D01*
X296673Y112091D01*
X296673Y86360D01*
X296676Y86340D01*
X296674Y86321D01*
X296696Y86219D01*
X296712Y86117D01*
X296722Y86100D01*
X296726Y86080D01*
X296779Y85991D01*
X296828Y85900D01*
X296842Y85886D01*
X296852Y85869D01*
X296931Y85802D01*
X297006Y85731D01*
X297024Y85722D01*
X297039Y85709D01*
X297135Y85670D01*
X297229Y85627D01*
X297249Y85625D01*
X297267Y85617D01*
X297434Y85599D01*
X310884Y85599D01*
X310930Y85606D01*
X310976Y85604D01*
X311050Y85626D01*
X311127Y85639D01*
X311168Y85660D01*
X311212Y85673D01*
X311276Y85717D01*
X311345Y85754D01*
X311376Y85787D01*
X311414Y85813D01*
X311460Y85875D01*
X311514Y85932D01*
X311533Y85974D01*
X311561Y86010D01*
X311585Y86084D01*
X311618Y86155D01*
X311623Y86201D01*
X311637Y86244D01*
X311636Y86322D01*
X311645Y86399D01*
X311635Y86444D01*
X311634Y86490D01*
X311596Y86622D01*
X311592Y86640D01*
X311590Y86644D01*
X311588Y86651D01*
X311177Y87642D01*
X311177Y90158D01*
X312140Y92482D01*
X313918Y94260D01*
X316242Y95223D01*
X318758Y95223D01*
X321082Y94260D01*
X322860Y92482D01*
X323823Y90158D01*
X323823Y87642D01*
X323412Y86651D01*
X323402Y86607D01*
X323382Y86565D01*
X323374Y86488D01*
X323356Y86412D01*
X323360Y86366D01*
X323355Y86321D01*
X323372Y86244D01*
X323379Y86167D01*
X323398Y86125D01*
X323408Y86080D01*
X323448Y86013D01*
X323479Y85942D01*
X323510Y85908D01*
X323534Y85869D01*
X323593Y85819D01*
X323646Y85761D01*
X323686Y85739D01*
X323721Y85709D01*
X323793Y85680D01*
X323861Y85643D01*
X323906Y85634D01*
X323949Y85617D01*
X324085Y85602D01*
X324103Y85599D01*
X324108Y85600D01*
X324116Y85599D01*
X336284Y85599D01*
X336330Y85606D01*
X336376Y85604D01*
X336450Y85626D01*
X336527Y85639D01*
X336568Y85660D01*
X336612Y85673D01*
X336676Y85717D01*
X336745Y85754D01*
X336776Y85787D01*
X336814Y85813D01*
X336860Y85875D01*
X336914Y85932D01*
X336933Y85974D01*
X336961Y86010D01*
X336985Y86084D01*
X337018Y86155D01*
X337023Y86201D01*
X337037Y86244D01*
X337036Y86322D01*
X337045Y86399D01*
X337035Y86444D01*
X337034Y86490D01*
X336996Y86622D01*
X336992Y86640D01*
X336990Y86644D01*
X336988Y86651D01*
X336577Y87642D01*
X336577Y90158D01*
X337540Y92482D01*
X339318Y94260D01*
X341642Y95223D01*
X344158Y95223D01*
X346482Y94260D01*
X348260Y92482D01*
X349223Y90158D01*
X349223Y87642D01*
X348812Y86651D01*
X348802Y86607D01*
X348782Y86565D01*
X348774Y86488D01*
X348756Y86412D01*
X348760Y86366D01*
X348755Y86321D01*
X348772Y86244D01*
X348779Y86167D01*
X348798Y86125D01*
X348808Y86080D01*
X348848Y86013D01*
X348879Y85942D01*
X348910Y85908D01*
X348934Y85869D01*
X348993Y85819D01*
X349046Y85761D01*
X349086Y85739D01*
X349121Y85709D01*
X349193Y85680D01*
X349261Y85643D01*
X349306Y85634D01*
X349349Y85617D01*
X349485Y85602D01*
X349503Y85599D01*
X349508Y85600D01*
X349516Y85599D01*
X362966Y85599D01*
X362986Y85602D01*
X363005Y85600D01*
X363107Y85622D01*
X363209Y85639D01*
X363226Y85648D01*
X363246Y85652D01*
X363335Y85705D01*
X363426Y85754D01*
X363440Y85768D01*
X363457Y85778D01*
X363524Y85857D01*
X363596Y85932D01*
X363604Y85950D01*
X363617Y85965D01*
X363656Y86061D01*
X363699Y86155D01*
X363701Y86175D01*
X363709Y86193D01*
X363727Y86360D01*
X363727Y86691D01*
X363713Y86781D01*
X363705Y86872D01*
X363693Y86901D01*
X363688Y86933D01*
X363645Y87014D01*
X363609Y87098D01*
X363583Y87130D01*
X363572Y87151D01*
X363549Y87173D01*
X363504Y87229D01*
X274827Y175906D01*
X274827Y179513D01*
X274808Y179628D01*
X274791Y179744D01*
X274789Y179749D01*
X274788Y179756D01*
X274733Y179858D01*
X274680Y179963D01*
X274675Y179968D01*
X274672Y179973D01*
X274588Y180053D01*
X274504Y180135D01*
X274498Y180139D01*
X274494Y180142D01*
X274477Y180150D01*
X274357Y180216D01*
X272925Y180809D01*
X272572Y181162D01*
X272514Y181204D01*
X272462Y181253D01*
X272415Y181275D01*
X272373Y181306D01*
X272304Y181327D01*
X272239Y181357D01*
X272187Y181363D01*
X272137Y181378D01*
X272066Y181376D01*
X271995Y181384D01*
X271944Y181373D01*
X271892Y181372D01*
X271824Y181347D01*
X271754Y181332D01*
X271709Y181305D01*
X271661Y181287D01*
X271605Y181243D01*
X271543Y181206D01*
X271509Y181166D01*
X271469Y181134D01*
X271430Y181073D01*
X271383Y181019D01*
X271364Y180970D01*
X271336Y180927D01*
X271318Y180857D01*
X271291Y180791D01*
X271283Y180719D01*
X271275Y180688D01*
X271277Y180665D01*
X271273Y180624D01*
X271273Y86360D01*
X271276Y86340D01*
X271274Y86321D01*
X271296Y86219D01*
X271312Y86117D01*
X271322Y86100D01*
X271326Y86080D01*
X271379Y85991D01*
X271428Y85900D01*
X271442Y85886D01*
X271452Y85869D01*
X271531Y85802D01*
X271606Y85731D01*
X271624Y85722D01*
X271639Y85709D01*
X271735Y85670D01*
X271829Y85627D01*
X271849Y85625D01*
X271867Y85617D01*
X272034Y85599D01*
X286766Y85599D01*
X286786Y85602D01*
G37*
%LPC*%
G36*
X301372Y407034D02*
X301372Y407034D01*
X294751Y408809D01*
X288814Y412236D01*
X283966Y417084D01*
X280539Y423021D01*
X278764Y429642D01*
X278764Y436498D01*
X280539Y443119D01*
X283966Y449056D01*
X288814Y453904D01*
X294751Y457331D01*
X301372Y459106D01*
X308228Y459106D01*
X314849Y457331D01*
X320786Y453904D01*
X325634Y449056D01*
X329061Y443119D01*
X330836Y436498D01*
X330836Y429642D01*
X329061Y423021D01*
X325634Y417084D01*
X320786Y412236D01*
X314849Y408809D01*
X308228Y407034D01*
X301372Y407034D01*
G37*
%LPD*%
%LPC*%
G36*
X180352Y438177D02*
X180352Y438177D01*
X178028Y439140D01*
X176250Y440918D01*
X175287Y443242D01*
X175287Y445758D01*
X175455Y446163D01*
X175465Y446203D01*
X175475Y446226D01*
X175478Y446245D01*
X175495Y446288D01*
X175504Y446371D01*
X175511Y446403D01*
X175510Y446422D01*
X175513Y446455D01*
X175513Y470789D01*
X175510Y470809D01*
X175512Y470828D01*
X175490Y470930D01*
X175474Y471032D01*
X175464Y471049D01*
X175460Y471069D01*
X175407Y471158D01*
X175358Y471249D01*
X175344Y471263D01*
X175334Y471280D01*
X175255Y471347D01*
X175180Y471419D01*
X175162Y471427D01*
X175147Y471440D01*
X175051Y471479D01*
X174957Y471522D01*
X174937Y471524D01*
X174919Y471532D01*
X174752Y471550D01*
X174505Y471550D01*
X172719Y473336D01*
X172719Y491864D01*
X174505Y493650D01*
X188717Y493650D01*
X188720Y493646D01*
X188808Y493589D01*
X188891Y493529D01*
X188910Y493523D01*
X188927Y493513D01*
X189028Y493487D01*
X189127Y493457D01*
X189147Y493457D01*
X189166Y493453D01*
X189269Y493461D01*
X189372Y493463D01*
X189391Y493470D01*
X189411Y493472D01*
X189506Y493512D01*
X189603Y493548D01*
X189619Y493560D01*
X189637Y493568D01*
X189739Y493650D01*
X203957Y493650D01*
X203960Y493646D01*
X204048Y493589D01*
X204131Y493529D01*
X204150Y493523D01*
X204167Y493513D01*
X204268Y493487D01*
X204367Y493457D01*
X204387Y493457D01*
X204406Y493453D01*
X204509Y493461D01*
X204612Y493463D01*
X204631Y493470D01*
X204651Y493472D01*
X204746Y493512D01*
X204843Y493548D01*
X204859Y493560D01*
X204877Y493568D01*
X204979Y493650D01*
X219195Y493650D01*
X220981Y491864D01*
X220981Y487934D01*
X220984Y487914D01*
X220982Y487895D01*
X221004Y487793D01*
X221020Y487691D01*
X221030Y487674D01*
X221034Y487654D01*
X221087Y487565D01*
X221136Y487474D01*
X221150Y487460D01*
X221160Y487443D01*
X221239Y487376D01*
X221314Y487304D01*
X221332Y487296D01*
X221347Y487283D01*
X221443Y487244D01*
X221537Y487201D01*
X221557Y487199D01*
X221575Y487191D01*
X221742Y487173D01*
X230266Y487173D01*
X230356Y487187D01*
X230447Y487195D01*
X230476Y487207D01*
X230508Y487212D01*
X230589Y487255D01*
X230673Y487291D01*
X230705Y487317D01*
X230726Y487328D01*
X230748Y487351D01*
X230804Y487396D01*
X231368Y487960D01*
X233692Y488923D01*
X236208Y488923D01*
X238532Y487960D01*
X240310Y486182D01*
X241273Y483858D01*
X241273Y481342D01*
X240310Y479018D01*
X238532Y477240D01*
X236208Y476277D01*
X233692Y476277D01*
X231368Y477240D01*
X230804Y477804D01*
X230730Y477857D01*
X230661Y477917D01*
X230630Y477929D01*
X230604Y477948D01*
X230517Y477975D01*
X230432Y478009D01*
X230391Y478013D01*
X230369Y478020D01*
X230337Y478019D01*
X230266Y478027D01*
X221742Y478027D01*
X221722Y478024D01*
X221703Y478026D01*
X221601Y478004D01*
X221499Y477988D01*
X221482Y477978D01*
X221462Y477974D01*
X221373Y477921D01*
X221282Y477872D01*
X221268Y477858D01*
X221251Y477848D01*
X221184Y477769D01*
X221112Y477694D01*
X221104Y477676D01*
X221091Y477661D01*
X221052Y477565D01*
X221009Y477471D01*
X221007Y477451D01*
X220999Y477433D01*
X220981Y477266D01*
X220981Y473336D01*
X219195Y471550D01*
X204983Y471550D01*
X204980Y471554D01*
X204893Y471610D01*
X204809Y471671D01*
X204790Y471677D01*
X204773Y471687D01*
X204673Y471713D01*
X204574Y471743D01*
X204554Y471743D01*
X204534Y471747D01*
X204431Y471739D01*
X204328Y471737D01*
X204309Y471730D01*
X204289Y471728D01*
X204194Y471688D01*
X204097Y471652D01*
X204081Y471640D01*
X204063Y471632D01*
X203961Y471550D01*
X203708Y471550D01*
X203688Y471547D01*
X203669Y471549D01*
X203567Y471527D01*
X203465Y471511D01*
X203448Y471501D01*
X203428Y471497D01*
X203339Y471444D01*
X203248Y471395D01*
X203234Y471381D01*
X203217Y471371D01*
X203150Y471292D01*
X203078Y471217D01*
X203070Y471199D01*
X203057Y471184D01*
X203018Y471088D01*
X202975Y470994D01*
X202973Y470974D01*
X202965Y470956D01*
X202947Y470789D01*
X202947Y446455D01*
X202957Y446390D01*
X202958Y446324D01*
X202981Y446244D01*
X202986Y446212D01*
X202996Y446195D01*
X203005Y446163D01*
X203173Y445758D01*
X203173Y443242D01*
X202210Y440918D01*
X200432Y439140D01*
X198108Y438177D01*
X195592Y438177D01*
X193268Y439140D01*
X191490Y440918D01*
X190527Y443242D01*
X190527Y445758D01*
X190695Y446163D01*
X190705Y446203D01*
X190715Y446226D01*
X190718Y446245D01*
X190735Y446288D01*
X190744Y446371D01*
X190751Y446403D01*
X190750Y446422D01*
X190753Y446455D01*
X190753Y470789D01*
X190750Y470809D01*
X190752Y470828D01*
X190730Y470930D01*
X190714Y471032D01*
X190704Y471049D01*
X190700Y471069D01*
X190647Y471158D01*
X190598Y471249D01*
X190584Y471263D01*
X190574Y471280D01*
X190495Y471347D01*
X190420Y471419D01*
X190402Y471427D01*
X190387Y471440D01*
X190291Y471479D01*
X190197Y471522D01*
X190177Y471524D01*
X190159Y471532D01*
X189992Y471550D01*
X189743Y471550D01*
X189740Y471554D01*
X189653Y471610D01*
X189569Y471671D01*
X189550Y471677D01*
X189533Y471687D01*
X189433Y471713D01*
X189334Y471743D01*
X189314Y471743D01*
X189294Y471747D01*
X189191Y471739D01*
X189088Y471737D01*
X189069Y471730D01*
X189049Y471728D01*
X188954Y471688D01*
X188857Y471652D01*
X188841Y471640D01*
X188823Y471632D01*
X188721Y471550D01*
X188468Y471550D01*
X188448Y471547D01*
X188429Y471549D01*
X188327Y471527D01*
X188225Y471511D01*
X188208Y471501D01*
X188188Y471497D01*
X188099Y471444D01*
X188008Y471395D01*
X187994Y471381D01*
X187977Y471371D01*
X187910Y471292D01*
X187838Y471217D01*
X187830Y471199D01*
X187817Y471184D01*
X187778Y471088D01*
X187735Y470994D01*
X187733Y470974D01*
X187725Y470956D01*
X187707Y470789D01*
X187707Y446455D01*
X187717Y446390D01*
X187718Y446324D01*
X187741Y446244D01*
X187746Y446212D01*
X187756Y446195D01*
X187765Y446163D01*
X187933Y445758D01*
X187933Y443242D01*
X186970Y440918D01*
X185192Y439140D01*
X182868Y438177D01*
X180352Y438177D01*
G37*
%LPD*%
%LPC*%
G36*
X316242Y209577D02*
X316242Y209577D01*
X313918Y210540D01*
X312140Y212318D01*
X311177Y214642D01*
X311177Y217158D01*
X312140Y219482D01*
X312704Y220046D01*
X312757Y220120D01*
X312817Y220189D01*
X312829Y220220D01*
X312848Y220246D01*
X312875Y220333D01*
X312909Y220418D01*
X312913Y220459D01*
X312920Y220481D01*
X312919Y220513D01*
X312927Y220584D01*
X312927Y243194D01*
X315829Y246096D01*
X401253Y331520D01*
X401280Y331557D01*
X401314Y331588D01*
X401351Y331657D01*
X401397Y331720D01*
X401410Y331764D01*
X401432Y331804D01*
X401446Y331881D01*
X401469Y331955D01*
X401468Y332001D01*
X401476Y332046D01*
X401465Y332123D01*
X401463Y332201D01*
X401447Y332244D01*
X401440Y332289D01*
X401405Y332359D01*
X401378Y332432D01*
X401350Y332468D01*
X401329Y332509D01*
X401273Y332563D01*
X401225Y332624D01*
X401186Y332649D01*
X401153Y332681D01*
X401033Y332747D01*
X401018Y332757D01*
X401013Y332758D01*
X401006Y332762D01*
X399925Y333210D01*
X396710Y336425D01*
X394969Y340626D01*
X394969Y345174D01*
X396710Y349375D01*
X399925Y352590D01*
X404126Y354331D01*
X408674Y354331D01*
X412875Y352590D01*
X416090Y349375D01*
X417831Y345174D01*
X417831Y340626D01*
X416090Y336425D01*
X412875Y333210D01*
X411443Y332616D01*
X411343Y332554D01*
X411243Y332495D01*
X411239Y332490D01*
X411234Y332487D01*
X411159Y332396D01*
X411083Y332308D01*
X411081Y332302D01*
X411077Y332297D01*
X411035Y332189D01*
X410991Y332080D01*
X410990Y332072D01*
X410989Y332068D01*
X410988Y332049D01*
X410973Y331913D01*
X410973Y328306D01*
X322296Y239629D01*
X322243Y239555D01*
X322183Y239485D01*
X322171Y239455D01*
X322152Y239429D01*
X322125Y239342D01*
X322091Y239257D01*
X322087Y239216D01*
X322080Y239194D01*
X322081Y239162D01*
X322073Y239091D01*
X322073Y220584D01*
X322087Y220494D01*
X322095Y220403D01*
X322107Y220374D01*
X322112Y220342D01*
X322155Y220261D01*
X322191Y220177D01*
X322217Y220145D01*
X322228Y220124D01*
X322251Y220102D01*
X322296Y220046D01*
X322860Y219482D01*
X323823Y217158D01*
X323823Y214642D01*
X322860Y212318D01*
X321082Y210540D01*
X318758Y209577D01*
X316242Y209577D01*
G37*
%LPD*%
%LPC*%
G36*
X30492Y279427D02*
X30492Y279427D01*
X28168Y280390D01*
X26390Y282168D01*
X25427Y284492D01*
X25427Y287008D01*
X26390Y289332D01*
X26954Y289896D01*
X27007Y289970D01*
X27067Y290039D01*
X27079Y290070D01*
X27098Y290096D01*
X27125Y290183D01*
X27159Y290268D01*
X27163Y290309D01*
X27170Y290331D01*
X27169Y290363D01*
X27177Y290434D01*
X27177Y306694D01*
X42556Y322073D01*
X122316Y322073D01*
X122406Y322087D01*
X122497Y322095D01*
X122526Y322107D01*
X122558Y322112D01*
X122639Y322155D01*
X122723Y322191D01*
X122755Y322217D01*
X122776Y322228D01*
X122798Y322251D01*
X122854Y322296D01*
X123418Y322860D01*
X125742Y323823D01*
X128258Y323823D01*
X130582Y322860D01*
X132360Y321082D01*
X133323Y318758D01*
X133323Y316242D01*
X132360Y313918D01*
X130582Y312140D01*
X128258Y311177D01*
X125742Y311177D01*
X123418Y312140D01*
X122854Y312704D01*
X122780Y312757D01*
X122711Y312817D01*
X122680Y312829D01*
X122654Y312848D01*
X122567Y312875D01*
X122482Y312909D01*
X122441Y312913D01*
X122419Y312920D01*
X122387Y312919D01*
X122316Y312927D01*
X46659Y312927D01*
X46569Y312913D01*
X46478Y312905D01*
X46449Y312893D01*
X46417Y312888D01*
X46336Y312845D01*
X46252Y312809D01*
X46220Y312783D01*
X46199Y312772D01*
X46177Y312749D01*
X46121Y312704D01*
X36546Y303129D01*
X36493Y303055D01*
X36433Y302985D01*
X36421Y302955D01*
X36402Y302929D01*
X36375Y302842D01*
X36341Y302757D01*
X36337Y302716D01*
X36330Y302694D01*
X36331Y302662D01*
X36323Y302591D01*
X36323Y290434D01*
X36337Y290344D01*
X36345Y290253D01*
X36357Y290224D01*
X36362Y290192D01*
X36405Y290111D01*
X36441Y290027D01*
X36467Y289995D01*
X36478Y289974D01*
X36501Y289952D01*
X36546Y289896D01*
X37110Y289332D01*
X38073Y287008D01*
X38073Y284492D01*
X37110Y282168D01*
X35332Y280390D01*
X33008Y279427D01*
X30492Y279427D01*
G37*
%LPD*%
G36*
X261386Y85602D02*
X261386Y85602D01*
X261405Y85600D01*
X261507Y85622D01*
X261609Y85639D01*
X261626Y85648D01*
X261646Y85652D01*
X261735Y85705D01*
X261826Y85754D01*
X261840Y85768D01*
X261857Y85778D01*
X261924Y85857D01*
X261996Y85932D01*
X262004Y85950D01*
X262017Y85965D01*
X262056Y86061D01*
X262099Y86155D01*
X262101Y86175D01*
X262109Y86193D01*
X262127Y86360D01*
X262127Y180624D01*
X262116Y180695D01*
X262114Y180766D01*
X262096Y180815D01*
X262088Y180867D01*
X262054Y180930D01*
X262029Y180997D01*
X261997Y181038D01*
X261972Y181084D01*
X261920Y181134D01*
X261876Y181189D01*
X261832Y181218D01*
X261794Y181253D01*
X261729Y181284D01*
X261669Y181322D01*
X261618Y181335D01*
X261571Y181357D01*
X261500Y181365D01*
X261430Y181383D01*
X261378Y181378D01*
X261327Y181384D01*
X261256Y181369D01*
X261185Y181363D01*
X261137Y181343D01*
X261086Y181332D01*
X261025Y181295D01*
X260959Y181267D01*
X260903Y181222D01*
X260875Y181206D01*
X260860Y181188D01*
X260828Y181162D01*
X260475Y180809D01*
X259043Y180216D01*
X258943Y180154D01*
X258843Y180095D01*
X258839Y180090D01*
X258834Y180087D01*
X258759Y179996D01*
X258683Y179908D01*
X258681Y179902D01*
X258677Y179897D01*
X258635Y179789D01*
X258591Y179680D01*
X258590Y179672D01*
X258589Y179668D01*
X258588Y179649D01*
X258573Y179513D01*
X258573Y150506D01*
X255671Y147604D01*
X246096Y138029D01*
X246043Y137955D01*
X245983Y137885D01*
X245971Y137855D01*
X245952Y137829D01*
X245925Y137742D01*
X245891Y137657D01*
X245887Y137616D01*
X245880Y137594D01*
X245881Y137562D01*
X245873Y137491D01*
X245873Y86360D01*
X245876Y86340D01*
X245874Y86321D01*
X245896Y86219D01*
X245912Y86117D01*
X245922Y86100D01*
X245926Y86080D01*
X245979Y85991D01*
X246028Y85900D01*
X246042Y85886D01*
X246052Y85869D01*
X246131Y85802D01*
X246206Y85731D01*
X246224Y85722D01*
X246239Y85709D01*
X246335Y85670D01*
X246429Y85627D01*
X246449Y85625D01*
X246467Y85617D01*
X246634Y85599D01*
X261366Y85599D01*
X261386Y85602D01*
G37*
G36*
X208644Y240732D02*
X208644Y240732D01*
X208715Y240738D01*
X208763Y240758D01*
X208814Y240769D01*
X208875Y240806D01*
X208941Y240834D01*
X208997Y240879D01*
X209025Y240896D01*
X209040Y240913D01*
X209072Y240939D01*
X211104Y242971D01*
X211157Y243045D01*
X211217Y243115D01*
X211229Y243145D01*
X211248Y243171D01*
X211275Y243258D01*
X211309Y243343D01*
X211313Y243384D01*
X211320Y243406D01*
X211319Y243438D01*
X211327Y243509D01*
X211327Y333024D01*
X211325Y333036D01*
X211326Y333044D01*
X211317Y333088D01*
X211316Y333095D01*
X211314Y333166D01*
X211296Y333215D01*
X211288Y333267D01*
X211254Y333330D01*
X211229Y333397D01*
X211197Y333438D01*
X211172Y333484D01*
X211120Y333534D01*
X211076Y333589D01*
X211032Y333618D01*
X210994Y333653D01*
X210929Y333684D01*
X210869Y333722D01*
X210818Y333735D01*
X210771Y333757D01*
X210700Y333765D01*
X210630Y333783D01*
X210578Y333778D01*
X210527Y333784D01*
X210456Y333769D01*
X210385Y333763D01*
X210337Y333743D01*
X210286Y333732D01*
X210225Y333695D01*
X210159Y333667D01*
X210103Y333622D01*
X210075Y333606D01*
X210060Y333588D01*
X210028Y333562D01*
X209675Y333209D01*
X205474Y331469D01*
X200926Y331469D01*
X196725Y333209D01*
X196372Y333562D01*
X196314Y333604D01*
X196262Y333653D01*
X196215Y333675D01*
X196173Y333706D01*
X196104Y333727D01*
X196039Y333757D01*
X195987Y333763D01*
X195937Y333778D01*
X195866Y333776D01*
X195795Y333784D01*
X195744Y333773D01*
X195692Y333772D01*
X195624Y333747D01*
X195554Y333732D01*
X195509Y333705D01*
X195461Y333687D01*
X195405Y333643D01*
X195343Y333606D01*
X195309Y333566D01*
X195269Y333534D01*
X195230Y333473D01*
X195183Y333419D01*
X195164Y333370D01*
X195136Y333327D01*
X195118Y333257D01*
X195091Y333191D01*
X195083Y333119D01*
X195075Y333088D01*
X195077Y333065D01*
X195073Y333024D01*
X195073Y281609D01*
X195087Y281519D01*
X195095Y281428D01*
X195107Y281399D01*
X195112Y281367D01*
X195155Y281286D01*
X195191Y281202D01*
X195217Y281170D01*
X195228Y281149D01*
X195251Y281127D01*
X195296Y281071D01*
X207773Y268594D01*
X207773Y241477D01*
X207784Y241407D01*
X207786Y241335D01*
X207804Y241286D01*
X207812Y241235D01*
X207846Y241171D01*
X207871Y241104D01*
X207903Y241063D01*
X207928Y241017D01*
X207980Y240968D01*
X208024Y240912D01*
X208068Y240884D01*
X208106Y240848D01*
X208171Y240818D01*
X208231Y240779D01*
X208282Y240766D01*
X208329Y240744D01*
X208400Y240736D01*
X208470Y240719D01*
X208522Y240723D01*
X208573Y240717D01*
X208644Y240732D01*
G37*
%LPC*%
G36*
X546759Y550095D02*
X546759Y550095D01*
X544973Y551881D01*
X544973Y572187D01*
X546759Y573973D01*
X567065Y573973D01*
X568851Y572187D01*
X568851Y551881D01*
X567065Y550095D01*
X546759Y550095D01*
G37*
%LPD*%
%LPC*%
G36*
X489513Y550095D02*
X489513Y550095D01*
X485125Y551913D01*
X481767Y555271D01*
X479949Y559659D01*
X479949Y564409D01*
X481767Y568797D01*
X485125Y572155D01*
X489513Y573973D01*
X494263Y573973D01*
X498651Y572155D01*
X502009Y568797D01*
X503827Y564409D01*
X503827Y559659D01*
X502009Y555271D01*
X498651Y551913D01*
X494263Y550095D01*
X489513Y550095D01*
G37*
%LPD*%
%LPC*%
G36*
X531126Y331469D02*
X531126Y331469D01*
X526925Y333210D01*
X523710Y336425D01*
X521969Y340626D01*
X521969Y345174D01*
X523710Y349375D01*
X526925Y352590D01*
X531126Y354331D01*
X535674Y354331D01*
X539875Y352590D01*
X543090Y349375D01*
X544831Y345174D01*
X544831Y340626D01*
X543090Y336425D01*
X539875Y333210D01*
X535674Y331469D01*
X531126Y331469D01*
G37*
%LPD*%
%LPC*%
G36*
X556526Y331469D02*
X556526Y331469D01*
X552325Y333210D01*
X549110Y336425D01*
X547369Y340626D01*
X547369Y345174D01*
X549110Y349375D01*
X552325Y352590D01*
X556526Y354331D01*
X561074Y354331D01*
X565275Y352590D01*
X568490Y349375D01*
X570231Y345174D01*
X570231Y340626D01*
X568490Y336425D01*
X565275Y333210D01*
X561074Y331469D01*
X556526Y331469D01*
G37*
%LPD*%
%LPC*%
G36*
X480326Y179069D02*
X480326Y179069D01*
X476125Y180810D01*
X472910Y184025D01*
X471169Y188226D01*
X471169Y192774D01*
X472910Y196975D01*
X476125Y200190D01*
X480326Y201931D01*
X484874Y201931D01*
X489075Y200190D01*
X492290Y196975D01*
X494031Y192774D01*
X494031Y188226D01*
X492290Y184025D01*
X489075Y180810D01*
X484874Y179069D01*
X480326Y179069D01*
G37*
%LPD*%
%LPC*%
G36*
X226326Y179069D02*
X226326Y179069D01*
X222125Y180810D01*
X218910Y184025D01*
X217169Y188226D01*
X217169Y192774D01*
X218910Y196975D01*
X222125Y200190D01*
X226326Y201931D01*
X230874Y201931D01*
X235075Y200190D01*
X238290Y196975D01*
X240031Y192774D01*
X240031Y188226D01*
X238290Y184025D01*
X235075Y180810D01*
X230874Y179069D01*
X226326Y179069D01*
G37*
%LPD*%
%LPC*%
G36*
X378726Y331469D02*
X378726Y331469D01*
X374525Y333210D01*
X371310Y336425D01*
X369569Y340626D01*
X369569Y345174D01*
X371310Y349375D01*
X374525Y352590D01*
X378726Y354331D01*
X383274Y354331D01*
X387475Y352590D01*
X390690Y349375D01*
X392431Y345174D01*
X392431Y340626D01*
X390690Y336425D01*
X387475Y333210D01*
X383274Y331469D01*
X378726Y331469D01*
G37*
%LPD*%
%LPC*%
G36*
X526033Y568959D02*
X526033Y568959D01*
X526033Y595377D01*
X539751Y595377D01*
X539751Y571166D01*
X539578Y570519D01*
X539243Y569940D01*
X538770Y569467D01*
X538191Y569132D01*
X537544Y568959D01*
X526033Y568959D01*
G37*
%LPD*%
%LPC*%
G36*
X511476Y568959D02*
X511476Y568959D01*
X510829Y569132D01*
X510250Y569467D01*
X509777Y569940D01*
X509442Y570519D01*
X509269Y571166D01*
X509269Y595377D01*
X522987Y595377D01*
X522987Y568959D01*
X511476Y568959D01*
G37*
%LPD*%
%LPC*%
G36*
X558435Y608769D02*
X558435Y608769D01*
X558435Y618578D01*
X559589Y618395D01*
X561300Y617839D01*
X562903Y617022D01*
X564359Y615965D01*
X565631Y614693D01*
X566688Y613237D01*
X567505Y611634D01*
X568061Y609923D01*
X568244Y608769D01*
X558435Y608769D01*
G37*
%LPD*%
%LPC*%
G36*
X493411Y608769D02*
X493411Y608769D01*
X493411Y618578D01*
X494565Y618395D01*
X496276Y617839D01*
X497879Y617022D01*
X499335Y615965D01*
X500607Y614693D01*
X501664Y613237D01*
X502481Y611634D01*
X503037Y609923D01*
X503220Y608769D01*
X493411Y608769D01*
G37*
%LPD*%
%LPC*%
G36*
X558435Y605723D02*
X558435Y605723D01*
X568244Y605723D01*
X568061Y604569D01*
X567505Y602858D01*
X566688Y601255D01*
X565631Y599799D01*
X564359Y598527D01*
X562903Y597470D01*
X561300Y596653D01*
X559589Y596097D01*
X558435Y595914D01*
X558435Y605723D01*
G37*
%LPD*%
%LPC*%
G36*
X480556Y608769D02*
X480556Y608769D01*
X480739Y609923D01*
X481295Y611634D01*
X482112Y613237D01*
X483169Y614693D01*
X484441Y615965D01*
X485897Y617022D01*
X487500Y617839D01*
X489211Y618395D01*
X490365Y618578D01*
X490365Y608769D01*
X480556Y608769D01*
G37*
%LPD*%
%LPC*%
G36*
X493411Y605723D02*
X493411Y605723D01*
X503220Y605723D01*
X503037Y604569D01*
X502481Y602858D01*
X501664Y601255D01*
X500607Y599799D01*
X499335Y598527D01*
X497879Y597470D01*
X496276Y596653D01*
X494565Y596097D01*
X493411Y595914D01*
X493411Y605723D01*
G37*
%LPD*%
%LPC*%
G36*
X545580Y608769D02*
X545580Y608769D01*
X545763Y609923D01*
X546319Y611634D01*
X547136Y613237D01*
X548193Y614693D01*
X549465Y615965D01*
X550921Y617022D01*
X552524Y617839D01*
X554235Y618395D01*
X555389Y618578D01*
X555389Y608769D01*
X545580Y608769D01*
G37*
%LPD*%
%LPC*%
G36*
X489211Y596097D02*
X489211Y596097D01*
X487500Y596653D01*
X485897Y597470D01*
X484441Y598527D01*
X483169Y599799D01*
X482112Y601255D01*
X481295Y602858D01*
X480739Y604569D01*
X480556Y605723D01*
X490365Y605723D01*
X490365Y595914D01*
X489211Y596097D01*
G37*
%LPD*%
%LPC*%
G36*
X554235Y596097D02*
X554235Y596097D01*
X552524Y596653D01*
X550921Y597470D01*
X549465Y598527D01*
X548193Y599799D01*
X547136Y601255D01*
X546319Y602858D01*
X545763Y604569D01*
X545580Y605723D01*
X555389Y605723D01*
X555389Y595914D01*
X554235Y596097D01*
G37*
%LPD*%
%LPC*%
G36*
X560323Y192023D02*
X560323Y192023D01*
X560323Y201318D01*
X561358Y201154D01*
X562993Y200622D01*
X564525Y199842D01*
X565916Y198831D01*
X567131Y197616D01*
X568142Y196225D01*
X568922Y194693D01*
X569454Y193058D01*
X569618Y192023D01*
X560323Y192023D01*
G37*
%LPD*%
%LPC*%
G36*
X547982Y192023D02*
X547982Y192023D01*
X548146Y193058D01*
X548678Y194693D01*
X549458Y196225D01*
X550469Y197616D01*
X551684Y198831D01*
X553075Y199842D01*
X554607Y200622D01*
X556242Y201154D01*
X557277Y201318D01*
X557277Y192023D01*
X547982Y192023D01*
G37*
%LPD*%
%LPC*%
G36*
X560323Y188977D02*
X560323Y188977D01*
X569618Y188977D01*
X569454Y187942D01*
X568922Y186307D01*
X568142Y184775D01*
X567131Y183384D01*
X565916Y182169D01*
X564525Y181158D01*
X562993Y180378D01*
X561358Y179846D01*
X560323Y179682D01*
X560323Y188977D01*
G37*
%LPD*%
%LPC*%
G36*
X556242Y179846D02*
X556242Y179846D01*
X554607Y180378D01*
X553075Y181158D01*
X551684Y182169D01*
X550469Y183384D01*
X549458Y184775D01*
X548678Y186307D01*
X548146Y187942D01*
X547982Y188977D01*
X557277Y188977D01*
X557277Y179682D01*
X556242Y179846D01*
G37*
%LPD*%
%LPC*%
G36*
X558799Y190499D02*
X558799Y190499D01*
X558799Y190501D01*
X558801Y190501D01*
X558801Y190499D01*
X558799Y190499D01*
G37*
%LPD*%
%LPC*%
G36*
X556911Y607245D02*
X556911Y607245D01*
X556911Y607247D01*
X556913Y607247D01*
X556913Y607245D01*
X556911Y607245D01*
G37*
%LPD*%
%LPC*%
G36*
X491887Y607245D02*
X491887Y607245D01*
X491887Y607247D01*
X491889Y607247D01*
X491889Y607245D01*
X491887Y607245D01*
G37*
%LPD*%
D10*
X38100Y44450D03*
X63500Y44450D03*
X88900Y44450D03*
X114300Y44450D03*
X139700Y44450D03*
X165100Y44450D03*
X190500Y44450D03*
X215900Y44450D03*
X241300Y44450D03*
X266700Y44450D03*
X292100Y44450D03*
X317500Y44450D03*
X342900Y44450D03*
X368300Y44450D03*
X393700Y44450D03*
X419100Y44450D03*
X444500Y44450D03*
X469900Y44450D03*
X495300Y44450D03*
X520700Y44450D03*
X546100Y44450D03*
X571500Y44450D03*
D11*
X177800Y190500D03*
D12*
X203200Y190500D03*
X228600Y190500D03*
X254000Y190500D03*
X279400Y190500D03*
X304800Y190500D03*
X330200Y190500D03*
X355600Y190500D03*
X381000Y190500D03*
X406400Y190500D03*
X431800Y190500D03*
X457200Y190500D03*
X482600Y190500D03*
X508000Y190500D03*
X533400Y190500D03*
X558800Y190500D03*
X558800Y342900D03*
X533400Y342900D03*
X508000Y342900D03*
X482600Y342900D03*
X457200Y342900D03*
X431800Y342900D03*
X406400Y342900D03*
X381000Y342900D03*
X355600Y342900D03*
X330200Y342900D03*
X304800Y342900D03*
X279400Y342900D03*
X254000Y342900D03*
X228600Y342900D03*
X203200Y342900D03*
X177800Y342900D03*
D13*
X556912Y562034D03*
D14*
X556912Y607246D03*
X491888Y562034D03*
X491888Y607246D03*
D15*
X212090Y482600D03*
X196850Y482600D03*
X181610Y482600D03*
D16*
X524510Y596900D03*
D17*
X431800Y114300D03*
X457200Y114300D03*
X533400Y114300D03*
X406400Y114300D03*
X381000Y114300D03*
X355600Y114300D03*
X330200Y114300D03*
X279400Y139700D03*
X279400Y317500D03*
X203200Y317500D03*
X254000Y114300D03*
X203200Y114300D03*
X165100Y114300D03*
X114300Y114300D03*
X304800Y215900D03*
X317500Y298450D03*
X400050Y298450D03*
X381000Y215900D03*
X406400Y215900D03*
X431800Y215900D03*
X457200Y215900D03*
X482600Y114300D03*
X508000Y114300D03*
X508000Y165100D03*
X508000Y88900D03*
X482600Y88900D03*
X457200Y88900D03*
X431800Y88900D03*
X406400Y88900D03*
X381000Y88900D03*
X279400Y88900D03*
X355600Y88900D03*
X520700Y266700D03*
X260350Y425450D03*
X215900Y215900D03*
X304800Y139700D03*
X241300Y381000D03*
X355600Y215900D03*
X247650Y215900D03*
X584200Y101600D03*
X25400Y101600D03*
D18*
X571500Y95250D02*
X571500Y44450D01*
X571500Y95250D02*
X577850Y101600D01*
X584200Y101600D01*
X38100Y95250D02*
X38100Y44450D01*
X38100Y95250D02*
X31750Y101600D01*
X25400Y101600D01*
D17*
X222250Y463550D03*
X158750Y419100D03*
X339090Y359410D03*
X165100Y381000D03*
X279400Y215900D03*
X406400Y361950D03*
X520700Y374650D03*
X304800Y539750D03*
X571500Y444500D03*
X76200Y190500D03*
X78740Y330200D03*
X400050Y427990D03*
X368300Y393700D03*
X546100Y361950D03*
X222250Y438150D03*
X127000Y342900D03*
X215900Y374650D03*
X254000Y139700D03*
X215900Y165100D03*
X565150Y266700D03*
X444500Y486410D03*
X165100Y168910D03*
X228600Y317500D03*
X123190Y196850D03*
X482600Y215900D03*
X304800Y101600D03*
X368300Y596900D03*
X63500Y406400D03*
X38100Y482600D03*
X101600Y368300D03*
X342900Y457200D03*
X495300Y520700D03*
X558800Y152400D03*
X50800Y139700D03*
X419100Y520700D03*
X152400Y546100D03*
X127000Y444500D03*
X584200Y190500D03*
X558800Y508000D03*
X165100Y228600D03*
X50800Y609600D03*
X181610Y444500D03*
D18*
X181610Y482600D01*
D19*
X139700Y152400D02*
X139700Y44450D01*
X107950Y184150D02*
X107950Y209550D01*
D17*
X107950Y209550D03*
D19*
X107950Y184150D02*
X139700Y152400D01*
X457200Y177800D02*
X457200Y190500D01*
X457200Y177800D02*
X546100Y88900D01*
X546100Y44450D01*
X431800Y177800D02*
X431800Y190500D01*
X431800Y177800D02*
X520700Y88900D01*
X520700Y44450D01*
X406400Y177800D02*
X406400Y190500D01*
X406400Y177800D02*
X495300Y88900D01*
X495300Y44450D01*
X381000Y177800D02*
X381000Y190500D01*
X381000Y177800D02*
X469900Y88900D01*
X469900Y44450D01*
X355600Y177800D02*
X355600Y190500D01*
X355600Y177800D02*
X444500Y88900D01*
X444500Y44450D01*
X330200Y177800D02*
X330200Y190500D01*
X330200Y177800D02*
X419100Y88900D01*
X419100Y44450D01*
X304800Y177800D02*
X304800Y190500D01*
X304800Y177800D02*
X393700Y88900D01*
X393700Y44450D01*
X279400Y177800D02*
X279400Y190500D01*
X279400Y177800D02*
X368300Y88900D01*
X368300Y44450D01*
X342900Y44450D02*
X342900Y88900D01*
D17*
X342900Y88900D03*
X317500Y88900D03*
D19*
X317500Y44450D01*
X406400Y330200D02*
X406400Y342900D01*
X406400Y330200D02*
X317500Y241300D01*
D17*
X304800Y127000D03*
D19*
X292100Y114300D01*
X292100Y44450D01*
X317500Y215900D02*
X317500Y241300D01*
D17*
X317500Y215900D03*
D19*
X266700Y215900D02*
X266700Y44450D01*
X266700Y215900D02*
X355600Y304800D01*
X355600Y342900D01*
X254000Y152400D02*
X241300Y139700D01*
X241300Y44450D01*
X254000Y152400D02*
X254000Y190500D01*
X203200Y228600D02*
X215900Y241300D01*
X203200Y228600D02*
X203200Y190500D01*
X215900Y241300D02*
X215900Y355600D01*
X234950Y393700D02*
X330200Y393700D01*
D17*
X495300Y482374D03*
D19*
X406400Y469900D02*
X330200Y393700D01*
X406400Y469900D02*
X457200Y469900D01*
X469900Y482600D01*
X495074Y482600D01*
X495300Y482374D01*
X228600Y368300D02*
X215900Y355600D01*
X228600Y368300D02*
X228600Y387350D01*
X234950Y393700D01*
D17*
X219986Y389614D03*
D18*
X196850Y412750D01*
D17*
X196850Y412750D03*
X196850Y444500D03*
D18*
X196850Y482600D01*
D17*
X139700Y203200D03*
D19*
X152400Y190500D01*
X152400Y165100D01*
X190500Y127000D01*
X190500Y88900D01*
D17*
X190500Y88900D03*
X190500Y361950D03*
D19*
X190500Y311150D01*
X190500Y279400D01*
X203200Y266700D01*
X203200Y241300D01*
X190500Y228600D01*
X190500Y152400D01*
X228600Y114300D01*
D17*
X228600Y114300D03*
D19*
X190500Y311150D02*
X152400Y311150D01*
D17*
X152400Y311150D03*
X127000Y317500D03*
D19*
X44450Y317500D01*
X31750Y304800D01*
X31750Y285750D01*
D17*
X31750Y285750D03*
D19*
X101600Y406400D02*
X177800Y406400D01*
X247650Y476250D01*
X101600Y406400D02*
X50800Y361950D01*
X50800Y349250D01*
D17*
X50800Y349250D03*
X514350Y482600D03*
D19*
X450850Y476250D02*
X247650Y476250D01*
X450850Y476250D02*
X469900Y495300D01*
X501650Y495300D01*
X514350Y482600D01*
D17*
X495300Y241300D03*
D19*
X444500Y292100D01*
D17*
X444500Y374650D03*
D19*
X444500Y292100D01*
X469900Y292100D02*
X508000Y254000D01*
X508000Y190500D01*
D17*
X469900Y374650D03*
D19*
X469900Y292100D01*
X533400Y279400D02*
X533400Y190500D01*
X533400Y279400D02*
X495300Y317500D01*
X495300Y368300D02*
X488950Y374650D01*
D17*
X488950Y374650D03*
D19*
X495300Y368300D02*
X495300Y317500D01*
D17*
X450850Y444500D03*
D19*
X450850Y419100D01*
X457200Y412750D01*
X457200Y361950D01*
D17*
X457200Y361950D03*
X190500Y254000D03*
D19*
X146050Y254000D02*
X127000Y254000D01*
X146050Y254000D02*
X190500Y254000D01*
D17*
X228600Y254000D03*
D19*
X241300Y266700D01*
X241300Y355600D01*
X260350Y374650D01*
X273050Y374650D01*
D17*
X273050Y374650D03*
X139700Y393700D03*
D19*
X88900Y215900D02*
X88900Y44450D01*
X88900Y215900D02*
X127000Y254000D01*
X139700Y298450D02*
X139700Y393700D01*
X139700Y298450D02*
X146050Y292100D01*
X146050Y254000D01*
X342900Y330200D02*
X342900Y349250D01*
X342900Y330200D02*
X330200Y317500D01*
X292100Y317500D01*
X279400Y330200D01*
X279400Y342900D01*
D17*
X387350Y374650D03*
D19*
X368300Y355600D01*
X349250Y355600D02*
X342900Y349250D01*
X349250Y355600D02*
X368300Y355600D01*
X317500Y355600D02*
X374650Y412750D01*
X317500Y355600D02*
X266700Y355600D01*
X254000Y342900D01*
X374650Y412750D02*
X412750Y412750D01*
D17*
X412750Y412750D03*
X234950Y482600D03*
D19*
X212090Y482600D01*
M02*
