G04 EAGLE Gerber RS-274X export*
G75*
%MOMM*%
%FSLAX34Y34*%
%LPD*%
%INTop Solder Mask*%
%IPPOS*%
%AMOC8*
5,1,8,0,0,1.08239X$1,22.5*%
G01*
%ADD10C,4.800600*%
%ADD11R,2.133600X7.721600*%
%ADD12R,59.690000X8.890000*%
%ADD13R,1.778000X1.778000*%
%ADD14C,1.778000*%
%ADD15R,2.133600X0.762000*%
%ADD16R,0.762000X2.133600*%
%ADD17R,1.401600X1.601600*%
%ADD18R,1.879600X1.879600*%
%ADD19C,1.879600*%
%ADD20R,1.401600X1.701600*%
%ADD21R,1.701600X1.401600*%
%ADD22R,2.641600X5.181600*%


D10*
X304800Y433070D03*
D11*
X571500Y44450D03*
X546100Y44450D03*
X520700Y44450D03*
X495300Y44450D03*
X469900Y44450D03*
X444500Y44450D03*
X419100Y44450D03*
X393700Y44450D03*
X368300Y44450D03*
X342900Y44450D03*
X317500Y44450D03*
X292100Y44450D03*
X266700Y44450D03*
X241300Y44450D03*
X215900Y44450D03*
X190500Y44450D03*
X165100Y44450D03*
X139700Y44450D03*
X114300Y44450D03*
X88900Y44450D03*
X63500Y44450D03*
X38100Y44450D03*
D12*
X304800Y40640D03*
D13*
X177800Y190500D03*
D14*
X203200Y190500D03*
X228600Y190500D03*
X254000Y190500D03*
X279400Y190500D03*
X304800Y190500D03*
X330200Y190500D03*
X355600Y190500D03*
X381000Y190500D03*
X406400Y190500D03*
X431800Y190500D03*
X457200Y190500D03*
X482600Y190500D03*
X508000Y190500D03*
X533400Y190500D03*
X558800Y190500D03*
X558800Y342900D03*
X533400Y342900D03*
X508000Y342900D03*
X482600Y342900D03*
X457200Y342900D03*
X431800Y342900D03*
X406400Y342900D03*
X381000Y342900D03*
X355600Y342900D03*
X330200Y342900D03*
X304800Y342900D03*
X279400Y342900D03*
X254000Y342900D03*
X228600Y342900D03*
X203200Y342900D03*
X177800Y342900D03*
D15*
X51816Y304800D03*
X113284Y304800D03*
X51816Y292100D03*
X51816Y279400D03*
X113284Y292100D03*
X113284Y279400D03*
X51816Y266700D03*
X113284Y266700D03*
X51816Y254000D03*
X51816Y241300D03*
X113284Y254000D03*
X113284Y241300D03*
X51816Y228600D03*
X113284Y228600D03*
D16*
X425450Y401066D03*
X425450Y462534D03*
X438150Y401066D03*
X450850Y401066D03*
X438150Y462534D03*
X450850Y462534D03*
X463550Y401066D03*
X463550Y462534D03*
X476250Y401066D03*
X476250Y462534D03*
X488950Y401066D03*
X501650Y401066D03*
X488950Y462534D03*
X501650Y462534D03*
X514350Y401066D03*
X514350Y462534D03*
D17*
X168300Y152400D03*
X187300Y152400D03*
D18*
X556912Y562034D03*
D19*
X556912Y607246D03*
X491888Y562034D03*
X491888Y607246D03*
D20*
X91600Y330200D03*
X111600Y330200D03*
D21*
X400050Y440850D03*
X400050Y460850D03*
D22*
X524510Y596900D03*
M02*
