G04 EAGLE Gerber RS-274X export*
G75*
%MOMM*%
%FSLAX34Y34*%
%LPD*%
%INTop Silkscreen*%
%IPPOS*%
%AMOC8*
5,1,8,0,0,1.08239X$1,22.5*%
G01*
%ADD10C,0.203200*%
%ADD11C,0.152400*%
%ADD12C,0.127000*%
%ADD13C,0.050800*%


D10*
X43431Y589021D02*
X41061Y589021D01*
X40966Y589023D01*
X40870Y589029D01*
X40775Y589038D01*
X40681Y589052D01*
X40587Y589069D01*
X40494Y589090D01*
X40401Y589115D01*
X40310Y589143D01*
X40220Y589175D01*
X40132Y589211D01*
X40045Y589250D01*
X39959Y589293D01*
X39875Y589339D01*
X39794Y589388D01*
X39714Y589441D01*
X39637Y589497D01*
X39561Y589555D01*
X39489Y589617D01*
X39419Y589682D01*
X39351Y589750D01*
X39286Y589820D01*
X39224Y589892D01*
X39166Y589968D01*
X39110Y590045D01*
X39057Y590125D01*
X39008Y590207D01*
X38962Y590290D01*
X38919Y590376D01*
X38880Y590463D01*
X38844Y590551D01*
X38812Y590641D01*
X38784Y590732D01*
X38759Y590825D01*
X38738Y590918D01*
X38721Y591012D01*
X38707Y591106D01*
X38698Y591201D01*
X38692Y591297D01*
X38690Y591392D01*
X38690Y597318D01*
X38692Y597413D01*
X38698Y597509D01*
X38707Y597604D01*
X38721Y597698D01*
X38738Y597792D01*
X38759Y597885D01*
X38784Y597978D01*
X38812Y598069D01*
X38844Y598159D01*
X38880Y598247D01*
X38919Y598334D01*
X38962Y598420D01*
X39008Y598503D01*
X39057Y598585D01*
X39110Y598665D01*
X39166Y598742D01*
X39224Y598818D01*
X39286Y598890D01*
X39351Y598960D01*
X39419Y599028D01*
X39489Y599093D01*
X39561Y599155D01*
X39637Y599213D01*
X39714Y599269D01*
X39794Y599322D01*
X39875Y599371D01*
X39959Y599417D01*
X40045Y599460D01*
X40132Y599499D01*
X40220Y599535D01*
X40310Y599567D01*
X40401Y599595D01*
X40494Y599620D01*
X40587Y599641D01*
X40681Y599658D01*
X40775Y599672D01*
X40870Y599681D01*
X40965Y599687D01*
X41061Y599689D01*
X43431Y599689D01*
X48265Y594948D02*
X51821Y594948D01*
X51916Y594946D01*
X52012Y594940D01*
X52107Y594931D01*
X52201Y594917D01*
X52295Y594900D01*
X52388Y594879D01*
X52481Y594854D01*
X52572Y594826D01*
X52662Y594794D01*
X52750Y594758D01*
X52837Y594719D01*
X52923Y594676D01*
X53007Y594630D01*
X53088Y594581D01*
X53168Y594528D01*
X53245Y594472D01*
X53321Y594414D01*
X53393Y594352D01*
X53463Y594287D01*
X53531Y594219D01*
X53596Y594149D01*
X53658Y594077D01*
X53716Y594001D01*
X53772Y593924D01*
X53825Y593844D01*
X53874Y593763D01*
X53920Y593679D01*
X53963Y593593D01*
X54002Y593506D01*
X54038Y593418D01*
X54070Y593328D01*
X54098Y593237D01*
X54123Y593144D01*
X54144Y593051D01*
X54161Y592957D01*
X54175Y592863D01*
X54184Y592768D01*
X54190Y592672D01*
X54192Y592577D01*
X54192Y591984D01*
X54191Y591984D02*
X54189Y591877D01*
X54183Y591770D01*
X54174Y591664D01*
X54160Y591558D01*
X54143Y591452D01*
X54122Y591347D01*
X54097Y591243D01*
X54068Y591140D01*
X54036Y591038D01*
X54000Y590937D01*
X53960Y590838D01*
X53917Y590740D01*
X53870Y590644D01*
X53820Y590549D01*
X53767Y590456D01*
X53710Y590366D01*
X53650Y590277D01*
X53587Y590191D01*
X53521Y590107D01*
X53451Y590025D01*
X53379Y589946D01*
X53304Y589870D01*
X53226Y589796D01*
X53146Y589726D01*
X53063Y589658D01*
X52978Y589593D01*
X52891Y589532D01*
X52801Y589473D01*
X52709Y589418D01*
X52616Y589366D01*
X52520Y589318D01*
X52423Y589273D01*
X52325Y589231D01*
X52225Y589194D01*
X52123Y589159D01*
X52021Y589129D01*
X51917Y589102D01*
X51813Y589079D01*
X51707Y589060D01*
X51601Y589045D01*
X51495Y589033D01*
X51388Y589025D01*
X51281Y589021D01*
X51175Y589021D01*
X51068Y589025D01*
X50961Y589033D01*
X50855Y589045D01*
X50749Y589060D01*
X50643Y589079D01*
X50539Y589102D01*
X50435Y589129D01*
X50333Y589159D01*
X50231Y589194D01*
X50131Y589231D01*
X50033Y589273D01*
X49936Y589318D01*
X49840Y589366D01*
X49746Y589418D01*
X49655Y589473D01*
X49565Y589532D01*
X49478Y589593D01*
X49393Y589658D01*
X49310Y589726D01*
X49230Y589796D01*
X49152Y589870D01*
X49077Y589946D01*
X49005Y590025D01*
X48935Y590107D01*
X48869Y590191D01*
X48806Y590277D01*
X48746Y590366D01*
X48689Y590456D01*
X48636Y590549D01*
X48586Y590644D01*
X48539Y590740D01*
X48496Y590838D01*
X48456Y590937D01*
X48420Y591038D01*
X48388Y591140D01*
X48359Y591243D01*
X48334Y591347D01*
X48313Y591452D01*
X48296Y591558D01*
X48282Y591664D01*
X48273Y591770D01*
X48267Y591877D01*
X48265Y591984D01*
X48265Y594948D01*
X48267Y595083D01*
X48273Y595219D01*
X48282Y595354D01*
X48296Y595488D01*
X48313Y595623D01*
X48334Y595756D01*
X48359Y595890D01*
X48388Y596022D01*
X48421Y596153D01*
X48457Y596284D01*
X48497Y596413D01*
X48541Y596541D01*
X48588Y596668D01*
X48639Y596794D01*
X48693Y596917D01*
X48751Y597040D01*
X48813Y597160D01*
X48878Y597279D01*
X48946Y597396D01*
X49018Y597511D01*
X49092Y597624D01*
X49170Y597735D01*
X49252Y597843D01*
X49336Y597949D01*
X49423Y598053D01*
X49513Y598154D01*
X49606Y598252D01*
X49702Y598348D01*
X49800Y598441D01*
X49901Y598531D01*
X50005Y598618D01*
X50111Y598702D01*
X50219Y598784D01*
X50330Y598862D01*
X50443Y598936D01*
X50558Y599008D01*
X50675Y599076D01*
X50794Y599141D01*
X50914Y599203D01*
X51036Y599261D01*
X51160Y599315D01*
X51286Y599366D01*
X51413Y599413D01*
X51541Y599457D01*
X51670Y599497D01*
X51801Y599533D01*
X51932Y599566D01*
X52064Y599595D01*
X52198Y599620D01*
X52331Y599641D01*
X52466Y599658D01*
X52600Y599672D01*
X52735Y599681D01*
X52871Y599687D01*
X53006Y599689D01*
X62066Y599689D02*
X59695Y591392D01*
X65622Y591392D01*
X63844Y593762D02*
X63844Y589021D01*
X79542Y589021D02*
X81912Y589021D01*
X79542Y589021D02*
X79447Y589023D01*
X79351Y589029D01*
X79256Y589038D01*
X79162Y589052D01*
X79068Y589069D01*
X78975Y589090D01*
X78882Y589115D01*
X78791Y589143D01*
X78701Y589175D01*
X78613Y589211D01*
X78526Y589250D01*
X78440Y589293D01*
X78356Y589339D01*
X78275Y589388D01*
X78195Y589441D01*
X78118Y589497D01*
X78042Y589555D01*
X77970Y589617D01*
X77900Y589682D01*
X77832Y589750D01*
X77767Y589820D01*
X77705Y589892D01*
X77647Y589968D01*
X77591Y590045D01*
X77538Y590125D01*
X77489Y590207D01*
X77443Y590290D01*
X77400Y590376D01*
X77361Y590463D01*
X77325Y590551D01*
X77293Y590641D01*
X77265Y590732D01*
X77240Y590825D01*
X77219Y590918D01*
X77202Y591012D01*
X77188Y591106D01*
X77179Y591201D01*
X77173Y591297D01*
X77171Y591392D01*
X77171Y597318D01*
X77173Y597413D01*
X77179Y597509D01*
X77188Y597604D01*
X77202Y597698D01*
X77219Y597792D01*
X77240Y597885D01*
X77265Y597978D01*
X77293Y598069D01*
X77325Y598159D01*
X77361Y598247D01*
X77400Y598334D01*
X77443Y598420D01*
X77489Y598503D01*
X77538Y598585D01*
X77591Y598665D01*
X77647Y598742D01*
X77705Y598818D01*
X77767Y598890D01*
X77832Y598960D01*
X77900Y599028D01*
X77970Y599093D01*
X78042Y599155D01*
X78118Y599213D01*
X78195Y599269D01*
X78275Y599322D01*
X78356Y599371D01*
X78440Y599417D01*
X78526Y599460D01*
X78613Y599499D01*
X78701Y599535D01*
X78791Y599567D01*
X78882Y599595D01*
X78975Y599620D01*
X79068Y599641D01*
X79162Y599658D01*
X79256Y599672D01*
X79351Y599681D01*
X79446Y599687D01*
X79542Y599689D01*
X81912Y599689D01*
X88562Y593170D02*
X91229Y593170D01*
X88562Y593169D02*
X88473Y593167D01*
X88384Y593161D01*
X88295Y593152D01*
X88207Y593138D01*
X88119Y593121D01*
X88032Y593100D01*
X87947Y593076D01*
X87862Y593047D01*
X87779Y593015D01*
X87697Y592980D01*
X87616Y592941D01*
X87538Y592899D01*
X87461Y592853D01*
X87387Y592804D01*
X87314Y592752D01*
X87244Y592696D01*
X87176Y592638D01*
X87111Y592577D01*
X87049Y592513D01*
X86989Y592447D01*
X86933Y592378D01*
X86879Y592307D01*
X86828Y592233D01*
X86781Y592158D01*
X86737Y592080D01*
X86696Y592001D01*
X86659Y591920D01*
X86625Y591837D01*
X86595Y591753D01*
X86569Y591668D01*
X86546Y591581D01*
X86527Y591494D01*
X86511Y591406D01*
X86500Y591318D01*
X86492Y591229D01*
X86488Y591140D01*
X86488Y591050D01*
X86492Y590961D01*
X86500Y590872D01*
X86511Y590784D01*
X86527Y590696D01*
X86546Y590609D01*
X86569Y590522D01*
X86595Y590437D01*
X86625Y590353D01*
X86659Y590270D01*
X86696Y590189D01*
X86737Y590110D01*
X86781Y590032D01*
X86828Y589957D01*
X86879Y589883D01*
X86933Y589812D01*
X86989Y589743D01*
X87049Y589677D01*
X87111Y589613D01*
X87176Y589552D01*
X87244Y589494D01*
X87314Y589438D01*
X87387Y589386D01*
X87461Y589337D01*
X87538Y589291D01*
X87616Y589249D01*
X87697Y589210D01*
X87779Y589175D01*
X87862Y589143D01*
X87947Y589114D01*
X88032Y589090D01*
X88119Y589069D01*
X88207Y589052D01*
X88295Y589038D01*
X88384Y589029D01*
X88473Y589023D01*
X88562Y589021D01*
X91229Y589021D01*
X91229Y594355D01*
X91227Y594437D01*
X91221Y594519D01*
X91212Y594601D01*
X91199Y594682D01*
X91182Y594762D01*
X91161Y594842D01*
X91137Y594920D01*
X91109Y594997D01*
X91078Y595073D01*
X91043Y595148D01*
X91004Y595220D01*
X90963Y595291D01*
X90918Y595360D01*
X90870Y595426D01*
X90819Y595491D01*
X90765Y595553D01*
X90708Y595612D01*
X90649Y595669D01*
X90587Y595723D01*
X90522Y595774D01*
X90456Y595822D01*
X90387Y595867D01*
X90316Y595908D01*
X90244Y595947D01*
X90169Y595982D01*
X90093Y596013D01*
X90016Y596041D01*
X89938Y596065D01*
X89858Y596086D01*
X89778Y596103D01*
X89697Y596116D01*
X89615Y596125D01*
X89533Y596131D01*
X89451Y596133D01*
X87081Y596133D01*
X97344Y596133D02*
X97344Y589021D01*
X97344Y596133D02*
X100900Y596133D01*
X100900Y594948D01*
X103795Y596133D02*
X107351Y596133D01*
X104980Y599689D02*
X104980Y590799D01*
X104982Y590717D01*
X104988Y590635D01*
X104997Y590553D01*
X105010Y590472D01*
X105027Y590392D01*
X105048Y590312D01*
X105072Y590234D01*
X105100Y590157D01*
X105131Y590081D01*
X105166Y590006D01*
X105205Y589934D01*
X105246Y589863D01*
X105291Y589794D01*
X105339Y589728D01*
X105390Y589663D01*
X105444Y589601D01*
X105501Y589542D01*
X105560Y589485D01*
X105622Y589431D01*
X105687Y589380D01*
X105753Y589332D01*
X105822Y589287D01*
X105893Y589246D01*
X105965Y589207D01*
X106040Y589172D01*
X106116Y589141D01*
X106193Y589113D01*
X106271Y589089D01*
X106351Y589068D01*
X106431Y589051D01*
X106512Y589038D01*
X106594Y589029D01*
X106676Y589023D01*
X106758Y589021D01*
X107351Y589021D01*
X112584Y589021D02*
X112584Y596133D01*
X116140Y596133D01*
X116140Y594948D01*
X119808Y596133D02*
X119808Y589021D01*
X119512Y599096D02*
X119512Y599689D01*
X120104Y599689D01*
X120104Y599096D01*
X119512Y599096D01*
X129329Y599689D02*
X129329Y589021D01*
X126366Y589021D01*
X126284Y589023D01*
X126202Y589029D01*
X126120Y589038D01*
X126039Y589051D01*
X125959Y589068D01*
X125879Y589089D01*
X125801Y589113D01*
X125724Y589141D01*
X125648Y589172D01*
X125573Y589207D01*
X125501Y589246D01*
X125430Y589287D01*
X125361Y589332D01*
X125295Y589380D01*
X125230Y589431D01*
X125168Y589485D01*
X125109Y589542D01*
X125052Y589601D01*
X124998Y589663D01*
X124947Y589728D01*
X124899Y589794D01*
X124854Y589863D01*
X124813Y589934D01*
X124774Y590006D01*
X124739Y590081D01*
X124708Y590157D01*
X124680Y590234D01*
X124656Y590312D01*
X124635Y590392D01*
X124618Y590472D01*
X124605Y590553D01*
X124596Y590635D01*
X124590Y590717D01*
X124588Y590799D01*
X124588Y594355D01*
X124590Y594437D01*
X124596Y594519D01*
X124605Y594601D01*
X124618Y594682D01*
X124635Y594762D01*
X124656Y594842D01*
X124680Y594920D01*
X124708Y594997D01*
X124739Y595073D01*
X124774Y595148D01*
X124813Y595220D01*
X124854Y595291D01*
X124899Y595360D01*
X124947Y595426D01*
X124998Y595491D01*
X125052Y595553D01*
X125109Y595612D01*
X125168Y595669D01*
X125230Y595723D01*
X125295Y595774D01*
X125361Y595822D01*
X125430Y595867D01*
X125501Y595908D01*
X125573Y595947D01*
X125648Y595982D01*
X125724Y596013D01*
X125801Y596041D01*
X125879Y596065D01*
X125959Y596086D01*
X126039Y596103D01*
X126120Y596116D01*
X126202Y596125D01*
X126284Y596131D01*
X126366Y596133D01*
X129329Y596133D01*
X136653Y589021D02*
X139616Y589021D01*
X136653Y589021D02*
X136571Y589023D01*
X136489Y589029D01*
X136407Y589038D01*
X136326Y589051D01*
X136246Y589068D01*
X136166Y589089D01*
X136088Y589113D01*
X136011Y589141D01*
X135935Y589172D01*
X135860Y589207D01*
X135788Y589246D01*
X135717Y589287D01*
X135648Y589332D01*
X135582Y589380D01*
X135517Y589431D01*
X135455Y589485D01*
X135396Y589542D01*
X135339Y589601D01*
X135285Y589663D01*
X135234Y589728D01*
X135186Y589794D01*
X135141Y589863D01*
X135100Y589934D01*
X135061Y590006D01*
X135026Y590081D01*
X134995Y590157D01*
X134967Y590234D01*
X134943Y590312D01*
X134922Y590392D01*
X134905Y590472D01*
X134892Y590553D01*
X134883Y590635D01*
X134877Y590717D01*
X134875Y590799D01*
X134875Y594355D01*
X134877Y594437D01*
X134883Y594519D01*
X134892Y594601D01*
X134905Y594682D01*
X134922Y594762D01*
X134943Y594842D01*
X134967Y594920D01*
X134995Y594997D01*
X135026Y595073D01*
X135061Y595148D01*
X135100Y595220D01*
X135141Y595291D01*
X135186Y595360D01*
X135234Y595426D01*
X135285Y595491D01*
X135339Y595553D01*
X135396Y595612D01*
X135455Y595669D01*
X135517Y595723D01*
X135582Y595774D01*
X135648Y595822D01*
X135717Y595867D01*
X135788Y595908D01*
X135860Y595947D01*
X135935Y595982D01*
X136011Y596013D01*
X136088Y596041D01*
X136166Y596065D01*
X136246Y596086D01*
X136326Y596103D01*
X136407Y596116D01*
X136489Y596125D01*
X136571Y596131D01*
X136653Y596133D01*
X139616Y596133D01*
X139616Y587243D01*
X139614Y587161D01*
X139608Y587079D01*
X139599Y586997D01*
X139586Y586916D01*
X139569Y586836D01*
X139548Y586756D01*
X139524Y586678D01*
X139496Y586601D01*
X139465Y586525D01*
X139430Y586450D01*
X139391Y586378D01*
X139350Y586307D01*
X139305Y586238D01*
X139257Y586172D01*
X139206Y586107D01*
X139152Y586045D01*
X139095Y585986D01*
X139036Y585929D01*
X138974Y585875D01*
X138909Y585824D01*
X138843Y585776D01*
X138774Y585731D01*
X138703Y585690D01*
X138631Y585651D01*
X138556Y585616D01*
X138480Y585585D01*
X138403Y585557D01*
X138325Y585533D01*
X138245Y585512D01*
X138165Y585495D01*
X138084Y585482D01*
X138002Y585473D01*
X137920Y585467D01*
X137838Y585465D01*
X135468Y585465D01*
X147028Y589021D02*
X149992Y589021D01*
X147028Y589021D02*
X146946Y589023D01*
X146864Y589029D01*
X146782Y589038D01*
X146701Y589051D01*
X146621Y589068D01*
X146541Y589089D01*
X146463Y589113D01*
X146386Y589141D01*
X146310Y589172D01*
X146235Y589207D01*
X146163Y589246D01*
X146092Y589287D01*
X146023Y589332D01*
X145957Y589380D01*
X145892Y589431D01*
X145830Y589485D01*
X145771Y589542D01*
X145714Y589601D01*
X145660Y589663D01*
X145609Y589728D01*
X145561Y589794D01*
X145516Y589863D01*
X145475Y589934D01*
X145436Y590006D01*
X145401Y590081D01*
X145370Y590157D01*
X145342Y590234D01*
X145318Y590312D01*
X145297Y590392D01*
X145280Y590472D01*
X145267Y590553D01*
X145258Y590635D01*
X145252Y590717D01*
X145250Y590799D01*
X145250Y593762D01*
X145252Y593859D01*
X145258Y593955D01*
X145268Y594051D01*
X145282Y594147D01*
X145299Y594242D01*
X145321Y594337D01*
X145346Y594430D01*
X145375Y594522D01*
X145408Y594613D01*
X145445Y594703D01*
X145485Y594791D01*
X145529Y594877D01*
X145576Y594961D01*
X145626Y595044D01*
X145680Y595124D01*
X145738Y595202D01*
X145798Y595278D01*
X145861Y595351D01*
X145927Y595421D01*
X145997Y595489D01*
X146068Y595554D01*
X146143Y595616D01*
X146220Y595674D01*
X146299Y595730D01*
X146380Y595782D01*
X146464Y595831D01*
X146549Y595877D01*
X146636Y595919D01*
X146725Y595957D01*
X146815Y595992D01*
X146907Y596023D01*
X147000Y596050D01*
X147093Y596074D01*
X147188Y596093D01*
X147284Y596109D01*
X147380Y596121D01*
X147476Y596129D01*
X147573Y596133D01*
X147669Y596133D01*
X147766Y596129D01*
X147862Y596121D01*
X147958Y596109D01*
X148054Y596093D01*
X148149Y596074D01*
X148242Y596050D01*
X148335Y596023D01*
X148427Y595992D01*
X148517Y595957D01*
X148606Y595919D01*
X148693Y595877D01*
X148778Y595831D01*
X148862Y595782D01*
X148943Y595730D01*
X149022Y595674D01*
X149099Y595616D01*
X149174Y595554D01*
X149245Y595489D01*
X149315Y595421D01*
X149381Y595351D01*
X149444Y595278D01*
X149504Y595202D01*
X149562Y595124D01*
X149616Y595044D01*
X149666Y594961D01*
X149713Y594877D01*
X149757Y594791D01*
X149797Y594703D01*
X149834Y594613D01*
X149867Y594522D01*
X149896Y594430D01*
X149921Y594337D01*
X149943Y594242D01*
X149960Y594147D01*
X149974Y594051D01*
X149984Y593955D01*
X149990Y593859D01*
X149992Y593762D01*
X149992Y592577D01*
X145250Y592577D01*
X161339Y594355D02*
X161342Y594599D01*
X161351Y594843D01*
X161365Y595087D01*
X161386Y595330D01*
X161412Y595573D01*
X161445Y595815D01*
X161483Y596056D01*
X161526Y596296D01*
X161576Y596535D01*
X161631Y596773D01*
X161692Y597009D01*
X161759Y597244D01*
X161831Y597477D01*
X161909Y597708D01*
X161992Y597938D01*
X162081Y598165D01*
X162176Y598390D01*
X162275Y598613D01*
X162381Y598833D01*
X162491Y599051D01*
X162606Y599266D01*
X162727Y599478D01*
X162853Y599688D01*
X162984Y599894D01*
X163119Y600097D01*
X163260Y600296D01*
X163405Y600492D01*
X163555Y600685D01*
X163710Y600874D01*
X161339Y594355D02*
X161342Y594111D01*
X161351Y593867D01*
X161365Y593623D01*
X161386Y593380D01*
X161412Y593137D01*
X161445Y592895D01*
X161483Y592654D01*
X161526Y592414D01*
X161576Y592175D01*
X161631Y591937D01*
X161692Y591701D01*
X161759Y591466D01*
X161831Y591233D01*
X161909Y591002D01*
X161992Y590772D01*
X162081Y590545D01*
X162176Y590320D01*
X162275Y590097D01*
X162381Y589877D01*
X162491Y589659D01*
X162606Y589444D01*
X162727Y589232D01*
X162853Y589022D01*
X162984Y588816D01*
X163119Y588613D01*
X163260Y588414D01*
X163405Y588218D01*
X163555Y588025D01*
X163710Y587836D01*
X169211Y589021D02*
X169211Y599689D01*
X172767Y593762D01*
X176323Y599689D01*
X176323Y589021D01*
X184193Y593170D02*
X186860Y593170D01*
X184193Y593169D02*
X184104Y593167D01*
X184015Y593161D01*
X183926Y593152D01*
X183838Y593138D01*
X183750Y593121D01*
X183663Y593100D01*
X183578Y593076D01*
X183493Y593047D01*
X183410Y593015D01*
X183328Y592980D01*
X183247Y592941D01*
X183169Y592899D01*
X183092Y592853D01*
X183018Y592804D01*
X182945Y592752D01*
X182875Y592696D01*
X182807Y592638D01*
X182742Y592577D01*
X182680Y592513D01*
X182620Y592447D01*
X182564Y592378D01*
X182510Y592307D01*
X182459Y592233D01*
X182412Y592158D01*
X182368Y592080D01*
X182327Y592001D01*
X182290Y591920D01*
X182256Y591837D01*
X182226Y591753D01*
X182200Y591668D01*
X182177Y591581D01*
X182158Y591494D01*
X182142Y591406D01*
X182131Y591318D01*
X182123Y591229D01*
X182119Y591140D01*
X182119Y591050D01*
X182123Y590961D01*
X182131Y590872D01*
X182142Y590784D01*
X182158Y590696D01*
X182177Y590609D01*
X182200Y590522D01*
X182226Y590437D01*
X182256Y590353D01*
X182290Y590270D01*
X182327Y590189D01*
X182368Y590110D01*
X182412Y590032D01*
X182459Y589957D01*
X182510Y589883D01*
X182564Y589812D01*
X182620Y589743D01*
X182680Y589677D01*
X182742Y589613D01*
X182807Y589552D01*
X182875Y589494D01*
X182945Y589438D01*
X183018Y589386D01*
X183092Y589337D01*
X183169Y589291D01*
X183247Y589249D01*
X183328Y589210D01*
X183410Y589175D01*
X183493Y589143D01*
X183578Y589114D01*
X183663Y589090D01*
X183750Y589069D01*
X183838Y589052D01*
X183926Y589038D01*
X184015Y589029D01*
X184104Y589023D01*
X184193Y589021D01*
X186860Y589021D01*
X186860Y594355D01*
X186858Y594437D01*
X186852Y594519D01*
X186843Y594601D01*
X186830Y594682D01*
X186813Y594762D01*
X186792Y594842D01*
X186768Y594920D01*
X186740Y594997D01*
X186709Y595073D01*
X186674Y595148D01*
X186635Y595220D01*
X186594Y595291D01*
X186549Y595360D01*
X186501Y595426D01*
X186450Y595491D01*
X186396Y595553D01*
X186339Y595612D01*
X186280Y595669D01*
X186218Y595723D01*
X186153Y595774D01*
X186087Y595822D01*
X186018Y595867D01*
X185947Y595908D01*
X185875Y595947D01*
X185800Y595982D01*
X185724Y596013D01*
X185647Y596041D01*
X185569Y596065D01*
X185489Y596086D01*
X185409Y596103D01*
X185328Y596116D01*
X185246Y596125D01*
X185164Y596131D01*
X185082Y596133D01*
X182712Y596133D01*
X194184Y589021D02*
X197147Y589021D01*
X194184Y589021D02*
X194102Y589023D01*
X194020Y589029D01*
X193938Y589038D01*
X193857Y589051D01*
X193777Y589068D01*
X193697Y589089D01*
X193619Y589113D01*
X193542Y589141D01*
X193466Y589172D01*
X193391Y589207D01*
X193319Y589246D01*
X193248Y589287D01*
X193179Y589332D01*
X193113Y589380D01*
X193048Y589431D01*
X192986Y589485D01*
X192927Y589542D01*
X192870Y589601D01*
X192816Y589663D01*
X192765Y589728D01*
X192717Y589794D01*
X192672Y589863D01*
X192631Y589934D01*
X192592Y590006D01*
X192557Y590081D01*
X192526Y590157D01*
X192498Y590234D01*
X192474Y590312D01*
X192453Y590392D01*
X192436Y590472D01*
X192423Y590553D01*
X192414Y590635D01*
X192408Y590717D01*
X192406Y590799D01*
X192406Y594355D01*
X192408Y594437D01*
X192414Y594519D01*
X192423Y594601D01*
X192436Y594682D01*
X192453Y594762D01*
X192474Y594842D01*
X192498Y594920D01*
X192526Y594997D01*
X192557Y595073D01*
X192592Y595148D01*
X192631Y595220D01*
X192672Y595291D01*
X192717Y595360D01*
X192765Y595426D01*
X192816Y595491D01*
X192870Y595553D01*
X192927Y595612D01*
X192986Y595669D01*
X193048Y595723D01*
X193113Y595774D01*
X193179Y595822D01*
X193248Y595867D01*
X193319Y595908D01*
X193391Y595947D01*
X193466Y595982D01*
X193542Y596013D01*
X193619Y596041D01*
X193697Y596065D01*
X193777Y596086D01*
X193857Y596103D01*
X193938Y596116D01*
X194020Y596125D01*
X194102Y596131D01*
X194184Y596133D01*
X197147Y596133D01*
X197147Y587243D01*
X197145Y587161D01*
X197139Y587079D01*
X197130Y586997D01*
X197117Y586916D01*
X197100Y586836D01*
X197079Y586756D01*
X197055Y586678D01*
X197027Y586601D01*
X196996Y586525D01*
X196961Y586450D01*
X196922Y586378D01*
X196881Y586307D01*
X196836Y586238D01*
X196788Y586172D01*
X196737Y586107D01*
X196683Y586045D01*
X196626Y585986D01*
X196567Y585929D01*
X196505Y585875D01*
X196440Y585824D01*
X196374Y585776D01*
X196305Y585731D01*
X196234Y585690D01*
X196162Y585651D01*
X196087Y585616D01*
X196011Y585585D01*
X195934Y585557D01*
X195856Y585533D01*
X195776Y585512D01*
X195696Y585495D01*
X195615Y585482D01*
X195533Y585473D01*
X195451Y585467D01*
X195369Y585465D01*
X192999Y585465D01*
X202485Y589021D02*
X202485Y596133D01*
X202189Y599096D02*
X202189Y599689D01*
X202781Y599689D01*
X202781Y599096D01*
X202189Y599096D01*
X209151Y589021D02*
X211522Y589021D01*
X209151Y589021D02*
X209069Y589023D01*
X208987Y589029D01*
X208905Y589038D01*
X208824Y589051D01*
X208744Y589068D01*
X208664Y589089D01*
X208586Y589113D01*
X208509Y589141D01*
X208433Y589172D01*
X208358Y589207D01*
X208286Y589246D01*
X208215Y589287D01*
X208146Y589332D01*
X208080Y589380D01*
X208015Y589431D01*
X207953Y589485D01*
X207894Y589542D01*
X207837Y589601D01*
X207783Y589663D01*
X207732Y589728D01*
X207684Y589794D01*
X207639Y589863D01*
X207598Y589934D01*
X207559Y590006D01*
X207524Y590081D01*
X207493Y590157D01*
X207465Y590234D01*
X207441Y590312D01*
X207420Y590392D01*
X207403Y590472D01*
X207390Y590553D01*
X207381Y590635D01*
X207375Y590717D01*
X207373Y590799D01*
X207373Y594355D01*
X207375Y594437D01*
X207381Y594519D01*
X207390Y594601D01*
X207403Y594682D01*
X207420Y594762D01*
X207441Y594842D01*
X207465Y594920D01*
X207493Y594997D01*
X207524Y595073D01*
X207559Y595148D01*
X207598Y595220D01*
X207639Y595291D01*
X207684Y595360D01*
X207732Y595426D01*
X207783Y595491D01*
X207837Y595553D01*
X207894Y595612D01*
X207953Y595669D01*
X208015Y595723D01*
X208080Y595774D01*
X208146Y595822D01*
X208215Y595867D01*
X208286Y595908D01*
X208358Y595947D01*
X208433Y595982D01*
X208509Y596013D01*
X208586Y596041D01*
X208664Y596065D01*
X208744Y596086D01*
X208824Y596103D01*
X208905Y596116D01*
X208987Y596125D01*
X209069Y596131D01*
X209151Y596133D01*
X211522Y596133D01*
X222762Y599689D02*
X222762Y589021D01*
X222762Y599689D02*
X225726Y599689D01*
X225832Y599687D01*
X225937Y599681D01*
X226043Y599672D01*
X226148Y599659D01*
X226252Y599642D01*
X226356Y599621D01*
X226459Y599597D01*
X226561Y599569D01*
X226662Y599537D01*
X226761Y599502D01*
X226860Y599463D01*
X226957Y599421D01*
X227052Y599376D01*
X227146Y599327D01*
X227238Y599274D01*
X227328Y599219D01*
X227416Y599160D01*
X227502Y599098D01*
X227585Y599033D01*
X227666Y598965D01*
X227745Y598895D01*
X227821Y598821D01*
X227895Y598745D01*
X227965Y598666D01*
X228033Y598585D01*
X228098Y598502D01*
X228160Y598416D01*
X228219Y598328D01*
X228274Y598238D01*
X228327Y598146D01*
X228376Y598052D01*
X228421Y597957D01*
X228463Y597860D01*
X228502Y597761D01*
X228537Y597662D01*
X228569Y597561D01*
X228597Y597459D01*
X228621Y597356D01*
X228642Y597252D01*
X228659Y597148D01*
X228672Y597043D01*
X228681Y596937D01*
X228687Y596832D01*
X228689Y596726D01*
X228689Y591984D01*
X228687Y591878D01*
X228681Y591773D01*
X228672Y591667D01*
X228659Y591562D01*
X228642Y591458D01*
X228621Y591354D01*
X228597Y591251D01*
X228569Y591149D01*
X228537Y591048D01*
X228502Y590949D01*
X228463Y590850D01*
X228421Y590753D01*
X228376Y590658D01*
X228327Y590564D01*
X228274Y590472D01*
X228219Y590382D01*
X228160Y590294D01*
X228098Y590208D01*
X228033Y590125D01*
X227965Y590044D01*
X227895Y589965D01*
X227821Y589889D01*
X227745Y589815D01*
X227666Y589745D01*
X227585Y589677D01*
X227502Y589612D01*
X227416Y589550D01*
X227328Y589491D01*
X227238Y589436D01*
X227146Y589383D01*
X227052Y589334D01*
X226957Y589289D01*
X226860Y589247D01*
X226761Y589208D01*
X226662Y589173D01*
X226561Y589141D01*
X226459Y589113D01*
X226356Y589089D01*
X226252Y589068D01*
X226148Y589051D01*
X226043Y589038D01*
X225937Y589029D01*
X225832Y589023D01*
X225726Y589021D01*
X222762Y589021D01*
X236182Y589021D02*
X239145Y589021D01*
X236182Y589021D02*
X236100Y589023D01*
X236018Y589029D01*
X235936Y589038D01*
X235855Y589051D01*
X235775Y589068D01*
X235695Y589089D01*
X235617Y589113D01*
X235540Y589141D01*
X235464Y589172D01*
X235389Y589207D01*
X235317Y589246D01*
X235246Y589287D01*
X235177Y589332D01*
X235111Y589380D01*
X235046Y589431D01*
X234984Y589485D01*
X234925Y589542D01*
X234868Y589601D01*
X234814Y589663D01*
X234763Y589728D01*
X234715Y589794D01*
X234670Y589863D01*
X234629Y589934D01*
X234590Y590006D01*
X234555Y590081D01*
X234524Y590157D01*
X234496Y590234D01*
X234472Y590312D01*
X234451Y590392D01*
X234434Y590472D01*
X234421Y590553D01*
X234412Y590635D01*
X234406Y590717D01*
X234404Y590799D01*
X234404Y593762D01*
X234406Y593859D01*
X234412Y593955D01*
X234422Y594051D01*
X234436Y594147D01*
X234453Y594242D01*
X234475Y594337D01*
X234500Y594430D01*
X234529Y594522D01*
X234562Y594613D01*
X234599Y594703D01*
X234639Y594791D01*
X234683Y594877D01*
X234730Y594961D01*
X234780Y595044D01*
X234834Y595124D01*
X234892Y595202D01*
X234952Y595278D01*
X235015Y595351D01*
X235081Y595421D01*
X235151Y595489D01*
X235222Y595554D01*
X235297Y595616D01*
X235374Y595674D01*
X235453Y595730D01*
X235534Y595782D01*
X235618Y595831D01*
X235703Y595877D01*
X235790Y595919D01*
X235879Y595957D01*
X235969Y595992D01*
X236061Y596023D01*
X236154Y596050D01*
X236247Y596074D01*
X236342Y596093D01*
X236438Y596109D01*
X236534Y596121D01*
X236630Y596129D01*
X236727Y596133D01*
X236823Y596133D01*
X236920Y596129D01*
X237016Y596121D01*
X237112Y596109D01*
X237208Y596093D01*
X237303Y596074D01*
X237396Y596050D01*
X237489Y596023D01*
X237581Y595992D01*
X237671Y595957D01*
X237760Y595919D01*
X237847Y595877D01*
X237932Y595831D01*
X238016Y595782D01*
X238097Y595730D01*
X238176Y595674D01*
X238253Y595616D01*
X238328Y595554D01*
X238399Y595489D01*
X238469Y595421D01*
X238535Y595351D01*
X238598Y595278D01*
X238658Y595202D01*
X238716Y595124D01*
X238770Y595044D01*
X238820Y594961D01*
X238867Y594877D01*
X238911Y594791D01*
X238951Y594703D01*
X238988Y594613D01*
X239021Y594522D01*
X239050Y594430D01*
X239075Y594337D01*
X239097Y594242D01*
X239114Y594147D01*
X239128Y594051D01*
X239138Y593955D01*
X239144Y593859D01*
X239146Y593762D01*
X239145Y593762D02*
X239145Y592577D01*
X234404Y592577D01*
X245199Y593170D02*
X248162Y591984D01*
X245199Y593169D02*
X245128Y593200D01*
X245058Y593234D01*
X244990Y593271D01*
X244925Y593312D01*
X244861Y593357D01*
X244800Y593404D01*
X244741Y593455D01*
X244684Y593508D01*
X244631Y593564D01*
X244580Y593623D01*
X244533Y593684D01*
X244488Y593748D01*
X244447Y593813D01*
X244409Y593881D01*
X244375Y593951D01*
X244344Y594022D01*
X244317Y594094D01*
X244294Y594168D01*
X244274Y594243D01*
X244258Y594319D01*
X244246Y594396D01*
X244238Y594473D01*
X244234Y594550D01*
X244233Y594628D01*
X244237Y594705D01*
X244244Y594783D01*
X244256Y594859D01*
X244271Y594935D01*
X244290Y595011D01*
X244313Y595085D01*
X244339Y595158D01*
X244369Y595229D01*
X244403Y595299D01*
X244440Y595367D01*
X244481Y595433D01*
X244525Y595497D01*
X244572Y595559D01*
X244622Y595618D01*
X244675Y595674D01*
X244731Y595728D01*
X244789Y595779D01*
X244850Y595827D01*
X244913Y595872D01*
X244979Y595914D01*
X245046Y595952D01*
X245116Y595987D01*
X245187Y596018D01*
X245259Y596046D01*
X245333Y596069D01*
X245408Y596090D01*
X245483Y596106D01*
X245560Y596119D01*
X245637Y596127D01*
X245714Y596132D01*
X245792Y596133D01*
X245954Y596129D01*
X246116Y596121D01*
X246277Y596109D01*
X246438Y596093D01*
X246599Y596073D01*
X246759Y596050D01*
X246918Y596022D01*
X247077Y595991D01*
X247235Y595956D01*
X247392Y595917D01*
X247548Y595874D01*
X247703Y595828D01*
X247857Y595778D01*
X248010Y595724D01*
X248161Y595666D01*
X248311Y595605D01*
X248459Y595541D01*
X248163Y591985D02*
X248234Y591954D01*
X248304Y591920D01*
X248372Y591883D01*
X248437Y591842D01*
X248501Y591797D01*
X248562Y591750D01*
X248621Y591699D01*
X248678Y591646D01*
X248731Y591590D01*
X248782Y591531D01*
X248829Y591470D01*
X248874Y591406D01*
X248915Y591341D01*
X248953Y591273D01*
X248987Y591203D01*
X249018Y591132D01*
X249045Y591060D01*
X249068Y590986D01*
X249088Y590911D01*
X249104Y590835D01*
X249116Y590758D01*
X249124Y590681D01*
X249128Y590604D01*
X249129Y590526D01*
X249125Y590449D01*
X249118Y590371D01*
X249106Y590295D01*
X249091Y590219D01*
X249072Y590143D01*
X249049Y590069D01*
X249023Y589996D01*
X248993Y589925D01*
X248959Y589855D01*
X248922Y589787D01*
X248881Y589721D01*
X248837Y589657D01*
X248790Y589595D01*
X248740Y589536D01*
X248687Y589480D01*
X248631Y589426D01*
X248573Y589375D01*
X248512Y589327D01*
X248449Y589282D01*
X248383Y589240D01*
X248316Y589202D01*
X248246Y589167D01*
X248176Y589136D01*
X248103Y589108D01*
X248029Y589085D01*
X247954Y589064D01*
X247879Y589048D01*
X247802Y589035D01*
X247725Y589027D01*
X247648Y589022D01*
X247570Y589021D01*
X247569Y589021D02*
X247332Y589027D01*
X247094Y589039D01*
X246857Y589056D01*
X246621Y589080D01*
X246385Y589108D01*
X246149Y589142D01*
X245915Y589182D01*
X245682Y589227D01*
X245449Y589278D01*
X245218Y589334D01*
X244989Y589396D01*
X244761Y589463D01*
X244534Y589536D01*
X244310Y589614D01*
X254800Y589021D02*
X254800Y599689D01*
X259542Y596133D02*
X254800Y592577D01*
X256875Y594059D02*
X259542Y589021D01*
X263738Y587836D02*
X263893Y588025D01*
X264043Y588218D01*
X264188Y588414D01*
X264329Y588613D01*
X264464Y588816D01*
X264595Y589022D01*
X264721Y589232D01*
X264842Y589444D01*
X264957Y589659D01*
X265067Y589877D01*
X265173Y590097D01*
X265272Y590320D01*
X265367Y590545D01*
X265456Y590772D01*
X265539Y591002D01*
X265617Y591233D01*
X265689Y591466D01*
X265756Y591701D01*
X265817Y591937D01*
X265872Y592175D01*
X265922Y592414D01*
X265965Y592654D01*
X266003Y592895D01*
X266036Y593137D01*
X266062Y593380D01*
X266083Y593623D01*
X266097Y593867D01*
X266106Y594111D01*
X266109Y594355D01*
X266106Y594599D01*
X266097Y594843D01*
X266083Y595087D01*
X266062Y595330D01*
X266036Y595573D01*
X266003Y595815D01*
X265965Y596056D01*
X265922Y596296D01*
X265872Y596535D01*
X265817Y596773D01*
X265756Y597009D01*
X265689Y597244D01*
X265617Y597477D01*
X265539Y597708D01*
X265456Y597938D01*
X265367Y598165D01*
X265272Y598390D01*
X265173Y598613D01*
X265067Y598833D01*
X264957Y599051D01*
X264842Y599266D01*
X264721Y599478D01*
X264595Y599688D01*
X264464Y599894D01*
X264329Y600097D01*
X264188Y600296D01*
X264043Y600492D01*
X263893Y600685D01*
X263738Y600874D01*
X80772Y580639D02*
X80772Y569971D01*
X80772Y580639D02*
X83735Y580639D01*
X83841Y580637D01*
X83946Y580631D01*
X84052Y580622D01*
X84157Y580609D01*
X84261Y580592D01*
X84365Y580571D01*
X84468Y580547D01*
X84570Y580519D01*
X84671Y580487D01*
X84770Y580452D01*
X84869Y580413D01*
X84966Y580371D01*
X85061Y580326D01*
X85155Y580277D01*
X85247Y580224D01*
X85337Y580169D01*
X85425Y580110D01*
X85511Y580048D01*
X85594Y579983D01*
X85675Y579915D01*
X85754Y579845D01*
X85830Y579771D01*
X85904Y579695D01*
X85974Y579616D01*
X86042Y579535D01*
X86107Y579452D01*
X86169Y579366D01*
X86228Y579278D01*
X86283Y579188D01*
X86336Y579096D01*
X86385Y579002D01*
X86430Y578907D01*
X86472Y578810D01*
X86511Y578711D01*
X86546Y578612D01*
X86578Y578511D01*
X86606Y578409D01*
X86630Y578306D01*
X86651Y578202D01*
X86668Y578098D01*
X86681Y577993D01*
X86690Y577887D01*
X86696Y577782D01*
X86698Y577676D01*
X86699Y577676D02*
X86699Y572934D01*
X86698Y572934D02*
X86696Y572828D01*
X86690Y572723D01*
X86681Y572617D01*
X86668Y572512D01*
X86651Y572408D01*
X86630Y572304D01*
X86606Y572201D01*
X86578Y572099D01*
X86546Y571998D01*
X86511Y571899D01*
X86472Y571800D01*
X86430Y571703D01*
X86385Y571608D01*
X86336Y571514D01*
X86283Y571422D01*
X86228Y571332D01*
X86169Y571244D01*
X86107Y571158D01*
X86042Y571075D01*
X85974Y570994D01*
X85904Y570915D01*
X85830Y570839D01*
X85754Y570765D01*
X85675Y570695D01*
X85594Y570627D01*
X85511Y570562D01*
X85425Y570500D01*
X85337Y570441D01*
X85247Y570386D01*
X85155Y570333D01*
X85061Y570284D01*
X84966Y570239D01*
X84869Y570197D01*
X84770Y570158D01*
X84671Y570123D01*
X84570Y570091D01*
X84468Y570063D01*
X84365Y570039D01*
X84261Y570018D01*
X84157Y570001D01*
X84052Y569988D01*
X83946Y569979D01*
X83841Y569973D01*
X83735Y569971D01*
X80772Y569971D01*
X94192Y569971D02*
X97155Y569971D01*
X94192Y569971D02*
X94110Y569973D01*
X94028Y569979D01*
X93946Y569988D01*
X93865Y570001D01*
X93785Y570018D01*
X93705Y570039D01*
X93627Y570063D01*
X93550Y570091D01*
X93474Y570122D01*
X93399Y570157D01*
X93327Y570196D01*
X93256Y570237D01*
X93187Y570282D01*
X93121Y570330D01*
X93056Y570381D01*
X92994Y570435D01*
X92935Y570492D01*
X92878Y570551D01*
X92824Y570613D01*
X92773Y570678D01*
X92725Y570744D01*
X92680Y570813D01*
X92639Y570884D01*
X92600Y570956D01*
X92565Y571031D01*
X92534Y571107D01*
X92506Y571184D01*
X92482Y571262D01*
X92461Y571342D01*
X92444Y571422D01*
X92431Y571503D01*
X92422Y571585D01*
X92416Y571667D01*
X92414Y571749D01*
X92414Y574712D01*
X92413Y574712D02*
X92415Y574809D01*
X92421Y574905D01*
X92431Y575001D01*
X92445Y575097D01*
X92462Y575192D01*
X92484Y575287D01*
X92509Y575380D01*
X92538Y575472D01*
X92571Y575563D01*
X92608Y575653D01*
X92648Y575741D01*
X92692Y575827D01*
X92739Y575911D01*
X92789Y575994D01*
X92843Y576074D01*
X92901Y576152D01*
X92961Y576228D01*
X93024Y576301D01*
X93090Y576371D01*
X93160Y576439D01*
X93231Y576504D01*
X93306Y576566D01*
X93383Y576624D01*
X93462Y576680D01*
X93543Y576732D01*
X93627Y576781D01*
X93712Y576827D01*
X93799Y576869D01*
X93888Y576907D01*
X93978Y576942D01*
X94070Y576973D01*
X94163Y577000D01*
X94256Y577024D01*
X94351Y577043D01*
X94447Y577059D01*
X94543Y577071D01*
X94639Y577079D01*
X94736Y577083D01*
X94832Y577083D01*
X94929Y577079D01*
X95025Y577071D01*
X95121Y577059D01*
X95217Y577043D01*
X95312Y577024D01*
X95405Y577000D01*
X95498Y576973D01*
X95590Y576942D01*
X95680Y576907D01*
X95769Y576869D01*
X95856Y576827D01*
X95941Y576781D01*
X96025Y576732D01*
X96106Y576680D01*
X96185Y576624D01*
X96262Y576566D01*
X96337Y576504D01*
X96408Y576439D01*
X96478Y576371D01*
X96544Y576301D01*
X96607Y576228D01*
X96667Y576152D01*
X96725Y576074D01*
X96779Y575994D01*
X96829Y575911D01*
X96876Y575827D01*
X96920Y575741D01*
X96960Y575653D01*
X96997Y575563D01*
X97030Y575472D01*
X97059Y575380D01*
X97084Y575287D01*
X97106Y575192D01*
X97123Y575097D01*
X97137Y575001D01*
X97147Y574905D01*
X97153Y574809D01*
X97155Y574712D01*
X97155Y573527D01*
X92414Y573527D01*
X103209Y574120D02*
X106172Y572934D01*
X103208Y574119D02*
X103137Y574150D01*
X103067Y574184D01*
X102999Y574221D01*
X102934Y574262D01*
X102870Y574307D01*
X102809Y574354D01*
X102750Y574405D01*
X102693Y574458D01*
X102640Y574514D01*
X102589Y574573D01*
X102542Y574634D01*
X102497Y574698D01*
X102456Y574763D01*
X102418Y574831D01*
X102384Y574901D01*
X102353Y574972D01*
X102326Y575044D01*
X102303Y575118D01*
X102283Y575193D01*
X102267Y575269D01*
X102255Y575346D01*
X102247Y575423D01*
X102243Y575500D01*
X102242Y575578D01*
X102246Y575655D01*
X102253Y575733D01*
X102265Y575809D01*
X102280Y575885D01*
X102299Y575961D01*
X102322Y576035D01*
X102348Y576108D01*
X102378Y576179D01*
X102412Y576249D01*
X102449Y576317D01*
X102490Y576383D01*
X102534Y576447D01*
X102581Y576509D01*
X102631Y576568D01*
X102684Y576624D01*
X102740Y576678D01*
X102798Y576729D01*
X102859Y576777D01*
X102922Y576822D01*
X102988Y576864D01*
X103055Y576902D01*
X103125Y576937D01*
X103196Y576968D01*
X103268Y576996D01*
X103342Y577019D01*
X103417Y577040D01*
X103492Y577056D01*
X103569Y577069D01*
X103646Y577077D01*
X103723Y577082D01*
X103801Y577083D01*
X103963Y577079D01*
X104125Y577071D01*
X104286Y577059D01*
X104447Y577043D01*
X104608Y577023D01*
X104768Y577000D01*
X104927Y576972D01*
X105086Y576941D01*
X105244Y576906D01*
X105401Y576867D01*
X105557Y576824D01*
X105712Y576778D01*
X105866Y576728D01*
X106019Y576674D01*
X106170Y576616D01*
X106320Y576555D01*
X106468Y576491D01*
X106172Y572935D02*
X106243Y572904D01*
X106313Y572870D01*
X106381Y572833D01*
X106446Y572792D01*
X106510Y572747D01*
X106571Y572700D01*
X106630Y572649D01*
X106687Y572596D01*
X106740Y572540D01*
X106791Y572481D01*
X106838Y572420D01*
X106883Y572356D01*
X106924Y572291D01*
X106962Y572223D01*
X106996Y572153D01*
X107027Y572082D01*
X107054Y572010D01*
X107077Y571936D01*
X107097Y571861D01*
X107113Y571785D01*
X107125Y571708D01*
X107133Y571631D01*
X107137Y571554D01*
X107138Y571476D01*
X107134Y571399D01*
X107127Y571321D01*
X107115Y571245D01*
X107100Y571169D01*
X107081Y571093D01*
X107058Y571019D01*
X107032Y570946D01*
X107002Y570875D01*
X106968Y570805D01*
X106931Y570737D01*
X106890Y570671D01*
X106846Y570607D01*
X106799Y570545D01*
X106749Y570486D01*
X106696Y570430D01*
X106640Y570376D01*
X106582Y570325D01*
X106521Y570277D01*
X106458Y570232D01*
X106392Y570190D01*
X106325Y570152D01*
X106255Y570117D01*
X106185Y570086D01*
X106112Y570058D01*
X106038Y570035D01*
X105963Y570014D01*
X105888Y569998D01*
X105811Y569985D01*
X105734Y569977D01*
X105657Y569972D01*
X105579Y569971D01*
X105342Y569977D01*
X105104Y569989D01*
X104867Y570006D01*
X104631Y570030D01*
X104395Y570058D01*
X104159Y570092D01*
X103925Y570132D01*
X103692Y570177D01*
X103459Y570228D01*
X103228Y570284D01*
X102999Y570346D01*
X102771Y570413D01*
X102544Y570486D01*
X102320Y570564D01*
X111929Y569971D02*
X111929Y577083D01*
X111633Y580046D02*
X111633Y580639D01*
X112226Y580639D01*
X112226Y580046D01*
X111633Y580046D01*
X118487Y569971D02*
X121451Y569971D01*
X118487Y569971D02*
X118405Y569973D01*
X118323Y569979D01*
X118241Y569988D01*
X118160Y570001D01*
X118080Y570018D01*
X118000Y570039D01*
X117922Y570063D01*
X117845Y570091D01*
X117769Y570122D01*
X117694Y570157D01*
X117622Y570196D01*
X117551Y570237D01*
X117482Y570282D01*
X117416Y570330D01*
X117351Y570381D01*
X117289Y570435D01*
X117230Y570492D01*
X117173Y570551D01*
X117119Y570613D01*
X117068Y570678D01*
X117020Y570744D01*
X116975Y570813D01*
X116934Y570884D01*
X116895Y570956D01*
X116860Y571031D01*
X116829Y571107D01*
X116801Y571184D01*
X116777Y571262D01*
X116756Y571342D01*
X116739Y571422D01*
X116726Y571503D01*
X116717Y571585D01*
X116711Y571667D01*
X116709Y571749D01*
X116709Y575305D01*
X116711Y575387D01*
X116717Y575469D01*
X116726Y575551D01*
X116739Y575632D01*
X116756Y575712D01*
X116777Y575792D01*
X116801Y575870D01*
X116829Y575947D01*
X116860Y576023D01*
X116895Y576098D01*
X116934Y576170D01*
X116975Y576241D01*
X117020Y576310D01*
X117068Y576376D01*
X117119Y576441D01*
X117173Y576503D01*
X117230Y576562D01*
X117289Y576619D01*
X117351Y576673D01*
X117416Y576724D01*
X117482Y576772D01*
X117551Y576817D01*
X117622Y576858D01*
X117694Y576897D01*
X117769Y576932D01*
X117845Y576963D01*
X117922Y576991D01*
X118000Y577015D01*
X118080Y577036D01*
X118160Y577053D01*
X118241Y577066D01*
X118323Y577075D01*
X118405Y577081D01*
X118487Y577083D01*
X121451Y577083D01*
X121451Y568193D01*
X121449Y568111D01*
X121443Y568029D01*
X121434Y567947D01*
X121421Y567866D01*
X121404Y567786D01*
X121383Y567706D01*
X121359Y567628D01*
X121331Y567551D01*
X121300Y567475D01*
X121265Y567400D01*
X121226Y567328D01*
X121185Y567257D01*
X121140Y567188D01*
X121092Y567122D01*
X121041Y567057D01*
X120987Y566995D01*
X120930Y566936D01*
X120871Y566879D01*
X120809Y566825D01*
X120744Y566774D01*
X120678Y566726D01*
X120609Y566681D01*
X120538Y566640D01*
X120466Y566601D01*
X120391Y566566D01*
X120315Y566535D01*
X120238Y566507D01*
X120160Y566483D01*
X120080Y566462D01*
X120000Y566445D01*
X119919Y566432D01*
X119837Y566423D01*
X119755Y566417D01*
X119673Y566415D01*
X117302Y566415D01*
X127466Y569971D02*
X127466Y577083D01*
X130429Y577083D01*
X130511Y577081D01*
X130593Y577075D01*
X130675Y577066D01*
X130756Y577053D01*
X130836Y577036D01*
X130916Y577015D01*
X130994Y576991D01*
X131071Y576963D01*
X131147Y576932D01*
X131222Y576897D01*
X131294Y576858D01*
X131365Y576817D01*
X131434Y576772D01*
X131500Y576724D01*
X131565Y576673D01*
X131627Y576619D01*
X131686Y576562D01*
X131743Y576503D01*
X131797Y576441D01*
X131848Y576376D01*
X131896Y576310D01*
X131941Y576241D01*
X131982Y576170D01*
X132021Y576098D01*
X132056Y576023D01*
X132087Y575947D01*
X132115Y575870D01*
X132139Y575792D01*
X132160Y575712D01*
X132177Y575632D01*
X132190Y575551D01*
X132199Y575469D01*
X132205Y575387D01*
X132207Y575305D01*
X132207Y569971D01*
X137541Y570860D02*
X137541Y571453D01*
X138134Y571453D01*
X138134Y570860D01*
X137541Y570860D01*
X137541Y575601D02*
X137541Y576194D01*
X138134Y576194D01*
X138134Y575601D01*
X137541Y575601D01*
X149902Y580639D02*
X149902Y569971D01*
X153458Y574712D02*
X149902Y580639D01*
X153458Y574712D02*
X157014Y580639D01*
X157014Y569971D01*
X162306Y569971D02*
X162306Y570564D01*
X162899Y570564D01*
X162899Y569971D01*
X162306Y569971D01*
X173143Y569971D02*
X176699Y580639D01*
X180255Y569971D01*
X179366Y572638D02*
X174032Y572638D01*
X185378Y569971D02*
X185378Y577083D01*
X188341Y577083D01*
X188423Y577081D01*
X188505Y577075D01*
X188587Y577066D01*
X188668Y577053D01*
X188748Y577036D01*
X188828Y577015D01*
X188906Y576991D01*
X188983Y576963D01*
X189059Y576932D01*
X189134Y576897D01*
X189206Y576858D01*
X189277Y576817D01*
X189346Y576772D01*
X189412Y576724D01*
X189477Y576673D01*
X189539Y576619D01*
X189598Y576562D01*
X189655Y576503D01*
X189709Y576441D01*
X189760Y576376D01*
X189808Y576310D01*
X189853Y576241D01*
X189894Y576170D01*
X189933Y576098D01*
X189968Y576023D01*
X189999Y575947D01*
X190027Y575870D01*
X190051Y575792D01*
X190072Y575712D01*
X190089Y575632D01*
X190102Y575551D01*
X190111Y575469D01*
X190117Y575387D01*
X190119Y575305D01*
X190119Y569971D01*
X197443Y569971D02*
X200406Y569971D01*
X197443Y569971D02*
X197361Y569973D01*
X197279Y569979D01*
X197197Y569988D01*
X197116Y570001D01*
X197036Y570018D01*
X196956Y570039D01*
X196878Y570063D01*
X196801Y570091D01*
X196725Y570122D01*
X196650Y570157D01*
X196578Y570196D01*
X196507Y570237D01*
X196438Y570282D01*
X196372Y570330D01*
X196307Y570381D01*
X196245Y570435D01*
X196186Y570492D01*
X196129Y570551D01*
X196075Y570613D01*
X196024Y570678D01*
X195976Y570744D01*
X195931Y570813D01*
X195890Y570884D01*
X195851Y570956D01*
X195816Y571031D01*
X195785Y571107D01*
X195757Y571184D01*
X195733Y571262D01*
X195712Y571342D01*
X195695Y571422D01*
X195682Y571503D01*
X195673Y571585D01*
X195667Y571667D01*
X195665Y571749D01*
X195665Y574712D01*
X195664Y574712D02*
X195666Y574809D01*
X195672Y574905D01*
X195682Y575001D01*
X195696Y575097D01*
X195713Y575192D01*
X195735Y575287D01*
X195760Y575380D01*
X195789Y575472D01*
X195822Y575563D01*
X195859Y575653D01*
X195899Y575741D01*
X195943Y575827D01*
X195990Y575911D01*
X196040Y575994D01*
X196094Y576074D01*
X196152Y576152D01*
X196212Y576228D01*
X196275Y576301D01*
X196341Y576371D01*
X196411Y576439D01*
X196482Y576504D01*
X196557Y576566D01*
X196634Y576624D01*
X196713Y576680D01*
X196794Y576732D01*
X196878Y576781D01*
X196963Y576827D01*
X197050Y576869D01*
X197139Y576907D01*
X197229Y576942D01*
X197321Y576973D01*
X197414Y577000D01*
X197507Y577024D01*
X197602Y577043D01*
X197698Y577059D01*
X197794Y577071D01*
X197890Y577079D01*
X197987Y577083D01*
X198083Y577083D01*
X198180Y577079D01*
X198276Y577071D01*
X198372Y577059D01*
X198468Y577043D01*
X198563Y577024D01*
X198656Y577000D01*
X198749Y576973D01*
X198841Y576942D01*
X198931Y576907D01*
X199020Y576869D01*
X199107Y576827D01*
X199192Y576781D01*
X199276Y576732D01*
X199357Y576680D01*
X199436Y576624D01*
X199513Y576566D01*
X199588Y576504D01*
X199659Y576439D01*
X199729Y576371D01*
X199795Y576301D01*
X199858Y576228D01*
X199918Y576152D01*
X199976Y576074D01*
X200030Y575994D01*
X200080Y575911D01*
X200127Y575827D01*
X200171Y575741D01*
X200211Y575653D01*
X200248Y575563D01*
X200281Y575472D01*
X200310Y575380D01*
X200335Y575287D01*
X200357Y575192D01*
X200374Y575097D01*
X200388Y575001D01*
X200398Y574905D01*
X200404Y574809D01*
X200406Y574712D01*
X200406Y573527D01*
X195665Y573527D01*
X206290Y569971D02*
X206290Y577083D01*
X211624Y577083D01*
X211706Y577081D01*
X211788Y577075D01*
X211870Y577066D01*
X211951Y577053D01*
X212031Y577036D01*
X212111Y577015D01*
X212189Y576991D01*
X212266Y576963D01*
X212342Y576932D01*
X212417Y576897D01*
X212489Y576858D01*
X212560Y576817D01*
X212629Y576772D01*
X212695Y576724D01*
X212760Y576673D01*
X212822Y576619D01*
X212881Y576562D01*
X212938Y576503D01*
X212992Y576441D01*
X213043Y576376D01*
X213091Y576310D01*
X213136Y576241D01*
X213177Y576170D01*
X213216Y576098D01*
X213251Y576023D01*
X213282Y575947D01*
X213310Y575870D01*
X213334Y575792D01*
X213355Y575712D01*
X213372Y575632D01*
X213385Y575551D01*
X213394Y575469D01*
X213400Y575387D01*
X213402Y575305D01*
X213402Y569971D01*
X209846Y569971D02*
X209846Y577083D01*
X219287Y574712D02*
X219287Y572342D01*
X219286Y574712D02*
X219288Y574809D01*
X219294Y574905D01*
X219304Y575001D01*
X219318Y575097D01*
X219335Y575192D01*
X219357Y575287D01*
X219382Y575380D01*
X219411Y575472D01*
X219444Y575563D01*
X219481Y575653D01*
X219521Y575741D01*
X219565Y575827D01*
X219612Y575911D01*
X219662Y575994D01*
X219716Y576074D01*
X219774Y576152D01*
X219834Y576228D01*
X219897Y576301D01*
X219963Y576371D01*
X220033Y576439D01*
X220104Y576504D01*
X220179Y576566D01*
X220256Y576624D01*
X220335Y576680D01*
X220416Y576732D01*
X220500Y576781D01*
X220585Y576827D01*
X220672Y576869D01*
X220761Y576907D01*
X220851Y576942D01*
X220943Y576973D01*
X221036Y577000D01*
X221129Y577024D01*
X221224Y577043D01*
X221320Y577059D01*
X221416Y577071D01*
X221512Y577079D01*
X221609Y577083D01*
X221705Y577083D01*
X221802Y577079D01*
X221898Y577071D01*
X221994Y577059D01*
X222090Y577043D01*
X222185Y577024D01*
X222278Y577000D01*
X222371Y576973D01*
X222463Y576942D01*
X222553Y576907D01*
X222642Y576869D01*
X222729Y576827D01*
X222814Y576781D01*
X222898Y576732D01*
X222979Y576680D01*
X223058Y576624D01*
X223135Y576566D01*
X223210Y576504D01*
X223281Y576439D01*
X223351Y576371D01*
X223417Y576301D01*
X223480Y576228D01*
X223540Y576152D01*
X223598Y576074D01*
X223652Y575994D01*
X223702Y575911D01*
X223749Y575827D01*
X223793Y575741D01*
X223833Y575653D01*
X223870Y575563D01*
X223903Y575472D01*
X223932Y575380D01*
X223957Y575287D01*
X223979Y575192D01*
X223996Y575097D01*
X224010Y575001D01*
X224020Y574905D01*
X224026Y574809D01*
X224028Y574712D01*
X224028Y572342D01*
X224026Y572245D01*
X224020Y572149D01*
X224010Y572053D01*
X223996Y571957D01*
X223979Y571862D01*
X223957Y571767D01*
X223932Y571674D01*
X223903Y571582D01*
X223870Y571491D01*
X223833Y571401D01*
X223793Y571313D01*
X223749Y571227D01*
X223702Y571143D01*
X223652Y571060D01*
X223598Y570980D01*
X223540Y570902D01*
X223480Y570826D01*
X223417Y570753D01*
X223351Y570683D01*
X223281Y570615D01*
X223210Y570550D01*
X223135Y570488D01*
X223058Y570430D01*
X222979Y570374D01*
X222898Y570322D01*
X222814Y570273D01*
X222729Y570227D01*
X222642Y570185D01*
X222553Y570147D01*
X222463Y570112D01*
X222371Y570081D01*
X222278Y570054D01*
X222185Y570030D01*
X222090Y570011D01*
X221994Y569995D01*
X221898Y569983D01*
X221802Y569975D01*
X221705Y569971D01*
X221609Y569971D01*
X221512Y569975D01*
X221416Y569983D01*
X221320Y569995D01*
X221224Y570011D01*
X221129Y570030D01*
X221036Y570054D01*
X220943Y570081D01*
X220851Y570112D01*
X220761Y570147D01*
X220672Y570185D01*
X220585Y570227D01*
X220500Y570273D01*
X220416Y570322D01*
X220335Y570374D01*
X220256Y570430D01*
X220179Y570488D01*
X220104Y570550D01*
X220033Y570615D01*
X219963Y570683D01*
X219897Y570753D01*
X219834Y570826D01*
X219774Y570902D01*
X219716Y570980D01*
X219662Y571060D01*
X219612Y571143D01*
X219565Y571227D01*
X219521Y571313D01*
X219481Y571401D01*
X219444Y571491D01*
X219411Y571582D01*
X219382Y571674D01*
X219357Y571767D01*
X219335Y571862D01*
X219318Y571957D01*
X219304Y572053D01*
X219294Y572149D01*
X219288Y572245D01*
X219286Y572342D01*
X209550Y332740D02*
X209550Y200660D01*
D11*
X210820Y256540D02*
X211052Y256543D01*
X211284Y256551D01*
X211515Y256565D01*
X211746Y256585D01*
X211977Y256611D01*
X212207Y256642D01*
X212436Y256678D01*
X212664Y256720D01*
X212891Y256768D01*
X213117Y256821D01*
X213341Y256880D01*
X213564Y256944D01*
X213785Y257013D01*
X214005Y257088D01*
X214223Y257168D01*
X214438Y257254D01*
X214652Y257345D01*
X214863Y257441D01*
X215072Y257542D01*
X215278Y257648D01*
X215482Y257759D01*
X215683Y257875D01*
X215881Y257996D01*
X216076Y258121D01*
X216267Y258252D01*
X216456Y258386D01*
X216641Y258526D01*
X216823Y258670D01*
X217002Y258818D01*
X217176Y258971D01*
X217347Y259128D01*
X217514Y259289D01*
X217677Y259454D01*
X217836Y259623D01*
X217991Y259796D01*
X218141Y259972D01*
X218288Y260152D01*
X218429Y260336D01*
X218567Y260523D01*
X218699Y260713D01*
X218827Y260907D01*
X218950Y261103D01*
X219069Y261303D01*
X219182Y261505D01*
X219291Y261710D01*
X219395Y261917D01*
X219493Y262127D01*
X219586Y262340D01*
X219674Y262554D01*
X219757Y262771D01*
X219835Y262990D01*
X219907Y263210D01*
X219974Y263432D01*
X220035Y263656D01*
X220091Y263881D01*
X220142Y264107D01*
X220187Y264335D01*
X220226Y264564D01*
X220260Y264793D01*
X220288Y265023D01*
X220310Y265254D01*
X220327Y265485D01*
X220339Y265717D01*
X220344Y265949D01*
X220344Y266181D01*
X220339Y266413D01*
X220327Y266645D01*
X220310Y266876D01*
X220288Y267107D01*
X220260Y267337D01*
X220226Y267566D01*
X220187Y267795D01*
X220142Y268023D01*
X220091Y268249D01*
X220035Y268474D01*
X219974Y268698D01*
X219907Y268920D01*
X219835Y269140D01*
X219757Y269359D01*
X219674Y269576D01*
X219586Y269790D01*
X219493Y270003D01*
X219395Y270213D01*
X219291Y270420D01*
X219182Y270625D01*
X219069Y270828D01*
X218950Y271027D01*
X218827Y271223D01*
X218699Y271417D01*
X218567Y271607D01*
X218429Y271794D01*
X218288Y271978D01*
X218141Y272158D01*
X217991Y272334D01*
X217836Y272507D01*
X217677Y272676D01*
X217514Y272841D01*
X217347Y273002D01*
X217176Y273159D01*
X217002Y273312D01*
X216823Y273460D01*
X216641Y273604D01*
X216456Y273744D01*
X216267Y273878D01*
X216076Y274009D01*
X215881Y274134D01*
X215683Y274255D01*
X215482Y274371D01*
X215278Y274482D01*
X215072Y274588D01*
X214863Y274689D01*
X214652Y274785D01*
X214438Y274876D01*
X214223Y274962D01*
X214005Y275042D01*
X213785Y275117D01*
X213564Y275186D01*
X213341Y275250D01*
X213117Y275309D01*
X212891Y275362D01*
X212664Y275410D01*
X212436Y275452D01*
X212207Y275488D01*
X211977Y275519D01*
X211746Y275545D01*
X211515Y275565D01*
X211284Y275579D01*
X211052Y275587D01*
X210820Y275590D01*
X505584Y536362D02*
X505584Y544998D01*
X507983Y544998D01*
X508080Y544996D01*
X508176Y544990D01*
X508272Y544981D01*
X508368Y544967D01*
X508463Y544950D01*
X508557Y544928D01*
X508650Y544903D01*
X508743Y544875D01*
X508834Y544842D01*
X508923Y544806D01*
X509011Y544766D01*
X509098Y544723D01*
X509183Y544677D01*
X509265Y544627D01*
X509346Y544573D01*
X509424Y544517D01*
X509500Y544457D01*
X509574Y544395D01*
X509645Y544329D01*
X509713Y544261D01*
X509779Y544190D01*
X509841Y544116D01*
X509901Y544040D01*
X509957Y543962D01*
X510011Y543881D01*
X510061Y543799D01*
X510107Y543714D01*
X510150Y543627D01*
X510190Y543539D01*
X510226Y543450D01*
X510259Y543359D01*
X510287Y543266D01*
X510312Y543173D01*
X510334Y543079D01*
X510351Y542984D01*
X510365Y542888D01*
X510374Y542792D01*
X510380Y542696D01*
X510382Y542599D01*
X510380Y542502D01*
X510374Y542406D01*
X510365Y542310D01*
X510351Y542214D01*
X510334Y542119D01*
X510312Y542025D01*
X510287Y541932D01*
X510259Y541839D01*
X510226Y541748D01*
X510190Y541659D01*
X510150Y541571D01*
X510107Y541484D01*
X510061Y541400D01*
X510011Y541317D01*
X509957Y541236D01*
X509901Y541158D01*
X509841Y541082D01*
X509779Y541008D01*
X509713Y540937D01*
X509645Y540869D01*
X509574Y540803D01*
X509500Y540741D01*
X509424Y540681D01*
X509346Y540625D01*
X509265Y540571D01*
X509183Y540521D01*
X509098Y540475D01*
X509011Y540432D01*
X508923Y540392D01*
X508834Y540356D01*
X508743Y540323D01*
X508650Y540295D01*
X508557Y540270D01*
X508463Y540248D01*
X508368Y540231D01*
X508272Y540217D01*
X508176Y540208D01*
X508080Y540202D01*
X507983Y540200D01*
X505584Y540200D01*
X508463Y540200D02*
X510382Y536362D01*
X514974Y536362D02*
X518813Y536362D01*
X514974Y536362D02*
X514974Y544998D01*
X518813Y544998D01*
X517853Y541160D02*
X514974Y541160D01*
X525142Y536362D02*
X525228Y536364D01*
X525314Y536370D01*
X525400Y536379D01*
X525485Y536393D01*
X525569Y536410D01*
X525653Y536431D01*
X525735Y536456D01*
X525816Y536484D01*
X525896Y536516D01*
X525975Y536552D01*
X526051Y536591D01*
X526126Y536634D01*
X526199Y536679D01*
X526270Y536729D01*
X526338Y536781D01*
X526405Y536836D01*
X526468Y536894D01*
X526529Y536955D01*
X526587Y537018D01*
X526642Y537085D01*
X526695Y537153D01*
X526744Y537224D01*
X526789Y537297D01*
X526832Y537372D01*
X526871Y537448D01*
X526907Y537527D01*
X526939Y537607D01*
X526967Y537688D01*
X526992Y537770D01*
X527013Y537854D01*
X527030Y537938D01*
X527044Y538023D01*
X527053Y538109D01*
X527059Y538195D01*
X527061Y538281D01*
X525142Y536362D02*
X525019Y536364D01*
X524896Y536369D01*
X524773Y536379D01*
X524651Y536392D01*
X524529Y536409D01*
X524407Y536429D01*
X524287Y536453D01*
X524167Y536481D01*
X524048Y536512D01*
X523930Y536547D01*
X523813Y536586D01*
X523697Y536628D01*
X523583Y536674D01*
X523470Y536723D01*
X523359Y536775D01*
X523249Y536831D01*
X523141Y536890D01*
X523035Y536953D01*
X522930Y537018D01*
X522828Y537087D01*
X522728Y537159D01*
X522631Y537234D01*
X522535Y537311D01*
X522442Y537392D01*
X522351Y537475D01*
X522263Y537561D01*
X522504Y543079D02*
X522506Y543165D01*
X522512Y543251D01*
X522521Y543337D01*
X522535Y543422D01*
X522552Y543506D01*
X522573Y543590D01*
X522598Y543672D01*
X522626Y543753D01*
X522658Y543833D01*
X522694Y543912D01*
X522733Y543988D01*
X522776Y544063D01*
X522821Y544136D01*
X522870Y544207D01*
X522923Y544275D01*
X522978Y544342D01*
X523036Y544405D01*
X523097Y544466D01*
X523160Y544524D01*
X523227Y544579D01*
X523295Y544632D01*
X523366Y544681D01*
X523439Y544726D01*
X523514Y544769D01*
X523590Y544808D01*
X523669Y544844D01*
X523749Y544876D01*
X523830Y544904D01*
X523912Y544929D01*
X523996Y544950D01*
X524080Y544967D01*
X524165Y544981D01*
X524251Y544990D01*
X524337Y544996D01*
X524423Y544998D01*
X524539Y544996D01*
X524654Y544991D01*
X524770Y544981D01*
X524885Y544968D01*
X524999Y544952D01*
X525113Y544931D01*
X525227Y544907D01*
X525339Y544879D01*
X525450Y544848D01*
X525561Y544813D01*
X525670Y544775D01*
X525778Y544733D01*
X525884Y544688D01*
X525990Y544639D01*
X526093Y544587D01*
X526195Y544532D01*
X526294Y544473D01*
X526392Y544411D01*
X526488Y544346D01*
X526582Y544278D01*
X523463Y541400D02*
X523389Y541446D01*
X523316Y541496D01*
X523246Y541549D01*
X523178Y541605D01*
X523113Y541664D01*
X523050Y541726D01*
X522991Y541791D01*
X522934Y541858D01*
X522880Y541928D01*
X522830Y542000D01*
X522783Y542074D01*
X522739Y542150D01*
X522699Y542229D01*
X522663Y542309D01*
X522630Y542390D01*
X522601Y542473D01*
X522575Y542558D01*
X522553Y542643D01*
X522536Y542729D01*
X522522Y542816D01*
X522512Y542903D01*
X522506Y542991D01*
X522504Y543079D01*
X526102Y539960D02*
X526176Y539914D01*
X526249Y539864D01*
X526319Y539811D01*
X526387Y539755D01*
X526452Y539696D01*
X526515Y539634D01*
X526574Y539569D01*
X526631Y539502D01*
X526685Y539432D01*
X526735Y539360D01*
X526782Y539286D01*
X526826Y539210D01*
X526866Y539131D01*
X526902Y539051D01*
X526935Y538970D01*
X526964Y538887D01*
X526990Y538802D01*
X527012Y538717D01*
X527029Y538631D01*
X527043Y538544D01*
X527053Y538457D01*
X527059Y538369D01*
X527061Y538281D01*
X526102Y539960D02*
X523463Y541400D01*
X531434Y536362D02*
X535272Y536362D01*
X531434Y536362D02*
X531434Y544998D01*
X535272Y544998D01*
X534312Y541160D02*
X531434Y541160D01*
X540817Y544998D02*
X540817Y536362D01*
X538418Y544998D02*
X543216Y544998D01*
X38100Y107188D02*
X34996Y104704D01*
X38100Y107188D02*
X38100Y96012D01*
X34996Y96012D02*
X41204Y96012D01*
X566095Y107188D02*
X566199Y107186D01*
X566304Y107180D01*
X566408Y107170D01*
X566511Y107157D01*
X566614Y107139D01*
X566717Y107118D01*
X566818Y107093D01*
X566919Y107064D01*
X567018Y107031D01*
X567116Y106995D01*
X567212Y106955D01*
X567307Y106911D01*
X567401Y106864D01*
X567492Y106814D01*
X567581Y106760D01*
X567669Y106703D01*
X567754Y106642D01*
X567837Y106578D01*
X567917Y106512D01*
X567995Y106442D01*
X568071Y106370D01*
X568143Y106294D01*
X568213Y106216D01*
X568279Y106136D01*
X568343Y106053D01*
X568404Y105968D01*
X568461Y105880D01*
X568515Y105791D01*
X568565Y105700D01*
X568612Y105606D01*
X568656Y105511D01*
X568696Y105415D01*
X568732Y105317D01*
X568765Y105218D01*
X568794Y105117D01*
X568819Y105016D01*
X568840Y104913D01*
X568858Y104810D01*
X568871Y104707D01*
X568881Y104603D01*
X568887Y104498D01*
X568889Y104394D01*
X566095Y107189D02*
X565976Y107187D01*
X565858Y107181D01*
X565739Y107171D01*
X565621Y107158D01*
X565504Y107140D01*
X565387Y107118D01*
X565271Y107093D01*
X565156Y107064D01*
X565041Y107031D01*
X564928Y106994D01*
X564817Y106954D01*
X564706Y106910D01*
X564598Y106862D01*
X564491Y106811D01*
X564385Y106756D01*
X564282Y106697D01*
X564180Y106636D01*
X564081Y106571D01*
X563983Y106502D01*
X563889Y106431D01*
X563796Y106356D01*
X563706Y106279D01*
X563619Y106198D01*
X563534Y106115D01*
X563452Y106029D01*
X563373Y105940D01*
X563297Y105849D01*
X563224Y105755D01*
X563155Y105659D01*
X563088Y105560D01*
X563025Y105460D01*
X562965Y105357D01*
X562908Y105253D01*
X562856Y105146D01*
X562806Y105038D01*
X562760Y104929D01*
X562718Y104817D01*
X562680Y104705D01*
X567958Y102221D02*
X568033Y102295D01*
X568105Y102372D01*
X568175Y102451D01*
X568242Y102533D01*
X568306Y102617D01*
X568367Y102703D01*
X568425Y102791D01*
X568480Y102882D01*
X568532Y102974D01*
X568580Y103068D01*
X568625Y103163D01*
X568667Y103261D01*
X568705Y103359D01*
X568740Y103459D01*
X568771Y103560D01*
X568798Y103662D01*
X568822Y103765D01*
X568843Y103868D01*
X568859Y103973D01*
X568872Y104078D01*
X568882Y104183D01*
X568887Y104288D01*
X568889Y104394D01*
X567958Y102221D02*
X562681Y96012D01*
X568889Y96012D01*
X577525Y107188D02*
X577629Y107186D01*
X577734Y107180D01*
X577838Y107170D01*
X577941Y107157D01*
X578044Y107139D01*
X578147Y107118D01*
X578248Y107093D01*
X578349Y107064D01*
X578448Y107031D01*
X578546Y106995D01*
X578642Y106955D01*
X578737Y106911D01*
X578831Y106864D01*
X578922Y106814D01*
X579011Y106760D01*
X579099Y106703D01*
X579184Y106642D01*
X579267Y106578D01*
X579347Y106512D01*
X579425Y106442D01*
X579501Y106370D01*
X579573Y106294D01*
X579643Y106216D01*
X579709Y106136D01*
X579773Y106053D01*
X579834Y105968D01*
X579891Y105880D01*
X579945Y105791D01*
X579995Y105700D01*
X580042Y105606D01*
X580086Y105511D01*
X580126Y105415D01*
X580162Y105317D01*
X580195Y105218D01*
X580224Y105117D01*
X580249Y105016D01*
X580270Y104913D01*
X580288Y104810D01*
X580301Y104707D01*
X580311Y104603D01*
X580317Y104498D01*
X580319Y104394D01*
X577525Y107189D02*
X577406Y107187D01*
X577288Y107181D01*
X577169Y107171D01*
X577051Y107158D01*
X576934Y107140D01*
X576817Y107118D01*
X576701Y107093D01*
X576586Y107064D01*
X576471Y107031D01*
X576358Y106994D01*
X576247Y106954D01*
X576136Y106910D01*
X576028Y106862D01*
X575921Y106811D01*
X575815Y106756D01*
X575712Y106697D01*
X575610Y106636D01*
X575511Y106571D01*
X575413Y106502D01*
X575319Y106431D01*
X575226Y106356D01*
X575136Y106279D01*
X575049Y106198D01*
X574964Y106115D01*
X574882Y106029D01*
X574803Y105940D01*
X574727Y105849D01*
X574654Y105755D01*
X574585Y105659D01*
X574518Y105560D01*
X574455Y105460D01*
X574395Y105357D01*
X574338Y105253D01*
X574286Y105146D01*
X574236Y105038D01*
X574190Y104929D01*
X574148Y104817D01*
X574110Y104705D01*
X579388Y102221D02*
X579463Y102295D01*
X579535Y102372D01*
X579605Y102451D01*
X579672Y102533D01*
X579736Y102617D01*
X579797Y102703D01*
X579855Y102791D01*
X579910Y102882D01*
X579962Y102974D01*
X580010Y103068D01*
X580055Y103163D01*
X580097Y103261D01*
X580135Y103359D01*
X580170Y103459D01*
X580201Y103560D01*
X580228Y103662D01*
X580252Y103765D01*
X580273Y103868D01*
X580289Y103973D01*
X580302Y104078D01*
X580312Y104183D01*
X580317Y104288D01*
X580319Y104394D01*
X579388Y102221D02*
X574111Y96012D01*
X580319Y96012D01*
X579628Y198628D02*
X579628Y334772D01*
X566166Y334772D01*
X156972Y334772D02*
X156972Y198628D01*
X166878Y198628D01*
X188722Y198628D02*
X195834Y198628D01*
X210566Y198628D02*
X221234Y198628D01*
X235966Y198628D02*
X246634Y198628D01*
X261366Y198628D02*
X272034Y198628D01*
X286766Y198628D02*
X297434Y198628D01*
X312166Y198628D02*
X322834Y198628D01*
X337566Y198628D02*
X348234Y198628D01*
X362966Y198628D02*
X373634Y198628D01*
X388366Y198628D02*
X399034Y198628D01*
X413766Y198628D02*
X424434Y198628D01*
X439166Y198628D02*
X449834Y198628D01*
X464566Y198628D02*
X475234Y198628D01*
X489966Y198628D02*
X500634Y198628D01*
X515366Y198628D02*
X526034Y198628D01*
X540766Y198628D02*
X551434Y198628D01*
X566166Y198628D02*
X579628Y198628D01*
X551434Y334772D02*
X540766Y334772D01*
X526034Y334772D02*
X515366Y334772D01*
X500634Y334772D02*
X489966Y334772D01*
X475234Y334772D02*
X464566Y334772D01*
X449834Y334772D02*
X439166Y334772D01*
X424434Y334772D02*
X413766Y334772D01*
X399034Y334772D02*
X388366Y334772D01*
X373634Y334772D02*
X362966Y334772D01*
X348234Y334772D02*
X337566Y334772D01*
X322834Y334772D02*
X312166Y334772D01*
X297434Y334772D02*
X286766Y334772D01*
X272034Y334772D02*
X261366Y334772D01*
X246634Y334772D02*
X235966Y334772D01*
X221234Y334772D02*
X210566Y334772D01*
X195834Y334772D02*
X185166Y334772D01*
X170434Y334772D02*
X156972Y334772D01*
D12*
X157480Y276860D02*
X157727Y276857D01*
X157975Y276848D01*
X158222Y276833D01*
X158468Y276812D01*
X158714Y276785D01*
X158959Y276752D01*
X159204Y276713D01*
X159447Y276668D01*
X159689Y276617D01*
X159930Y276560D01*
X160169Y276498D01*
X160407Y276429D01*
X160643Y276355D01*
X160877Y276275D01*
X161109Y276190D01*
X161339Y276098D01*
X161567Y276002D01*
X161792Y275899D01*
X162015Y275792D01*
X162235Y275678D01*
X162452Y275560D01*
X162667Y275436D01*
X162878Y275307D01*
X163086Y275173D01*
X163291Y275034D01*
X163492Y274890D01*
X163690Y274742D01*
X163884Y274588D01*
X164074Y274430D01*
X164260Y274267D01*
X164442Y274100D01*
X164620Y273928D01*
X164794Y273752D01*
X164964Y273572D01*
X165129Y273387D01*
X165289Y273199D01*
X165445Y273007D01*
X165597Y272811D01*
X165743Y272612D01*
X165885Y272409D01*
X166021Y272202D01*
X166153Y271993D01*
X166279Y271780D01*
X166400Y271564D01*
X166516Y271346D01*
X166626Y271124D01*
X166731Y270900D01*
X166831Y270674D01*
X166925Y270445D01*
X167013Y270214D01*
X167096Y269980D01*
X167173Y269745D01*
X167244Y269508D01*
X167310Y269270D01*
X167369Y269030D01*
X167423Y268788D01*
X167471Y268545D01*
X167513Y268302D01*
X167549Y268057D01*
X167579Y267811D01*
X167603Y267565D01*
X167621Y267318D01*
X167633Y267071D01*
X167639Y266824D01*
X167639Y266576D01*
X167633Y266329D01*
X167621Y266082D01*
X167603Y265835D01*
X167579Y265589D01*
X167549Y265343D01*
X167513Y265098D01*
X167471Y264855D01*
X167423Y264612D01*
X167369Y264370D01*
X167310Y264130D01*
X167244Y263892D01*
X167173Y263655D01*
X167096Y263420D01*
X167013Y263186D01*
X166925Y262955D01*
X166831Y262726D01*
X166731Y262500D01*
X166626Y262276D01*
X166516Y262054D01*
X166400Y261836D01*
X166279Y261620D01*
X166153Y261407D01*
X166021Y261198D01*
X165885Y260991D01*
X165743Y260788D01*
X165597Y260589D01*
X165445Y260393D01*
X165289Y260201D01*
X165129Y260013D01*
X164964Y259828D01*
X164794Y259648D01*
X164620Y259472D01*
X164442Y259300D01*
X164260Y259133D01*
X164074Y258970D01*
X163884Y258812D01*
X163690Y258658D01*
X163492Y258510D01*
X163291Y258366D01*
X163086Y258227D01*
X162878Y258093D01*
X162667Y257964D01*
X162452Y257840D01*
X162235Y257722D01*
X162015Y257608D01*
X161792Y257501D01*
X161567Y257398D01*
X161339Y257302D01*
X161109Y257210D01*
X160877Y257125D01*
X160643Y257045D01*
X160407Y256971D01*
X160169Y256902D01*
X159930Y256840D01*
X159689Y256783D01*
X159447Y256732D01*
X159204Y256687D01*
X158959Y256648D01*
X158714Y256615D01*
X158468Y256588D01*
X158222Y256567D01*
X157975Y256552D01*
X157727Y256543D01*
X157480Y256540D01*
D11*
X147969Y259831D02*
X141732Y259831D01*
X147969Y259831D02*
X148066Y259833D01*
X148162Y259839D01*
X148258Y259848D01*
X148354Y259862D01*
X148449Y259879D01*
X148543Y259901D01*
X148636Y259926D01*
X148729Y259954D01*
X148820Y259987D01*
X148909Y260023D01*
X148997Y260063D01*
X149084Y260106D01*
X149169Y260152D01*
X149251Y260202D01*
X149332Y260256D01*
X149410Y260312D01*
X149486Y260372D01*
X149560Y260434D01*
X149631Y260500D01*
X149699Y260568D01*
X149765Y260639D01*
X149827Y260713D01*
X149887Y260789D01*
X149943Y260867D01*
X149997Y260948D01*
X150047Y261031D01*
X150093Y261115D01*
X150136Y261202D01*
X150176Y261290D01*
X150212Y261379D01*
X150245Y261470D01*
X150273Y261563D01*
X150298Y261656D01*
X150320Y261750D01*
X150337Y261845D01*
X150351Y261941D01*
X150360Y262037D01*
X150366Y262133D01*
X150368Y262230D01*
X150366Y262327D01*
X150360Y262423D01*
X150351Y262519D01*
X150337Y262615D01*
X150320Y262710D01*
X150298Y262804D01*
X150273Y262897D01*
X150245Y262990D01*
X150212Y263081D01*
X150176Y263170D01*
X150136Y263258D01*
X150093Y263345D01*
X150047Y263430D01*
X149997Y263512D01*
X149943Y263593D01*
X149887Y263671D01*
X149827Y263747D01*
X149765Y263821D01*
X149699Y263892D01*
X149631Y263960D01*
X149560Y264026D01*
X149486Y264088D01*
X149410Y264148D01*
X149332Y264204D01*
X149251Y264258D01*
X149169Y264308D01*
X149084Y264354D01*
X148997Y264397D01*
X148909Y264437D01*
X148820Y264473D01*
X148729Y264506D01*
X148636Y264534D01*
X148543Y264559D01*
X148449Y264581D01*
X148354Y264598D01*
X148258Y264612D01*
X148162Y264621D01*
X148066Y264627D01*
X147969Y264629D01*
X141732Y264629D01*
X143651Y269280D02*
X141732Y271678D01*
X150368Y271678D01*
X150368Y269280D02*
X150368Y274077D01*
X102108Y307340D02*
X102108Y226060D01*
X66802Y222250D02*
X66680Y222252D01*
X66558Y222258D01*
X66436Y222268D01*
X66315Y222281D01*
X66194Y222299D01*
X66074Y222320D01*
X65954Y222346D01*
X65836Y222375D01*
X65718Y222407D01*
X65601Y222444D01*
X65486Y222484D01*
X65372Y222528D01*
X65260Y222576D01*
X65149Y222627D01*
X65040Y222682D01*
X64932Y222740D01*
X64827Y222802D01*
X64724Y222867D01*
X64622Y222935D01*
X64523Y223007D01*
X64427Y223081D01*
X64332Y223159D01*
X64241Y223240D01*
X64151Y223323D01*
X64065Y223409D01*
X63982Y223499D01*
X63901Y223590D01*
X63823Y223685D01*
X63749Y223781D01*
X63677Y223880D01*
X63609Y223982D01*
X63544Y224085D01*
X63482Y224190D01*
X63424Y224298D01*
X63369Y224407D01*
X63318Y224518D01*
X63270Y224630D01*
X63226Y224744D01*
X63186Y224859D01*
X63149Y224976D01*
X63117Y225094D01*
X63088Y225212D01*
X63062Y225332D01*
X63041Y225452D01*
X63023Y225573D01*
X63010Y225694D01*
X63000Y225816D01*
X62994Y225938D01*
X62992Y226060D01*
X102108Y307340D02*
X102106Y307462D01*
X102100Y307584D01*
X102090Y307706D01*
X102077Y307827D01*
X102059Y307948D01*
X102038Y308068D01*
X102012Y308188D01*
X101983Y308306D01*
X101951Y308424D01*
X101914Y308541D01*
X101874Y308656D01*
X101830Y308770D01*
X101782Y308882D01*
X101731Y308993D01*
X101676Y309102D01*
X101618Y309210D01*
X101556Y309315D01*
X101491Y309418D01*
X101423Y309520D01*
X101351Y309619D01*
X101277Y309715D01*
X101199Y309810D01*
X101118Y309901D01*
X101035Y309991D01*
X100949Y310077D01*
X100859Y310160D01*
X100768Y310241D01*
X100673Y310319D01*
X100577Y310393D01*
X100478Y310465D01*
X100376Y310533D01*
X100273Y310598D01*
X100168Y310660D01*
X100060Y310718D01*
X99951Y310773D01*
X99840Y310824D01*
X99728Y310872D01*
X99614Y310916D01*
X99499Y310956D01*
X99382Y310993D01*
X99264Y311025D01*
X99146Y311054D01*
X99026Y311080D01*
X98906Y311101D01*
X98785Y311119D01*
X98664Y311132D01*
X98542Y311142D01*
X98420Y311148D01*
X98298Y311150D01*
X102108Y226060D02*
X102106Y225938D01*
X102100Y225816D01*
X102090Y225694D01*
X102077Y225573D01*
X102059Y225452D01*
X102038Y225332D01*
X102012Y225212D01*
X101983Y225094D01*
X101951Y224976D01*
X101914Y224859D01*
X101874Y224744D01*
X101830Y224630D01*
X101782Y224518D01*
X101731Y224407D01*
X101676Y224298D01*
X101618Y224190D01*
X101556Y224085D01*
X101491Y223982D01*
X101423Y223880D01*
X101351Y223781D01*
X101277Y223685D01*
X101199Y223590D01*
X101118Y223499D01*
X101035Y223409D01*
X100949Y223323D01*
X100859Y223240D01*
X100768Y223159D01*
X100673Y223081D01*
X100577Y223007D01*
X100478Y222935D01*
X100376Y222867D01*
X100273Y222802D01*
X100168Y222740D01*
X100060Y222682D01*
X99951Y222627D01*
X99840Y222576D01*
X99728Y222528D01*
X99614Y222484D01*
X99499Y222444D01*
X99382Y222407D01*
X99264Y222375D01*
X99146Y222346D01*
X99026Y222320D01*
X98906Y222299D01*
X98785Y222281D01*
X98664Y222268D01*
X98542Y222258D01*
X98420Y222252D01*
X98298Y222250D01*
X62992Y307340D02*
X62994Y307462D01*
X63000Y307584D01*
X63010Y307706D01*
X63023Y307827D01*
X63041Y307948D01*
X63062Y308068D01*
X63088Y308188D01*
X63117Y308306D01*
X63149Y308424D01*
X63186Y308541D01*
X63226Y308656D01*
X63270Y308770D01*
X63318Y308882D01*
X63369Y308993D01*
X63424Y309102D01*
X63482Y309210D01*
X63544Y309315D01*
X63609Y309418D01*
X63677Y309520D01*
X63749Y309619D01*
X63823Y309715D01*
X63901Y309810D01*
X63982Y309901D01*
X64065Y309991D01*
X64151Y310077D01*
X64241Y310160D01*
X64332Y310241D01*
X64427Y310319D01*
X64523Y310393D01*
X64622Y310465D01*
X64724Y310533D01*
X64827Y310598D01*
X64932Y310660D01*
X65040Y310718D01*
X65149Y310773D01*
X65260Y310824D01*
X65372Y310872D01*
X65486Y310916D01*
X65601Y310956D01*
X65718Y310993D01*
X65836Y311025D01*
X65954Y311054D01*
X66074Y311080D01*
X66194Y311101D01*
X66315Y311119D01*
X66436Y311132D01*
X66558Y311142D01*
X66680Y311148D01*
X66802Y311150D01*
X62992Y307340D02*
X62992Y226060D01*
X66802Y222250D02*
X98298Y222250D01*
X98298Y311150D02*
X87630Y311150D01*
X77470Y311150D01*
X66802Y311150D01*
X77470Y311150D02*
X77472Y311009D01*
X77478Y310868D01*
X77488Y310727D01*
X77501Y310586D01*
X77519Y310446D01*
X77541Y310307D01*
X77566Y310168D01*
X77595Y310029D01*
X77628Y309892D01*
X77665Y309756D01*
X77706Y309621D01*
X77750Y309486D01*
X77798Y309354D01*
X77850Y309222D01*
X77905Y309092D01*
X77964Y308964D01*
X78027Y308837D01*
X78093Y308713D01*
X78162Y308590D01*
X78235Y308469D01*
X78311Y308350D01*
X78391Y308233D01*
X78474Y308119D01*
X78559Y308006D01*
X78648Y307897D01*
X78740Y307789D01*
X78835Y307685D01*
X78933Y307583D01*
X79034Y307484D01*
X79137Y307387D01*
X79243Y307294D01*
X79351Y307204D01*
X79462Y307116D01*
X79575Y307032D01*
X79691Y306951D01*
X79809Y306873D01*
X79929Y306798D01*
X80051Y306727D01*
X80175Y306659D01*
X80301Y306595D01*
X80428Y306534D01*
X80557Y306477D01*
X80688Y306424D01*
X80820Y306374D01*
X80953Y306327D01*
X81088Y306285D01*
X81224Y306246D01*
X81361Y306211D01*
X81498Y306180D01*
X81637Y306153D01*
X81776Y306129D01*
X81916Y306110D01*
X82056Y306094D01*
X82197Y306082D01*
X82338Y306074D01*
X82479Y306070D01*
X82621Y306070D01*
X82762Y306074D01*
X82903Y306082D01*
X83044Y306094D01*
X83184Y306110D01*
X83324Y306129D01*
X83463Y306153D01*
X83602Y306180D01*
X83739Y306211D01*
X83876Y306246D01*
X84012Y306285D01*
X84147Y306327D01*
X84280Y306374D01*
X84412Y306424D01*
X84543Y306477D01*
X84672Y306534D01*
X84799Y306595D01*
X84925Y306659D01*
X85049Y306727D01*
X85171Y306798D01*
X85291Y306873D01*
X85409Y306951D01*
X85525Y307032D01*
X85638Y307116D01*
X85749Y307204D01*
X85857Y307294D01*
X85963Y307387D01*
X86066Y307484D01*
X86167Y307583D01*
X86265Y307685D01*
X86360Y307789D01*
X86452Y307897D01*
X86541Y308006D01*
X86626Y308119D01*
X86709Y308233D01*
X86789Y308350D01*
X86865Y308469D01*
X86938Y308590D01*
X87007Y308713D01*
X87073Y308837D01*
X87136Y308964D01*
X87195Y309092D01*
X87250Y309222D01*
X87302Y309354D01*
X87350Y309486D01*
X87394Y309621D01*
X87435Y309756D01*
X87472Y309892D01*
X87505Y310029D01*
X87534Y310168D01*
X87559Y310307D01*
X87581Y310446D01*
X87599Y310586D01*
X87612Y310727D01*
X87622Y310868D01*
X87628Y311009D01*
X87630Y311150D01*
D13*
X66548Y311150D02*
X66548Y222250D01*
D11*
X75427Y216408D02*
X75427Y210171D01*
X75429Y210074D01*
X75435Y209978D01*
X75444Y209882D01*
X75458Y209786D01*
X75475Y209691D01*
X75497Y209597D01*
X75522Y209504D01*
X75550Y209411D01*
X75583Y209320D01*
X75619Y209231D01*
X75659Y209143D01*
X75702Y209056D01*
X75748Y208972D01*
X75798Y208889D01*
X75852Y208808D01*
X75908Y208730D01*
X75968Y208654D01*
X76030Y208580D01*
X76096Y208509D01*
X76164Y208441D01*
X76235Y208375D01*
X76309Y208313D01*
X76385Y208253D01*
X76463Y208197D01*
X76544Y208143D01*
X76626Y208093D01*
X76711Y208047D01*
X76798Y208004D01*
X76886Y207964D01*
X76975Y207928D01*
X77066Y207895D01*
X77159Y207867D01*
X77252Y207842D01*
X77346Y207820D01*
X77441Y207803D01*
X77537Y207789D01*
X77633Y207780D01*
X77729Y207774D01*
X77826Y207772D01*
X77923Y207774D01*
X78019Y207780D01*
X78115Y207789D01*
X78211Y207803D01*
X78306Y207820D01*
X78400Y207842D01*
X78493Y207867D01*
X78586Y207895D01*
X78677Y207928D01*
X78766Y207964D01*
X78854Y208004D01*
X78941Y208047D01*
X79025Y208093D01*
X79108Y208143D01*
X79189Y208197D01*
X79267Y208253D01*
X79343Y208313D01*
X79417Y208375D01*
X79488Y208441D01*
X79556Y208509D01*
X79622Y208580D01*
X79684Y208654D01*
X79744Y208730D01*
X79800Y208808D01*
X79854Y208889D01*
X79904Y208971D01*
X79950Y209056D01*
X79993Y209143D01*
X80033Y209231D01*
X80069Y209320D01*
X80102Y209411D01*
X80130Y209504D01*
X80155Y209597D01*
X80177Y209691D01*
X80194Y209786D01*
X80208Y209882D01*
X80217Y209978D01*
X80223Y210074D01*
X80225Y210171D01*
X80224Y210171D02*
X80224Y216408D01*
X87514Y216408D02*
X87606Y216406D01*
X87697Y216400D01*
X87788Y216391D01*
X87879Y216377D01*
X87969Y216360D01*
X88058Y216338D01*
X88146Y216313D01*
X88233Y216285D01*
X88319Y216252D01*
X88403Y216216D01*
X88486Y216177D01*
X88567Y216134D01*
X88646Y216087D01*
X88723Y216038D01*
X88798Y215985D01*
X88870Y215929D01*
X88940Y215870D01*
X89008Y215808D01*
X89073Y215743D01*
X89135Y215675D01*
X89194Y215605D01*
X89250Y215533D01*
X89303Y215458D01*
X89352Y215381D01*
X89399Y215302D01*
X89442Y215221D01*
X89481Y215138D01*
X89517Y215054D01*
X89550Y214968D01*
X89578Y214881D01*
X89603Y214793D01*
X89625Y214704D01*
X89642Y214614D01*
X89656Y214523D01*
X89665Y214432D01*
X89671Y214341D01*
X89673Y214249D01*
X87514Y216408D02*
X87411Y216406D01*
X87309Y216400D01*
X87207Y216391D01*
X87105Y216378D01*
X87004Y216361D01*
X86903Y216340D01*
X86804Y216316D01*
X86705Y216287D01*
X86608Y216256D01*
X86511Y216220D01*
X86416Y216182D01*
X86323Y216139D01*
X86231Y216093D01*
X86141Y216044D01*
X86053Y215992D01*
X85966Y215936D01*
X85882Y215877D01*
X85801Y215816D01*
X85721Y215751D01*
X85644Y215683D01*
X85569Y215612D01*
X85498Y215539D01*
X85429Y215463D01*
X85362Y215385D01*
X85299Y215304D01*
X85239Y215221D01*
X85182Y215136D01*
X85128Y215049D01*
X85077Y214959D01*
X85030Y214868D01*
X84986Y214776D01*
X84945Y214681D01*
X84908Y214586D01*
X84875Y214489D01*
X88953Y212570D02*
X89020Y212636D01*
X89084Y212705D01*
X89145Y212776D01*
X89203Y212850D01*
X89258Y212926D01*
X89310Y213004D01*
X89359Y213084D01*
X89405Y213166D01*
X89447Y213250D01*
X89486Y213336D01*
X89521Y213423D01*
X89552Y213511D01*
X89580Y213601D01*
X89605Y213691D01*
X89626Y213783D01*
X89643Y213875D01*
X89656Y213968D01*
X89665Y214061D01*
X89671Y214155D01*
X89673Y214249D01*
X88954Y212570D02*
X84876Y207772D01*
X89673Y207772D01*
X79192Y235091D02*
X78232Y235091D01*
X78232Y239889D01*
X86868Y237490D01*
X84949Y244235D02*
X78232Y246154D01*
X84949Y244235D02*
X84949Y249033D01*
X83030Y247594D02*
X86868Y247594D01*
X86868Y253710D02*
X78232Y253710D01*
X86868Y253710D02*
X86868Y257548D01*
X86868Y263878D02*
X86866Y263964D01*
X86860Y264050D01*
X86851Y264136D01*
X86837Y264221D01*
X86820Y264305D01*
X86799Y264389D01*
X86774Y264471D01*
X86746Y264552D01*
X86714Y264632D01*
X86678Y264711D01*
X86639Y264787D01*
X86596Y264862D01*
X86551Y264935D01*
X86502Y265006D01*
X86449Y265074D01*
X86394Y265141D01*
X86336Y265204D01*
X86275Y265265D01*
X86212Y265323D01*
X86145Y265378D01*
X86077Y265431D01*
X86006Y265480D01*
X85933Y265525D01*
X85858Y265568D01*
X85782Y265607D01*
X85703Y265643D01*
X85623Y265675D01*
X85542Y265703D01*
X85460Y265728D01*
X85376Y265749D01*
X85292Y265766D01*
X85207Y265780D01*
X85121Y265789D01*
X85035Y265795D01*
X84949Y265797D01*
X86868Y263878D02*
X86866Y263755D01*
X86861Y263632D01*
X86851Y263509D01*
X86838Y263387D01*
X86821Y263265D01*
X86801Y263143D01*
X86777Y263023D01*
X86749Y262903D01*
X86718Y262784D01*
X86682Y262666D01*
X86644Y262549D01*
X86602Y262433D01*
X86556Y262319D01*
X86507Y262206D01*
X86455Y262095D01*
X86399Y261985D01*
X86340Y261877D01*
X86277Y261771D01*
X86212Y261667D01*
X86143Y261564D01*
X86071Y261464D01*
X85996Y261367D01*
X85919Y261271D01*
X85838Y261178D01*
X85755Y261087D01*
X85669Y260999D01*
X80151Y261239D02*
X80065Y261241D01*
X79979Y261247D01*
X79893Y261256D01*
X79808Y261270D01*
X79724Y261287D01*
X79640Y261308D01*
X79558Y261333D01*
X79477Y261361D01*
X79397Y261393D01*
X79318Y261429D01*
X79242Y261468D01*
X79167Y261511D01*
X79094Y261556D01*
X79023Y261605D01*
X78955Y261658D01*
X78888Y261713D01*
X78825Y261771D01*
X78764Y261832D01*
X78706Y261895D01*
X78651Y261962D01*
X78598Y262030D01*
X78549Y262101D01*
X78504Y262174D01*
X78461Y262249D01*
X78422Y262325D01*
X78386Y262404D01*
X78354Y262484D01*
X78326Y262565D01*
X78301Y262647D01*
X78280Y262731D01*
X78263Y262815D01*
X78249Y262900D01*
X78240Y262986D01*
X78234Y263072D01*
X78232Y263158D01*
X78234Y263274D01*
X78239Y263389D01*
X78249Y263505D01*
X78262Y263620D01*
X78278Y263734D01*
X78299Y263848D01*
X78323Y263962D01*
X78351Y264074D01*
X78382Y264185D01*
X78417Y264296D01*
X78455Y264405D01*
X78497Y264513D01*
X78542Y264619D01*
X78591Y264725D01*
X78643Y264828D01*
X78698Y264930D01*
X78757Y265029D01*
X78819Y265127D01*
X78884Y265223D01*
X78952Y265317D01*
X81830Y262199D02*
X81784Y262124D01*
X81734Y262051D01*
X81681Y261981D01*
X81625Y261913D01*
X81566Y261848D01*
X81504Y261785D01*
X81440Y261726D01*
X81372Y261669D01*
X81302Y261615D01*
X81230Y261565D01*
X81156Y261518D01*
X81080Y261474D01*
X81001Y261434D01*
X80921Y261398D01*
X80840Y261365D01*
X80757Y261336D01*
X80672Y261310D01*
X80587Y261288D01*
X80501Y261271D01*
X80414Y261257D01*
X80327Y261247D01*
X80239Y261241D01*
X80151Y261239D01*
X83270Y264838D02*
X83316Y264912D01*
X83366Y264985D01*
X83419Y265055D01*
X83475Y265123D01*
X83534Y265188D01*
X83596Y265251D01*
X83661Y265310D01*
X83728Y265367D01*
X83798Y265421D01*
X83870Y265471D01*
X83944Y265518D01*
X84020Y265562D01*
X84099Y265602D01*
X84179Y265638D01*
X84260Y265671D01*
X84343Y265701D01*
X84428Y265726D01*
X84513Y265748D01*
X84599Y265765D01*
X84686Y265779D01*
X84773Y265789D01*
X84861Y265795D01*
X84949Y265797D01*
X83270Y264837D02*
X81830Y262199D01*
X82550Y269838D02*
X82380Y269840D01*
X82210Y269846D01*
X82041Y269856D01*
X81871Y269870D01*
X81702Y269889D01*
X81534Y269911D01*
X81366Y269937D01*
X81199Y269967D01*
X81033Y270002D01*
X80867Y270040D01*
X80702Y270082D01*
X80539Y270128D01*
X80377Y270178D01*
X80215Y270232D01*
X80056Y270289D01*
X79897Y270351D01*
X79740Y270416D01*
X79585Y270485D01*
X79431Y270558D01*
X79355Y270586D01*
X79280Y270618D01*
X79206Y270653D01*
X79134Y270691D01*
X79064Y270733D01*
X78996Y270778D01*
X78930Y270826D01*
X78866Y270877D01*
X78805Y270931D01*
X78746Y270987D01*
X78690Y271047D01*
X78637Y271108D01*
X78587Y271172D01*
X78539Y271239D01*
X78495Y271307D01*
X78454Y271378D01*
X78416Y271450D01*
X78382Y271524D01*
X78351Y271599D01*
X78323Y271676D01*
X78299Y271754D01*
X78279Y271833D01*
X78262Y271913D01*
X78249Y271993D01*
X78239Y272074D01*
X78234Y272155D01*
X78232Y272237D01*
X78234Y272319D01*
X78239Y272400D01*
X78249Y272481D01*
X78262Y272561D01*
X78279Y272641D01*
X78299Y272720D01*
X78323Y272798D01*
X78351Y272875D01*
X78382Y272950D01*
X78416Y273024D01*
X78454Y273096D01*
X78495Y273167D01*
X78539Y273235D01*
X78587Y273302D01*
X78637Y273366D01*
X78690Y273427D01*
X78746Y273487D01*
X78805Y273543D01*
X78866Y273597D01*
X78930Y273648D01*
X78996Y273696D01*
X79064Y273741D01*
X79134Y273783D01*
X79206Y273821D01*
X79280Y273856D01*
X79355Y273888D01*
X79431Y273916D01*
X79585Y273989D01*
X79740Y274058D01*
X79897Y274123D01*
X80056Y274185D01*
X80215Y274242D01*
X80377Y274296D01*
X80539Y274346D01*
X80702Y274392D01*
X80867Y274434D01*
X81033Y274472D01*
X81199Y274507D01*
X81366Y274537D01*
X81534Y274563D01*
X81702Y274585D01*
X81871Y274604D01*
X82041Y274618D01*
X82210Y274628D01*
X82380Y274634D01*
X82550Y274636D01*
X82550Y269838D02*
X82720Y269840D01*
X82890Y269846D01*
X83059Y269856D01*
X83229Y269870D01*
X83398Y269889D01*
X83566Y269911D01*
X83734Y269937D01*
X83901Y269967D01*
X84067Y270002D01*
X84233Y270040D01*
X84398Y270082D01*
X84561Y270128D01*
X84723Y270178D01*
X84885Y270232D01*
X85044Y270289D01*
X85203Y270351D01*
X85360Y270416D01*
X85515Y270485D01*
X85669Y270558D01*
X85745Y270586D01*
X85820Y270618D01*
X85894Y270653D01*
X85966Y270691D01*
X86036Y270733D01*
X86104Y270778D01*
X86170Y270826D01*
X86234Y270877D01*
X86295Y270931D01*
X86354Y270987D01*
X86410Y271047D01*
X86463Y271108D01*
X86513Y271172D01*
X86561Y271239D01*
X86605Y271307D01*
X86646Y271378D01*
X86684Y271450D01*
X86718Y271524D01*
X86749Y271599D01*
X86777Y271676D01*
X86801Y271754D01*
X86821Y271833D01*
X86838Y271913D01*
X86851Y271993D01*
X86861Y272074D01*
X86866Y272155D01*
X86868Y272237D01*
X85669Y273916D02*
X85515Y273989D01*
X85360Y274058D01*
X85203Y274123D01*
X85044Y274185D01*
X84885Y274242D01*
X84723Y274296D01*
X84561Y274346D01*
X84398Y274392D01*
X84233Y274434D01*
X84067Y274472D01*
X83901Y274507D01*
X83734Y274537D01*
X83566Y274563D01*
X83398Y274585D01*
X83229Y274604D01*
X83059Y274618D01*
X82890Y274628D01*
X82720Y274634D01*
X82550Y274636D01*
X85669Y273916D02*
X85745Y273888D01*
X85820Y273856D01*
X85894Y273821D01*
X85966Y273783D01*
X86036Y273741D01*
X86104Y273696D01*
X86170Y273648D01*
X86234Y273597D01*
X86295Y273543D01*
X86354Y273487D01*
X86410Y273427D01*
X86463Y273366D01*
X86513Y273302D01*
X86561Y273235D01*
X86605Y273167D01*
X86646Y273096D01*
X86684Y273024D01*
X86718Y272950D01*
X86749Y272875D01*
X86777Y272798D01*
X86801Y272720D01*
X86821Y272641D01*
X86838Y272561D01*
X86851Y272481D01*
X86861Y272400D01*
X86866Y272319D01*
X86868Y272237D01*
X84949Y270318D02*
X80151Y274156D01*
X78232Y281621D02*
X78234Y281713D01*
X78240Y281804D01*
X78249Y281895D01*
X78263Y281986D01*
X78280Y282076D01*
X78302Y282165D01*
X78327Y282253D01*
X78355Y282340D01*
X78388Y282426D01*
X78424Y282510D01*
X78463Y282593D01*
X78506Y282674D01*
X78553Y282753D01*
X78602Y282830D01*
X78655Y282905D01*
X78711Y282977D01*
X78770Y283047D01*
X78832Y283115D01*
X78897Y283180D01*
X78965Y283242D01*
X79035Y283301D01*
X79107Y283357D01*
X79182Y283410D01*
X79259Y283459D01*
X79338Y283506D01*
X79419Y283549D01*
X79502Y283588D01*
X79586Y283624D01*
X79672Y283657D01*
X79759Y283685D01*
X79847Y283710D01*
X79936Y283732D01*
X80026Y283749D01*
X80117Y283763D01*
X80208Y283772D01*
X80299Y283778D01*
X80391Y283780D01*
X78232Y281621D02*
X78234Y281518D01*
X78240Y281416D01*
X78249Y281314D01*
X78262Y281212D01*
X78279Y281111D01*
X78300Y281010D01*
X78324Y280911D01*
X78353Y280812D01*
X78384Y280715D01*
X78420Y280618D01*
X78458Y280523D01*
X78501Y280430D01*
X78547Y280338D01*
X78596Y280248D01*
X78648Y280160D01*
X78704Y280073D01*
X78763Y279989D01*
X78824Y279908D01*
X78889Y279828D01*
X78957Y279751D01*
X79028Y279676D01*
X79101Y279605D01*
X79177Y279536D01*
X79255Y279469D01*
X79336Y279406D01*
X79419Y279346D01*
X79504Y279289D01*
X79591Y279235D01*
X79681Y279184D01*
X79772Y279137D01*
X79864Y279093D01*
X79959Y279052D01*
X80054Y279015D01*
X80151Y278982D01*
X82070Y283060D02*
X82004Y283127D01*
X81935Y283191D01*
X81864Y283252D01*
X81790Y283310D01*
X81714Y283365D01*
X81636Y283417D01*
X81556Y283466D01*
X81474Y283512D01*
X81390Y283554D01*
X81304Y283593D01*
X81217Y283628D01*
X81129Y283659D01*
X81039Y283687D01*
X80949Y283712D01*
X80857Y283733D01*
X80765Y283750D01*
X80672Y283763D01*
X80579Y283772D01*
X80485Y283778D01*
X80391Y283780D01*
X82070Y283060D02*
X86868Y278982D01*
X86868Y283780D01*
X86868Y288431D02*
X78232Y288431D01*
X78232Y290830D01*
X78234Y290927D01*
X78240Y291023D01*
X78249Y291119D01*
X78263Y291215D01*
X78280Y291310D01*
X78302Y291404D01*
X78327Y291497D01*
X78355Y291590D01*
X78388Y291681D01*
X78424Y291770D01*
X78464Y291858D01*
X78507Y291945D01*
X78553Y292030D01*
X78603Y292112D01*
X78657Y292193D01*
X78713Y292271D01*
X78773Y292347D01*
X78835Y292421D01*
X78901Y292492D01*
X78969Y292560D01*
X79040Y292626D01*
X79114Y292688D01*
X79190Y292748D01*
X79268Y292804D01*
X79349Y292858D01*
X79432Y292908D01*
X79516Y292954D01*
X79603Y292997D01*
X79691Y293037D01*
X79780Y293073D01*
X79871Y293106D01*
X79964Y293134D01*
X80057Y293159D01*
X80151Y293181D01*
X80246Y293198D01*
X80342Y293212D01*
X80438Y293221D01*
X80534Y293227D01*
X80631Y293229D01*
X84469Y293229D01*
X84566Y293227D01*
X84662Y293221D01*
X84758Y293212D01*
X84854Y293198D01*
X84949Y293181D01*
X85043Y293159D01*
X85136Y293134D01*
X85229Y293106D01*
X85320Y293073D01*
X85409Y293037D01*
X85497Y292997D01*
X85584Y292954D01*
X85669Y292908D01*
X85751Y292858D01*
X85832Y292804D01*
X85910Y292748D01*
X85986Y292688D01*
X86060Y292626D01*
X86131Y292560D01*
X86199Y292492D01*
X86265Y292421D01*
X86327Y292347D01*
X86387Y292271D01*
X86443Y292193D01*
X86497Y292112D01*
X86547Y292030D01*
X86593Y291945D01*
X86636Y291858D01*
X86676Y291770D01*
X86712Y291681D01*
X86745Y291590D01*
X86773Y291497D01*
X86798Y291404D01*
X86820Y291310D01*
X86837Y291215D01*
X86851Y291119D01*
X86860Y291023D01*
X86866Y290927D01*
X86868Y290830D01*
X86868Y288431D01*
X422910Y451358D02*
X516890Y451358D01*
X520700Y416052D02*
X520698Y415930D01*
X520692Y415808D01*
X520682Y415686D01*
X520669Y415565D01*
X520651Y415444D01*
X520630Y415324D01*
X520604Y415204D01*
X520575Y415086D01*
X520543Y414968D01*
X520506Y414851D01*
X520466Y414736D01*
X520422Y414622D01*
X520374Y414510D01*
X520323Y414399D01*
X520268Y414290D01*
X520210Y414182D01*
X520148Y414077D01*
X520083Y413974D01*
X520015Y413872D01*
X519943Y413773D01*
X519869Y413677D01*
X519791Y413582D01*
X519710Y413491D01*
X519627Y413401D01*
X519541Y413315D01*
X519451Y413232D01*
X519360Y413151D01*
X519265Y413073D01*
X519169Y412999D01*
X519070Y412927D01*
X518968Y412859D01*
X518865Y412794D01*
X518760Y412732D01*
X518652Y412674D01*
X518543Y412619D01*
X518432Y412568D01*
X518320Y412520D01*
X518206Y412476D01*
X518091Y412436D01*
X517974Y412399D01*
X517856Y412367D01*
X517738Y412338D01*
X517618Y412312D01*
X517498Y412291D01*
X517377Y412273D01*
X517256Y412260D01*
X517134Y412250D01*
X517012Y412244D01*
X516890Y412242D01*
X422910Y451358D02*
X422788Y451356D01*
X422666Y451350D01*
X422544Y451340D01*
X422423Y451327D01*
X422302Y451309D01*
X422182Y451288D01*
X422062Y451262D01*
X421944Y451233D01*
X421826Y451201D01*
X421709Y451164D01*
X421594Y451124D01*
X421480Y451080D01*
X421368Y451032D01*
X421257Y450981D01*
X421148Y450926D01*
X421040Y450868D01*
X420935Y450806D01*
X420832Y450741D01*
X420730Y450673D01*
X420631Y450601D01*
X420535Y450527D01*
X420440Y450449D01*
X420349Y450368D01*
X420259Y450285D01*
X420173Y450199D01*
X420090Y450109D01*
X420009Y450018D01*
X419931Y449923D01*
X419857Y449827D01*
X419785Y449728D01*
X419717Y449626D01*
X419652Y449523D01*
X419590Y449418D01*
X419532Y449310D01*
X419477Y449201D01*
X419426Y449090D01*
X419378Y448978D01*
X419334Y448864D01*
X419294Y448749D01*
X419257Y448632D01*
X419225Y448514D01*
X419196Y448396D01*
X419170Y448276D01*
X419149Y448156D01*
X419131Y448035D01*
X419118Y447914D01*
X419108Y447792D01*
X419102Y447670D01*
X419100Y447548D01*
X516890Y451358D02*
X517012Y451356D01*
X517134Y451350D01*
X517256Y451340D01*
X517377Y451327D01*
X517498Y451309D01*
X517618Y451288D01*
X517738Y451262D01*
X517856Y451233D01*
X517974Y451201D01*
X518091Y451164D01*
X518206Y451124D01*
X518320Y451080D01*
X518432Y451032D01*
X518543Y450981D01*
X518652Y450926D01*
X518760Y450868D01*
X518865Y450806D01*
X518968Y450741D01*
X519070Y450673D01*
X519169Y450601D01*
X519265Y450527D01*
X519360Y450449D01*
X519451Y450368D01*
X519541Y450285D01*
X519627Y450199D01*
X519710Y450109D01*
X519791Y450018D01*
X519869Y449923D01*
X519943Y449827D01*
X520015Y449728D01*
X520083Y449626D01*
X520148Y449523D01*
X520210Y449418D01*
X520268Y449310D01*
X520323Y449201D01*
X520374Y449090D01*
X520422Y448978D01*
X520466Y448864D01*
X520506Y448749D01*
X520543Y448632D01*
X520575Y448514D01*
X520604Y448396D01*
X520630Y448276D01*
X520651Y448156D01*
X520669Y448035D01*
X520682Y447914D01*
X520692Y447792D01*
X520698Y447670D01*
X520700Y447548D01*
X422910Y412242D02*
X422788Y412244D01*
X422666Y412250D01*
X422544Y412260D01*
X422423Y412273D01*
X422302Y412291D01*
X422182Y412312D01*
X422062Y412338D01*
X421944Y412367D01*
X421826Y412399D01*
X421709Y412436D01*
X421594Y412476D01*
X421480Y412520D01*
X421368Y412568D01*
X421257Y412619D01*
X421148Y412674D01*
X421040Y412732D01*
X420935Y412794D01*
X420832Y412859D01*
X420730Y412927D01*
X420631Y412999D01*
X420535Y413073D01*
X420440Y413151D01*
X420349Y413232D01*
X420259Y413315D01*
X420173Y413401D01*
X420090Y413491D01*
X420009Y413582D01*
X419931Y413677D01*
X419857Y413773D01*
X419785Y413872D01*
X419717Y413974D01*
X419652Y414077D01*
X419590Y414182D01*
X419532Y414290D01*
X419477Y414399D01*
X419426Y414510D01*
X419378Y414622D01*
X419334Y414736D01*
X419294Y414851D01*
X419257Y414968D01*
X419225Y415086D01*
X419196Y415204D01*
X419170Y415324D01*
X419149Y415444D01*
X419131Y415565D01*
X419118Y415686D01*
X419108Y415808D01*
X419102Y415930D01*
X419100Y416052D01*
X422910Y412242D02*
X516890Y412242D01*
X520700Y416052D02*
X520700Y447548D01*
X419100Y447548D02*
X419100Y436880D01*
X419100Y426720D01*
X419100Y416052D01*
X419100Y426720D02*
X419241Y426722D01*
X419382Y426728D01*
X419523Y426738D01*
X419664Y426751D01*
X419804Y426769D01*
X419943Y426791D01*
X420082Y426816D01*
X420221Y426845D01*
X420358Y426878D01*
X420494Y426915D01*
X420629Y426956D01*
X420764Y427000D01*
X420896Y427048D01*
X421028Y427100D01*
X421158Y427155D01*
X421286Y427214D01*
X421413Y427277D01*
X421537Y427343D01*
X421660Y427412D01*
X421781Y427485D01*
X421900Y427561D01*
X422017Y427641D01*
X422131Y427724D01*
X422244Y427809D01*
X422353Y427898D01*
X422461Y427990D01*
X422565Y428085D01*
X422667Y428183D01*
X422766Y428284D01*
X422863Y428387D01*
X422956Y428493D01*
X423046Y428601D01*
X423134Y428712D01*
X423218Y428825D01*
X423299Y428941D01*
X423377Y429059D01*
X423452Y429179D01*
X423523Y429301D01*
X423591Y429425D01*
X423655Y429551D01*
X423716Y429678D01*
X423773Y429807D01*
X423826Y429938D01*
X423876Y430070D01*
X423923Y430203D01*
X423965Y430338D01*
X424004Y430474D01*
X424039Y430611D01*
X424070Y430748D01*
X424097Y430887D01*
X424121Y431026D01*
X424140Y431166D01*
X424156Y431306D01*
X424168Y431447D01*
X424176Y431588D01*
X424180Y431729D01*
X424180Y431871D01*
X424176Y432012D01*
X424168Y432153D01*
X424156Y432294D01*
X424140Y432434D01*
X424121Y432574D01*
X424097Y432713D01*
X424070Y432852D01*
X424039Y432989D01*
X424004Y433126D01*
X423965Y433262D01*
X423923Y433397D01*
X423876Y433530D01*
X423826Y433662D01*
X423773Y433793D01*
X423716Y433922D01*
X423655Y434049D01*
X423591Y434175D01*
X423523Y434299D01*
X423452Y434421D01*
X423377Y434541D01*
X423299Y434659D01*
X423218Y434775D01*
X423134Y434888D01*
X423046Y434999D01*
X422956Y435107D01*
X422863Y435213D01*
X422766Y435316D01*
X422667Y435417D01*
X422565Y435515D01*
X422461Y435610D01*
X422353Y435702D01*
X422244Y435791D01*
X422131Y435876D01*
X422017Y435959D01*
X421900Y436039D01*
X421781Y436115D01*
X421660Y436188D01*
X421537Y436257D01*
X421413Y436323D01*
X421286Y436386D01*
X421158Y436445D01*
X421028Y436500D01*
X420896Y436552D01*
X420764Y436600D01*
X420629Y436644D01*
X420494Y436685D01*
X420358Y436722D01*
X420221Y436755D01*
X420082Y436784D01*
X419943Y436809D01*
X419804Y436831D01*
X419664Y436849D01*
X419523Y436862D01*
X419382Y436872D01*
X419241Y436878D01*
X419100Y436880D01*
D13*
X419100Y415798D02*
X520700Y415798D01*
D11*
X526542Y424677D02*
X532779Y424677D01*
X532876Y424679D01*
X532972Y424685D01*
X533068Y424694D01*
X533164Y424708D01*
X533259Y424725D01*
X533353Y424747D01*
X533446Y424772D01*
X533539Y424800D01*
X533630Y424833D01*
X533719Y424869D01*
X533807Y424909D01*
X533894Y424952D01*
X533979Y424998D01*
X534061Y425048D01*
X534142Y425102D01*
X534220Y425158D01*
X534296Y425218D01*
X534370Y425280D01*
X534441Y425346D01*
X534509Y425414D01*
X534575Y425485D01*
X534637Y425559D01*
X534697Y425635D01*
X534753Y425713D01*
X534807Y425794D01*
X534857Y425877D01*
X534903Y425961D01*
X534946Y426048D01*
X534986Y426136D01*
X535022Y426225D01*
X535055Y426316D01*
X535083Y426409D01*
X535108Y426502D01*
X535130Y426596D01*
X535147Y426691D01*
X535161Y426787D01*
X535170Y426883D01*
X535176Y426979D01*
X535178Y427076D01*
X535176Y427173D01*
X535170Y427269D01*
X535161Y427365D01*
X535147Y427461D01*
X535130Y427556D01*
X535108Y427650D01*
X535083Y427743D01*
X535055Y427836D01*
X535022Y427927D01*
X534986Y428016D01*
X534946Y428104D01*
X534903Y428191D01*
X534857Y428276D01*
X534807Y428358D01*
X534753Y428439D01*
X534697Y428517D01*
X534637Y428593D01*
X534575Y428667D01*
X534509Y428738D01*
X534441Y428806D01*
X534370Y428872D01*
X534296Y428934D01*
X534220Y428994D01*
X534142Y429050D01*
X534061Y429104D01*
X533979Y429154D01*
X533894Y429200D01*
X533807Y429243D01*
X533719Y429283D01*
X533630Y429319D01*
X533539Y429352D01*
X533446Y429380D01*
X533353Y429405D01*
X533259Y429427D01*
X533164Y429444D01*
X533068Y429458D01*
X532972Y429467D01*
X532876Y429473D01*
X532779Y429475D01*
X532779Y429474D02*
X526542Y429474D01*
X535178Y434126D02*
X535178Y436524D01*
X535176Y436621D01*
X535170Y436717D01*
X535161Y436813D01*
X535147Y436909D01*
X535130Y437004D01*
X535108Y437098D01*
X535083Y437191D01*
X535055Y437284D01*
X535022Y437375D01*
X534986Y437464D01*
X534946Y437552D01*
X534903Y437639D01*
X534857Y437724D01*
X534807Y437806D01*
X534753Y437887D01*
X534697Y437965D01*
X534637Y438041D01*
X534575Y438115D01*
X534509Y438186D01*
X534441Y438254D01*
X534370Y438320D01*
X534296Y438382D01*
X534220Y438442D01*
X534142Y438498D01*
X534061Y438552D01*
X533979Y438602D01*
X533894Y438648D01*
X533807Y438691D01*
X533719Y438731D01*
X533630Y438767D01*
X533539Y438800D01*
X533446Y438828D01*
X533353Y438853D01*
X533259Y438875D01*
X533164Y438892D01*
X533068Y438906D01*
X532972Y438915D01*
X532876Y438921D01*
X532779Y438923D01*
X532682Y438921D01*
X532586Y438915D01*
X532490Y438906D01*
X532394Y438892D01*
X532299Y438875D01*
X532205Y438853D01*
X532112Y438828D01*
X532019Y438800D01*
X531928Y438767D01*
X531839Y438731D01*
X531751Y438691D01*
X531664Y438648D01*
X531580Y438602D01*
X531497Y438552D01*
X531416Y438498D01*
X531338Y438442D01*
X531262Y438382D01*
X531188Y438320D01*
X531117Y438254D01*
X531049Y438186D01*
X530983Y438115D01*
X530921Y438041D01*
X530861Y437965D01*
X530805Y437887D01*
X530751Y437806D01*
X530701Y437724D01*
X530655Y437639D01*
X530612Y437552D01*
X530572Y437464D01*
X530536Y437375D01*
X530503Y437284D01*
X530475Y437191D01*
X530450Y437098D01*
X530428Y437004D01*
X530411Y436909D01*
X530397Y436813D01*
X530388Y436717D01*
X530382Y436621D01*
X530380Y436524D01*
X526542Y437004D02*
X526542Y434126D01*
X526542Y437004D02*
X526544Y437090D01*
X526550Y437176D01*
X526559Y437262D01*
X526573Y437347D01*
X526590Y437431D01*
X526611Y437515D01*
X526636Y437597D01*
X526664Y437678D01*
X526696Y437758D01*
X526732Y437837D01*
X526771Y437913D01*
X526814Y437988D01*
X526859Y438061D01*
X526908Y438132D01*
X526961Y438200D01*
X527016Y438267D01*
X527074Y438330D01*
X527135Y438391D01*
X527198Y438449D01*
X527265Y438504D01*
X527333Y438557D01*
X527404Y438606D01*
X527477Y438651D01*
X527552Y438694D01*
X527628Y438733D01*
X527707Y438769D01*
X527787Y438801D01*
X527868Y438829D01*
X527950Y438854D01*
X528034Y438875D01*
X528118Y438892D01*
X528203Y438906D01*
X528289Y438915D01*
X528375Y438921D01*
X528461Y438923D01*
X528547Y438921D01*
X528633Y438915D01*
X528719Y438906D01*
X528804Y438892D01*
X528888Y438875D01*
X528972Y438854D01*
X529054Y438829D01*
X529135Y438801D01*
X529215Y438769D01*
X529294Y438733D01*
X529370Y438694D01*
X529445Y438651D01*
X529518Y438606D01*
X529589Y438557D01*
X529657Y438504D01*
X529724Y438449D01*
X529787Y438391D01*
X529848Y438330D01*
X529906Y438267D01*
X529961Y438200D01*
X530014Y438132D01*
X530063Y438061D01*
X530108Y437988D01*
X530151Y437913D01*
X530190Y437837D01*
X530226Y437758D01*
X530258Y437678D01*
X530286Y437597D01*
X530311Y437515D01*
X530332Y437431D01*
X530349Y437347D01*
X530363Y437262D01*
X530372Y437176D01*
X530378Y437090D01*
X530380Y437004D01*
X530380Y435085D01*
X436259Y435158D02*
X436259Y436118D01*
X441057Y436118D01*
X438658Y427482D01*
X445403Y429401D02*
X447322Y436118D01*
X445403Y429401D02*
X450201Y429401D01*
X448762Y431320D02*
X448762Y427482D01*
X454878Y427482D02*
X454878Y436118D01*
X454878Y427482D02*
X458716Y427482D01*
X465046Y427482D02*
X465132Y427484D01*
X465218Y427490D01*
X465304Y427499D01*
X465389Y427513D01*
X465473Y427530D01*
X465557Y427551D01*
X465639Y427576D01*
X465720Y427604D01*
X465800Y427636D01*
X465879Y427672D01*
X465955Y427711D01*
X466030Y427754D01*
X466103Y427799D01*
X466174Y427849D01*
X466242Y427901D01*
X466309Y427956D01*
X466372Y428014D01*
X466433Y428075D01*
X466491Y428138D01*
X466546Y428205D01*
X466599Y428273D01*
X466648Y428344D01*
X466693Y428417D01*
X466736Y428492D01*
X466775Y428568D01*
X466811Y428647D01*
X466843Y428727D01*
X466871Y428808D01*
X466896Y428890D01*
X466917Y428974D01*
X466934Y429058D01*
X466948Y429143D01*
X466957Y429229D01*
X466963Y429315D01*
X466965Y429401D01*
X465046Y427482D02*
X464923Y427484D01*
X464800Y427489D01*
X464677Y427499D01*
X464555Y427512D01*
X464433Y427529D01*
X464311Y427549D01*
X464191Y427573D01*
X464071Y427601D01*
X463952Y427632D01*
X463834Y427667D01*
X463717Y427706D01*
X463601Y427748D01*
X463487Y427794D01*
X463374Y427843D01*
X463263Y427895D01*
X463153Y427951D01*
X463045Y428010D01*
X462939Y428073D01*
X462834Y428138D01*
X462732Y428207D01*
X462632Y428279D01*
X462535Y428354D01*
X462439Y428431D01*
X462346Y428512D01*
X462255Y428595D01*
X462167Y428681D01*
X462407Y434199D02*
X462409Y434285D01*
X462415Y434371D01*
X462424Y434457D01*
X462438Y434542D01*
X462455Y434626D01*
X462476Y434710D01*
X462501Y434792D01*
X462529Y434873D01*
X462561Y434953D01*
X462597Y435032D01*
X462636Y435108D01*
X462679Y435183D01*
X462724Y435256D01*
X462773Y435327D01*
X462826Y435395D01*
X462881Y435462D01*
X462939Y435525D01*
X463000Y435586D01*
X463063Y435644D01*
X463130Y435699D01*
X463198Y435752D01*
X463269Y435801D01*
X463342Y435846D01*
X463417Y435889D01*
X463493Y435928D01*
X463572Y435964D01*
X463652Y435996D01*
X463733Y436024D01*
X463815Y436049D01*
X463899Y436070D01*
X463983Y436087D01*
X464068Y436101D01*
X464154Y436110D01*
X464240Y436116D01*
X464326Y436118D01*
X464442Y436116D01*
X464557Y436111D01*
X464673Y436101D01*
X464788Y436088D01*
X464902Y436072D01*
X465016Y436051D01*
X465130Y436027D01*
X465242Y435999D01*
X465353Y435968D01*
X465464Y435933D01*
X465573Y435895D01*
X465681Y435853D01*
X465787Y435808D01*
X465893Y435759D01*
X465996Y435707D01*
X466098Y435652D01*
X466197Y435593D01*
X466295Y435531D01*
X466391Y435466D01*
X466485Y435398D01*
X463366Y432520D02*
X463292Y432566D01*
X463219Y432616D01*
X463149Y432669D01*
X463081Y432725D01*
X463016Y432784D01*
X462953Y432846D01*
X462894Y432911D01*
X462837Y432978D01*
X462783Y433048D01*
X462733Y433120D01*
X462686Y433194D01*
X462642Y433270D01*
X462602Y433349D01*
X462566Y433429D01*
X462533Y433510D01*
X462504Y433593D01*
X462478Y433678D01*
X462456Y433763D01*
X462439Y433849D01*
X462425Y433936D01*
X462415Y434023D01*
X462409Y434111D01*
X462407Y434199D01*
X466006Y431080D02*
X466080Y431034D01*
X466153Y430984D01*
X466223Y430931D01*
X466291Y430875D01*
X466356Y430816D01*
X466419Y430754D01*
X466478Y430689D01*
X466535Y430622D01*
X466589Y430552D01*
X466639Y430480D01*
X466686Y430406D01*
X466730Y430330D01*
X466770Y430251D01*
X466806Y430171D01*
X466839Y430090D01*
X466868Y430007D01*
X466894Y429922D01*
X466916Y429837D01*
X466933Y429751D01*
X466947Y429664D01*
X466957Y429577D01*
X466963Y429489D01*
X466965Y429401D01*
X466005Y431080D02*
X463367Y432520D01*
X471006Y434199D02*
X473405Y436118D01*
X473405Y427482D01*
X471006Y427482D02*
X475804Y427482D01*
X480150Y435158D02*
X480150Y436118D01*
X484948Y436118D01*
X482549Y427482D01*
X489294Y429401D02*
X491213Y436118D01*
X489294Y429401D02*
X494092Y429401D01*
X492653Y431320D02*
X492653Y427482D01*
X498743Y427482D02*
X498743Y436118D01*
X501142Y436118D01*
X501239Y436116D01*
X501335Y436110D01*
X501431Y436101D01*
X501527Y436087D01*
X501622Y436070D01*
X501716Y436048D01*
X501809Y436023D01*
X501902Y435995D01*
X501993Y435962D01*
X502082Y435926D01*
X502170Y435886D01*
X502257Y435843D01*
X502342Y435797D01*
X502424Y435747D01*
X502505Y435693D01*
X502583Y435637D01*
X502659Y435577D01*
X502733Y435515D01*
X502804Y435449D01*
X502872Y435381D01*
X502938Y435310D01*
X503000Y435236D01*
X503060Y435160D01*
X503116Y435082D01*
X503170Y435001D01*
X503220Y434919D01*
X503266Y434834D01*
X503309Y434747D01*
X503349Y434659D01*
X503385Y434570D01*
X503418Y434479D01*
X503446Y434386D01*
X503471Y434293D01*
X503493Y434199D01*
X503510Y434104D01*
X503524Y434008D01*
X503533Y433912D01*
X503539Y433816D01*
X503541Y433719D01*
X503541Y429881D01*
X503539Y429784D01*
X503533Y429688D01*
X503524Y429592D01*
X503510Y429496D01*
X503493Y429401D01*
X503471Y429307D01*
X503446Y429214D01*
X503418Y429121D01*
X503385Y429030D01*
X503349Y428941D01*
X503309Y428853D01*
X503266Y428766D01*
X503220Y428682D01*
X503170Y428599D01*
X503116Y428518D01*
X503060Y428440D01*
X503000Y428364D01*
X502938Y428290D01*
X502872Y428219D01*
X502804Y428151D01*
X502733Y428085D01*
X502659Y428023D01*
X502583Y427963D01*
X502505Y427907D01*
X502424Y427853D01*
X502342Y427803D01*
X502257Y427757D01*
X502170Y427714D01*
X502082Y427674D01*
X501993Y427638D01*
X501902Y427605D01*
X501809Y427577D01*
X501716Y427552D01*
X501622Y427530D01*
X501527Y427513D01*
X501431Y427499D01*
X501335Y427490D01*
X501239Y427484D01*
X501142Y427482D01*
X498743Y427482D01*
X170871Y138938D02*
X170871Y130302D01*
X170871Y138938D02*
X173270Y138938D01*
X173367Y138936D01*
X173463Y138930D01*
X173559Y138921D01*
X173655Y138907D01*
X173750Y138890D01*
X173844Y138868D01*
X173937Y138843D01*
X174030Y138815D01*
X174121Y138782D01*
X174210Y138746D01*
X174298Y138706D01*
X174385Y138663D01*
X174470Y138617D01*
X174552Y138567D01*
X174633Y138513D01*
X174711Y138457D01*
X174787Y138397D01*
X174861Y138335D01*
X174932Y138269D01*
X175000Y138201D01*
X175066Y138130D01*
X175128Y138056D01*
X175188Y137980D01*
X175244Y137902D01*
X175298Y137821D01*
X175348Y137738D01*
X175394Y137654D01*
X175437Y137567D01*
X175477Y137479D01*
X175513Y137390D01*
X175546Y137299D01*
X175574Y137206D01*
X175599Y137113D01*
X175621Y137019D01*
X175638Y136924D01*
X175652Y136828D01*
X175661Y136732D01*
X175667Y136636D01*
X175669Y136539D01*
X175667Y136442D01*
X175661Y136346D01*
X175652Y136250D01*
X175638Y136154D01*
X175621Y136059D01*
X175599Y135965D01*
X175574Y135872D01*
X175546Y135779D01*
X175513Y135688D01*
X175477Y135599D01*
X175437Y135511D01*
X175394Y135424D01*
X175348Y135340D01*
X175298Y135257D01*
X175244Y135176D01*
X175188Y135098D01*
X175128Y135022D01*
X175066Y134948D01*
X175000Y134877D01*
X174932Y134809D01*
X174861Y134743D01*
X174787Y134681D01*
X174711Y134621D01*
X174633Y134565D01*
X174552Y134511D01*
X174470Y134461D01*
X174385Y134415D01*
X174298Y134372D01*
X174210Y134332D01*
X174121Y134296D01*
X174030Y134263D01*
X173937Y134235D01*
X173844Y134210D01*
X173750Y134188D01*
X173655Y134171D01*
X173559Y134157D01*
X173463Y134148D01*
X173367Y134142D01*
X173270Y134140D01*
X170871Y134140D01*
X173750Y134140D02*
X175669Y130302D01*
X179931Y137019D02*
X182330Y138938D01*
X182330Y130302D01*
X179931Y130302D02*
X184729Y130302D01*
X506620Y584640D02*
X506625Y585076D01*
X506641Y585512D01*
X506668Y585948D01*
X506706Y586383D01*
X506754Y586816D01*
X506812Y587249D01*
X506882Y587680D01*
X506962Y588109D01*
X507052Y588536D01*
X507153Y588960D01*
X507264Y589382D01*
X507386Y589801D01*
X507517Y590217D01*
X507659Y590630D01*
X507811Y591039D01*
X507973Y591444D01*
X508145Y591845D01*
X508327Y592242D01*
X508518Y592634D01*
X508719Y593021D01*
X508930Y593404D01*
X509150Y593781D01*
X509379Y594152D01*
X509616Y594518D01*
X509863Y594878D01*
X510119Y595232D01*
X510383Y595579D01*
X510656Y595920D01*
X510937Y596253D01*
X511226Y596580D01*
X511523Y596900D01*
X511828Y597212D01*
X512140Y597517D01*
X512460Y597814D01*
X512787Y598103D01*
X513120Y598384D01*
X513461Y598657D01*
X513808Y598921D01*
X514162Y599177D01*
X514522Y599424D01*
X514888Y599661D01*
X515259Y599890D01*
X515636Y600110D01*
X516019Y600321D01*
X516406Y600522D01*
X516798Y600713D01*
X517195Y600895D01*
X517596Y601067D01*
X518001Y601229D01*
X518410Y601381D01*
X518823Y601523D01*
X519239Y601654D01*
X519658Y601776D01*
X520080Y601887D01*
X520504Y601988D01*
X520931Y602078D01*
X521360Y602158D01*
X521791Y602228D01*
X522224Y602286D01*
X522657Y602334D01*
X523092Y602372D01*
X523528Y602399D01*
X523964Y602415D01*
X524400Y602420D01*
X524836Y602415D01*
X525272Y602399D01*
X525708Y602372D01*
X526143Y602334D01*
X526576Y602286D01*
X527009Y602228D01*
X527440Y602158D01*
X527869Y602078D01*
X528296Y601988D01*
X528720Y601887D01*
X529142Y601776D01*
X529561Y601654D01*
X529977Y601523D01*
X530390Y601381D01*
X530799Y601229D01*
X531204Y601067D01*
X531605Y600895D01*
X532002Y600713D01*
X532394Y600522D01*
X532781Y600321D01*
X533164Y600110D01*
X533541Y599890D01*
X533912Y599661D01*
X534278Y599424D01*
X534638Y599177D01*
X534992Y598921D01*
X535339Y598657D01*
X535680Y598384D01*
X536013Y598103D01*
X536340Y597814D01*
X536660Y597517D01*
X536972Y597212D01*
X537277Y596900D01*
X537574Y596580D01*
X537863Y596253D01*
X538144Y595920D01*
X538417Y595579D01*
X538681Y595232D01*
X538937Y594878D01*
X539184Y594518D01*
X539421Y594152D01*
X539650Y593781D01*
X539870Y593404D01*
X540081Y593021D01*
X540282Y592634D01*
X540473Y592242D01*
X540655Y591845D01*
X540827Y591444D01*
X540989Y591039D01*
X541141Y590630D01*
X541283Y590217D01*
X541414Y589801D01*
X541536Y589382D01*
X541647Y588960D01*
X541748Y588536D01*
X541838Y588109D01*
X541918Y587680D01*
X541988Y587249D01*
X542046Y586816D01*
X542094Y586383D01*
X542132Y585948D01*
X542159Y585512D01*
X542175Y585076D01*
X542180Y584640D01*
X542175Y584204D01*
X542159Y583768D01*
X542132Y583332D01*
X542094Y582897D01*
X542046Y582464D01*
X541988Y582031D01*
X541918Y581600D01*
X541838Y581171D01*
X541748Y580744D01*
X541647Y580320D01*
X541536Y579898D01*
X541414Y579479D01*
X541283Y579063D01*
X541141Y578650D01*
X540989Y578241D01*
X540827Y577836D01*
X540655Y577435D01*
X540473Y577038D01*
X540282Y576646D01*
X540081Y576259D01*
X539870Y575876D01*
X539650Y575499D01*
X539421Y575128D01*
X539184Y574762D01*
X538937Y574402D01*
X538681Y574048D01*
X538417Y573701D01*
X538144Y573360D01*
X537863Y573027D01*
X537574Y572700D01*
X537277Y572380D01*
X536972Y572068D01*
X536660Y571763D01*
X536340Y571466D01*
X536013Y571177D01*
X535680Y570896D01*
X535339Y570623D01*
X534992Y570359D01*
X534638Y570103D01*
X534278Y569856D01*
X533912Y569619D01*
X533541Y569390D01*
X533164Y569170D01*
X532781Y568959D01*
X532394Y568758D01*
X532002Y568567D01*
X531605Y568385D01*
X531204Y568213D01*
X530799Y568051D01*
X530390Y567899D01*
X529977Y567757D01*
X529561Y567626D01*
X529142Y567504D01*
X528720Y567393D01*
X528296Y567292D01*
X527869Y567202D01*
X527440Y567122D01*
X527009Y567052D01*
X526576Y566994D01*
X526143Y566946D01*
X525708Y566908D01*
X525272Y566881D01*
X524836Y566865D01*
X524400Y566860D01*
X523964Y566865D01*
X523528Y566881D01*
X523092Y566908D01*
X522657Y566946D01*
X522224Y566994D01*
X521791Y567052D01*
X521360Y567122D01*
X520931Y567202D01*
X520504Y567292D01*
X520080Y567393D01*
X519658Y567504D01*
X519239Y567626D01*
X518823Y567757D01*
X518410Y567899D01*
X518001Y568051D01*
X517596Y568213D01*
X517195Y568385D01*
X516798Y568567D01*
X516406Y568758D01*
X516019Y568959D01*
X515636Y569170D01*
X515259Y569390D01*
X514888Y569619D01*
X514522Y569856D01*
X514162Y570103D01*
X513808Y570359D01*
X513461Y570623D01*
X513120Y570896D01*
X512787Y571177D01*
X512460Y571466D01*
X512140Y571763D01*
X511828Y572068D01*
X511523Y572380D01*
X511226Y572700D01*
X510937Y573027D01*
X510656Y573360D01*
X510383Y573701D01*
X510119Y574048D01*
X509863Y574402D01*
X509616Y574762D01*
X509379Y575128D01*
X509150Y575499D01*
X508930Y575876D01*
X508719Y576259D01*
X508518Y576646D01*
X508327Y577038D01*
X508145Y577435D01*
X507973Y577836D01*
X507811Y578241D01*
X507659Y578650D01*
X507517Y579063D01*
X507386Y579479D01*
X507264Y579898D01*
X507153Y580320D01*
X507052Y580744D01*
X506962Y581171D01*
X506882Y581600D01*
X506812Y582031D01*
X506754Y582464D01*
X506706Y582897D01*
X506668Y583332D01*
X506641Y583768D01*
X506625Y584204D01*
X506620Y584640D01*
X494400Y554640D02*
X554400Y554640D01*
X494400Y554640D02*
X494400Y614640D01*
X554400Y614640D01*
X554400Y554640D01*
X563680Y580322D02*
X563766Y580324D01*
X563852Y580330D01*
X563938Y580339D01*
X564023Y580353D01*
X564107Y580370D01*
X564191Y580391D01*
X564273Y580416D01*
X564354Y580444D01*
X564434Y580476D01*
X564513Y580512D01*
X564589Y580551D01*
X564664Y580594D01*
X564737Y580639D01*
X564808Y580689D01*
X564876Y580741D01*
X564943Y580796D01*
X565006Y580854D01*
X565067Y580915D01*
X565125Y580978D01*
X565180Y581045D01*
X565233Y581113D01*
X565282Y581184D01*
X565327Y581257D01*
X565370Y581332D01*
X565409Y581408D01*
X565445Y581487D01*
X565477Y581567D01*
X565505Y581648D01*
X565530Y581730D01*
X565551Y581814D01*
X565568Y581898D01*
X565582Y581983D01*
X565591Y582069D01*
X565597Y582155D01*
X565599Y582241D01*
X563680Y580322D02*
X563557Y580324D01*
X563434Y580329D01*
X563311Y580339D01*
X563189Y580352D01*
X563067Y580369D01*
X562945Y580389D01*
X562825Y580413D01*
X562705Y580441D01*
X562586Y580472D01*
X562468Y580507D01*
X562351Y580546D01*
X562235Y580588D01*
X562121Y580634D01*
X562008Y580683D01*
X561897Y580735D01*
X561787Y580791D01*
X561679Y580850D01*
X561573Y580913D01*
X561468Y580978D01*
X561366Y581047D01*
X561266Y581119D01*
X561169Y581194D01*
X561073Y581271D01*
X560980Y581352D01*
X560889Y581435D01*
X560801Y581521D01*
X561041Y587039D02*
X561043Y587125D01*
X561049Y587211D01*
X561058Y587297D01*
X561072Y587382D01*
X561089Y587466D01*
X561110Y587550D01*
X561135Y587632D01*
X561163Y587713D01*
X561195Y587793D01*
X561231Y587872D01*
X561270Y587948D01*
X561313Y588023D01*
X561358Y588096D01*
X561407Y588167D01*
X561460Y588235D01*
X561515Y588302D01*
X561573Y588365D01*
X561634Y588426D01*
X561697Y588484D01*
X561764Y588539D01*
X561832Y588592D01*
X561903Y588641D01*
X561976Y588686D01*
X562051Y588729D01*
X562127Y588768D01*
X562206Y588804D01*
X562286Y588836D01*
X562367Y588864D01*
X562449Y588889D01*
X562533Y588910D01*
X562617Y588927D01*
X562702Y588941D01*
X562788Y588950D01*
X562874Y588956D01*
X562960Y588958D01*
X563076Y588956D01*
X563191Y588951D01*
X563307Y588941D01*
X563422Y588928D01*
X563536Y588912D01*
X563650Y588891D01*
X563764Y588867D01*
X563876Y588839D01*
X563987Y588808D01*
X564098Y588773D01*
X564207Y588735D01*
X564315Y588693D01*
X564421Y588648D01*
X564527Y588599D01*
X564630Y588547D01*
X564732Y588492D01*
X564831Y588433D01*
X564929Y588371D01*
X565025Y588306D01*
X565119Y588238D01*
X562000Y585360D02*
X561926Y585406D01*
X561853Y585456D01*
X561783Y585509D01*
X561715Y585565D01*
X561650Y585624D01*
X561587Y585686D01*
X561528Y585751D01*
X561471Y585818D01*
X561417Y585888D01*
X561367Y585960D01*
X561320Y586034D01*
X561276Y586110D01*
X561236Y586189D01*
X561200Y586269D01*
X561167Y586350D01*
X561138Y586433D01*
X561112Y586518D01*
X561090Y586603D01*
X561073Y586689D01*
X561059Y586776D01*
X561049Y586863D01*
X561043Y586951D01*
X561041Y587039D01*
X564640Y583920D02*
X564714Y583874D01*
X564787Y583824D01*
X564857Y583771D01*
X564925Y583715D01*
X564990Y583656D01*
X565053Y583594D01*
X565112Y583529D01*
X565169Y583462D01*
X565223Y583392D01*
X565273Y583320D01*
X565320Y583246D01*
X565364Y583170D01*
X565404Y583091D01*
X565440Y583011D01*
X565473Y582930D01*
X565502Y582847D01*
X565528Y582762D01*
X565550Y582677D01*
X565567Y582591D01*
X565581Y582504D01*
X565591Y582417D01*
X565597Y582329D01*
X565599Y582241D01*
X564639Y583920D02*
X562001Y585360D01*
X569640Y587039D02*
X572039Y588958D01*
X572039Y580322D01*
X569640Y580322D02*
X574438Y580322D01*
X99370Y343522D02*
X97451Y343522D01*
X97365Y343524D01*
X97279Y343530D01*
X97193Y343539D01*
X97108Y343553D01*
X97024Y343570D01*
X96940Y343591D01*
X96858Y343616D01*
X96777Y343644D01*
X96697Y343676D01*
X96618Y343712D01*
X96542Y343751D01*
X96467Y343794D01*
X96394Y343839D01*
X96323Y343888D01*
X96255Y343941D01*
X96188Y343996D01*
X96125Y344054D01*
X96064Y344115D01*
X96006Y344178D01*
X95951Y344245D01*
X95898Y344313D01*
X95849Y344384D01*
X95804Y344457D01*
X95761Y344532D01*
X95722Y344608D01*
X95686Y344687D01*
X95654Y344767D01*
X95626Y344848D01*
X95601Y344930D01*
X95580Y345014D01*
X95563Y345098D01*
X95549Y345183D01*
X95540Y345269D01*
X95534Y345355D01*
X95532Y345441D01*
X95532Y350239D01*
X95534Y350325D01*
X95540Y350411D01*
X95549Y350497D01*
X95563Y350582D01*
X95580Y350666D01*
X95601Y350750D01*
X95626Y350832D01*
X95654Y350913D01*
X95686Y350993D01*
X95722Y351072D01*
X95761Y351148D01*
X95804Y351223D01*
X95849Y351296D01*
X95898Y351367D01*
X95951Y351435D01*
X96006Y351502D01*
X96064Y351565D01*
X96125Y351626D01*
X96188Y351684D01*
X96255Y351739D01*
X96323Y351791D01*
X96394Y351841D01*
X96467Y351886D01*
X96542Y351929D01*
X96618Y351968D01*
X96697Y352004D01*
X96777Y352036D01*
X96858Y352064D01*
X96940Y352089D01*
X97024Y352110D01*
X97108Y352127D01*
X97193Y352141D01*
X97279Y352150D01*
X97365Y352156D01*
X97451Y352158D01*
X99370Y352158D01*
X103190Y350239D02*
X105589Y352158D01*
X105589Y343522D01*
X103190Y343522D02*
X107988Y343522D01*
X386728Y446701D02*
X386728Y448620D01*
X386728Y446701D02*
X386726Y446615D01*
X386720Y446529D01*
X386711Y446443D01*
X386697Y446358D01*
X386680Y446274D01*
X386659Y446190D01*
X386634Y446108D01*
X386606Y446027D01*
X386574Y445947D01*
X386538Y445868D01*
X386499Y445792D01*
X386456Y445717D01*
X386411Y445644D01*
X386362Y445573D01*
X386309Y445505D01*
X386254Y445438D01*
X386196Y445375D01*
X386135Y445314D01*
X386072Y445256D01*
X386005Y445201D01*
X385937Y445149D01*
X385866Y445099D01*
X385793Y445054D01*
X385718Y445011D01*
X385642Y444972D01*
X385563Y444936D01*
X385483Y444904D01*
X385402Y444876D01*
X385320Y444851D01*
X385236Y444830D01*
X385152Y444813D01*
X385067Y444799D01*
X384981Y444790D01*
X384895Y444784D01*
X384809Y444782D01*
X380011Y444782D01*
X379925Y444784D01*
X379839Y444790D01*
X379753Y444799D01*
X379668Y444813D01*
X379584Y444830D01*
X379500Y444851D01*
X379418Y444876D01*
X379337Y444904D01*
X379257Y444936D01*
X379178Y444972D01*
X379102Y445011D01*
X379027Y445054D01*
X378954Y445099D01*
X378883Y445148D01*
X378815Y445201D01*
X378748Y445256D01*
X378685Y445314D01*
X378624Y445375D01*
X378566Y445438D01*
X378511Y445505D01*
X378459Y445573D01*
X378409Y445644D01*
X378364Y445717D01*
X378321Y445792D01*
X378282Y445868D01*
X378246Y445947D01*
X378214Y446027D01*
X378186Y446108D01*
X378161Y446190D01*
X378140Y446274D01*
X378123Y446358D01*
X378109Y446443D01*
X378100Y446529D01*
X378094Y446615D01*
X378092Y446701D01*
X378092Y448620D01*
X378092Y455079D02*
X378094Y455171D01*
X378100Y455262D01*
X378109Y455353D01*
X378123Y455444D01*
X378140Y455534D01*
X378162Y455623D01*
X378187Y455711D01*
X378215Y455798D01*
X378248Y455884D01*
X378284Y455968D01*
X378323Y456051D01*
X378366Y456132D01*
X378413Y456211D01*
X378462Y456288D01*
X378515Y456363D01*
X378571Y456435D01*
X378630Y456505D01*
X378692Y456573D01*
X378757Y456638D01*
X378825Y456700D01*
X378895Y456759D01*
X378967Y456815D01*
X379042Y456868D01*
X379119Y456917D01*
X379198Y456964D01*
X379279Y457007D01*
X379362Y457046D01*
X379446Y457082D01*
X379532Y457115D01*
X379619Y457143D01*
X379707Y457168D01*
X379796Y457190D01*
X379886Y457207D01*
X379977Y457221D01*
X380068Y457230D01*
X380159Y457236D01*
X380251Y457238D01*
X378092Y455079D02*
X378094Y454976D01*
X378100Y454874D01*
X378109Y454772D01*
X378122Y454670D01*
X378139Y454569D01*
X378160Y454468D01*
X378184Y454369D01*
X378213Y454270D01*
X378244Y454173D01*
X378280Y454076D01*
X378318Y453981D01*
X378361Y453888D01*
X378407Y453796D01*
X378456Y453706D01*
X378508Y453618D01*
X378564Y453531D01*
X378623Y453447D01*
X378684Y453366D01*
X378749Y453286D01*
X378817Y453209D01*
X378888Y453134D01*
X378961Y453063D01*
X379037Y452994D01*
X379115Y452927D01*
X379196Y452864D01*
X379279Y452804D01*
X379364Y452747D01*
X379451Y452693D01*
X379541Y452642D01*
X379632Y452595D01*
X379724Y452551D01*
X379819Y452510D01*
X379914Y452473D01*
X380011Y452440D01*
X381930Y456518D02*
X381864Y456585D01*
X381795Y456649D01*
X381724Y456710D01*
X381650Y456768D01*
X381574Y456823D01*
X381496Y456875D01*
X381416Y456924D01*
X381334Y456970D01*
X381250Y457012D01*
X381164Y457051D01*
X381077Y457086D01*
X380989Y457117D01*
X380899Y457145D01*
X380809Y457170D01*
X380717Y457191D01*
X380625Y457208D01*
X380532Y457221D01*
X380439Y457230D01*
X380345Y457236D01*
X380251Y457238D01*
X381930Y456518D02*
X386728Y452440D01*
X386728Y457238D01*
M02*
