G04 EAGLE Gerber RS-274X export*
G75*
%MOMM*%
%FSLAX34Y34*%
%LPD*%
%INBottom Solder Mask*%
%IPPOS*%
%AMOC8*
5,1,8,0,0,1.08239X$1,22.5*%
G01*
%ADD10C,4.800600*%
%ADD11R,2.006600X7.721600*%
%ADD12R,59.690000X8.890000*%
%ADD13R,1.778000X1.778000*%
%ADD14C,1.778000*%
%ADD15R,1.879600X1.879600*%
%ADD16C,1.879600*%
%ADD17R,1.270000X1.701800*%
%ADD18R,2.641600X5.181600*%


D10*
X304800Y433070D03*
D11*
X38100Y44450D03*
X63500Y44450D03*
X88900Y44450D03*
X114300Y44450D03*
X139700Y44450D03*
X165100Y44450D03*
X190500Y44450D03*
X215900Y44450D03*
X241300Y44450D03*
X266700Y44450D03*
X292100Y44450D03*
X317500Y44450D03*
X342900Y44450D03*
X368300Y44450D03*
X393700Y44450D03*
X419100Y44450D03*
X444500Y44450D03*
X469900Y44450D03*
X495300Y44450D03*
X520700Y44450D03*
X546100Y44450D03*
X571500Y44450D03*
D12*
X304800Y40640D03*
D13*
X177800Y190500D03*
D14*
X203200Y190500D03*
X228600Y190500D03*
X254000Y190500D03*
X279400Y190500D03*
X304800Y190500D03*
X330200Y190500D03*
X355600Y190500D03*
X381000Y190500D03*
X406400Y190500D03*
X431800Y190500D03*
X457200Y190500D03*
X482600Y190500D03*
X508000Y190500D03*
X533400Y190500D03*
X558800Y190500D03*
X558800Y342900D03*
X533400Y342900D03*
X508000Y342900D03*
X482600Y342900D03*
X457200Y342900D03*
X431800Y342900D03*
X406400Y342900D03*
X381000Y342900D03*
X355600Y342900D03*
X330200Y342900D03*
X304800Y342900D03*
X279400Y342900D03*
X254000Y342900D03*
X228600Y342900D03*
X203200Y342900D03*
X177800Y342900D03*
D15*
X556912Y562034D03*
D16*
X556912Y607246D03*
X491888Y562034D03*
X491888Y607246D03*
D17*
X212090Y482600D03*
X196850Y482600D03*
X181610Y482600D03*
D18*
X524510Y596900D03*
M02*
