M48
;GenerationSoftware,Autodesk,EAGLE,9.4.2*%
;CreationDate,2019-09-30T17:15:27Z*%
FMAT,2
ICI,OFF
METRIC,TZ,000.000
T4C0.350
T3C0.900
T2C1.016
T1C4.699
%
G90
M71
T1
X30480Y43307
T2
X49189Y56203
X55691Y60725
X55691Y56203
X49189Y60725
T3
X20320Y34290
X22860Y34290
X25400Y34290
X27940Y34290
X30480Y34290
X33020Y34290
X35560Y34290
X38100Y34290
X40640Y34290
X43180Y34290
X45720Y34290
X48260Y34290
X50800Y34290
X17780Y34290
X55880Y34290
X55880Y19050
X53340Y19050
X50800Y19050
X48260Y19050
X45720Y19050
X43180Y19050
X40640Y19050
X38100Y19050
X35560Y19050
X33020Y19050
X30480Y19050
X27940Y19050
X25400Y19050
X22860Y19050
X20320Y19050
X17780Y19050
X53340Y34290
T4
X35560Y21590
X24765Y21590
X58420Y10160
X2540Y10160
X22225Y46355
X15875Y41910
X33909Y35941
X16510Y38100
X27940Y21590
X40640Y36195
X52070Y37465
X30480Y53975
X57150Y44450
X7620Y19050
X7874Y33020
X40005Y42799
X36830Y39370
X54610Y36195
X22225Y43815
X12700Y34290
X21590Y37465
X25400Y13970
X21590Y16510
X56515Y26670
X44450Y48641
X16510Y16891
X22860Y31750
X12319Y19685
X48260Y21590
X30480Y10160
X36830Y59690
X6350Y40640
X3810Y48260
X10160Y36830
X34290Y45720
X49530Y52070
X55880Y15240
X5080Y13970
X43180Y11430
X15240Y54610
X12700Y44450
X58420Y19050
X55880Y50800
X16510Y22860
X5080Y60960
X18161Y44450
X10795Y20955
X34290Y8890
X31750Y8890
X30480Y12700
X31750Y21590
X49530Y48237
X21999Y38961
X19685Y41275
X19685Y44450
X13970Y20320
X19050Y8890
X19050Y36195
X22860Y11430
X15240Y31115
X12700Y31750
X3175Y28575
X5080Y34925
X51435Y48260
X49530Y24130
X44450Y37465
X46990Y37465
X48895Y37465
X45085Y44450
X45720Y36195
X19050Y25400
X22860Y25400
X27305Y37465
X13970Y39370
X38735Y37465
X41275Y41275
X23495Y48260
X24130Y38100
X30480Y13970
X21590Y21590
X26035Y42545
X52070Y26670
X35560Y8890
X27940Y8890
X38100Y8890
X40640Y8890
X43180Y8890
X45720Y8890
X48260Y8890
X50800Y8890
X50800Y16510
X50800Y11430
X48260Y11430
X45720Y21590
X43180Y21590
X40640Y21590
X38100Y21590
X40005Y29845
X31750Y29845
X30480Y21590
X11430Y11430
X16510Y11430
X20320Y11430
X25400Y11430
X20320Y31750
X27940Y31750
X27940Y13970
X33020Y11430
X35560Y11430
X38100Y11430
X40640Y11430
X53340Y11430
X45720Y11430
X41910Y52070
M30